<svg xmlns="http://www.w3.org/2000/svg" xmlns:xlink="http://www.w3.org/1999/xlink"><defs><style>
    .sprite-symbol-usage {display: none;}
    .sprite-symbol-usage:target {display: inline;}
  </style><symbol viewBox="0 0 580 580" id="chevron-down"><path d="M289.62,405.36a21.31,21.31,0,0,0,14.88-6.3L493,209.82a20.67,20.67,0,0,0,.45-29.33c-3.68-3.68-8.72-5.65-14.9-5.85a21.13,21.13,0,0,0-14.46,6.3L290.3,355.27,116.3,181a19.06,19.06,0,0,0-14.09-5.82,21.48,21.48,0,0,0-15.3,6.27v0a21.15,21.15,0,0,0-6.27,14.88,20.16,20.16,0,0,0,5.88,14.48L275.17,399.51a19.93,19.93,0,0,0,14.45,5.85" fill="#cd0f2d" data-name="Ebene 1" /></symbol><symbol viewBox="0 0 500 500" id="close"><path d="M250 179.9L70-.1l-70 70 180 180-180 180 70 70 180-180 180 180 70-70-180-180 180-180-70-70-180 180z" /></symbol><symbol viewBox="0 0 1719.92 1938.01" id="cross"><defs><style>#cross .cls-4{fill:none;stroke:#505456;stroke-linecap:round;stroke-linejoin:round;stroke-width:5px}</style></defs><g style="isolation:isolate"><g style="mix-blend-mode:multiply" opacity=".25" id="cross_Ebene_1"><path class="cls-4" d="M768.57 121.44L796.29 149.17M124.82 121.44L152.54 149.17M811.66 164.54L839.39 192.26M167.91 164.54L195.64 192.26M768.63 192.2L796.36 164.47M124.88 192.2L152.61 164.47M811.72 149.11L839.45 121.38M167.97 149.11L195.7 121.38M768.72 14.38L796.45 42.11M124.97 14.38L152.7 42.11M811.81 57.47L839.54 85.2M168.06 57.47L195.79 85.2M768.78 85.13L796.51 57.41M125.03 85.13L152.76 57.41M811.88 42.04L839.6 14.31M168.12 42.04L195.85 14.31M876.56 14.38L904.29 42.11M232.81 14.38L260.53 42.11M919.65 57.47L947.38 85.2M275.9 57.47L303.63 85.2M876.62 85.13L904.35 57.41M232.87 85.13L260.6 57.41M919.72 42.04L947.44 14.31M275.96 42.04L303.69 14.31M1090.57 14.38L1118.3 42.11M446.82 14.38L474.55 42.11M1133.67 57.47L1161.39 85.2M489.91 57.47L517.64 85.2M1090.64 85.13L1118.36 57.41M446.89 85.13L474.61 57.41M1133.73 42.04L1161.46 14.31M489.98 42.04L517.71 14.31M661.78 14.38L689.51 42.11M18.03 14.38L45.76 42.11M704.88 57.47L732.6 85.2M61.12 57.47L88.85 85.2M661.85 85.13L689.57 57.41M18.1 85.13L45.82 57.41M704.94 42.04L732.67 14.31M61.19 42.04L88.92 14.31M983.11 121.44L1010.84 149.17M339.36 121.44L367.08 149.17M1026.2 164.54L1053.93 192.26M382.45 164.54L410.18 192.26M983.17 192.2L1010.9 164.47M339.42 192.2L367.15 164.47M1026.27 149.11L1053.99 121.38M382.51 149.11L410.24 121.38M983.26 14.38L1010.99 42.11M339.51 14.38L367.24 42.11M1026.35 57.47L1054.08 85.2M382.6 57.47L410.33 85.2M983.33 85.13L1011.05 57.41M339.57 85.13L367.3 57.41M1026.42 42.04L1054.15 14.31M382.67 42.04L410.39 14.31M1197.91 121.44L1225.63 149.17M554.15 121.44L581.88 149.17M1241 164.54L1268.73 192.26M597.25 164.54L624.97 192.26M1197.97 192.2L1225.7 164.47M554.22 192.2L581.95 164.47M1241.06 149.11L1268.79 121.38M597.31 149.11L625.04 121.38M1198.06 14.38L1225.79 42.11M554.31 14.38L582.03 42.11M1241.15 57.47L1268.88 85.2M597.4 57.47L625.13 85.2M1198.12 85.13L1225.85 57.41M554.37 85.13L582.1 57.41M1241.22 42.04L1268.94 14.31M597.46 42.04L625.19 14.31M661.59 228.6L689.32 256.32M661.59 878.84L689.32 906.56M17.84 228.6L45.56 256.32M704.68 271.69L732.41 299.42M704.68 921.93L732.41 949.66M60.93 271.69L88.66 299.42M661.65 299.35L689.38 271.62M661.65 949.59L689.38 921.86M17.9 299.35L45.63 271.62M704.75 256.26L732.47 228.53M704.75 906.5L732.47 878.77M60.99 256.26L88.72 228.53M661.74 121.53L689.47 149.26M17.99 121.53L45.72 149.26M704.83 164.62L732.56 192.35M61.08 164.62L88.81 192.35M661.81 192.29L689.53 164.56M18.05 192.29L45.78 164.56M704.9 149.19L732.63 121.47M61.15 149.19L88.87 121.47M876.13 228.6L903.86 256.32M876.13 878.84L903.86 906.56M232.38 228.6L260.11 256.32M232.38 878.84L260.11 906.56M919.22 271.69L946.95 299.42M919.22 921.93L946.95 949.66M275.47 271.69L303.2 299.42M275.47 921.93L303.2 949.66M876.2 299.35L903.92 271.62M876.2 949.59L903.92 921.86M232.44 299.35L260.17 271.62M232.44 949.59L260.17 921.86M919.29 256.26L947.01 228.53M919.29 906.5L947.01 878.77M275.54 256.26L303.26 228.53M275.54 906.5L303.26 878.77M876.28 121.53L904.01 149.26M232.53 121.53L260.26 149.26M919.38 164.62L947.1 192.35M275.62 164.62L303.35 192.35M876.35 192.29L904.07 164.56M232.6 192.29L260.32 164.56M919.44 149.19L947.17 121.47M275.69 149.19L303.42 121.47M1090.93 228.6L1118.65 256.32M1090.93 878.84L1118.65 906.56M447.18 228.6L474.9 256.32M447.18 878.84L474.9 906.56M1134.02 271.69L1161.75 299.42M1134.02 921.93L1161.75 949.66M490.27 271.69L518 299.42M490.27 921.93L518 949.66M1090.99 299.35L1118.72 271.62M1090.99 949.59L1118.72 921.86M447.24 299.35L474.97 271.62M447.24 949.59L474.97 921.86M1134.08 256.26L1161.81 228.53M1134.08 906.5L1161.81 878.77M490.33 256.26L518.06 228.53M490.33 906.5L518.06 878.77M1091.08 121.53L1118.81 149.26M447.33 121.53L475.06 149.26M1134.17 164.62L1161.9 192.35M490.42 164.62L518.15 192.35M1091.14 192.29L1118.87 164.56M447.39 192.29L475.12 164.56M1134.24 149.19L1161.96 121.47M490.49 149.19L518.21 121.47M768.57 335.98L796.29 363.71M768.57 986.22L796.29 1013.95M124.82 335.98L152.54 363.71M124.82 986.22L152.54 1013.95M811.66 379.08L839.39 406.8M811.66 1029.32L839.39 1057.04M167.91 379.08L195.64 406.8M167.91 1029.32L195.64 1057.04M768.63 406.74L796.36 379.01M768.63 1056.98L796.36 1029.25M124.88 406.74L152.61 379.01M124.88 1056.98L152.61 1029.25M811.72 363.65L839.45 335.92M811.72 1013.89L839.45 986.16M167.97 363.65L195.7 335.92M167.97 1013.89L195.7 986.16M768.72 228.92L796.45 256.64M768.72 879.16L796.45 906.89M124.97 228.92L152.7 256.64M124.97 879.16L152.7 906.89M811.81 272.01L839.54 299.74M811.81 922.25L839.54 949.98M168.06 272.01L195.79 299.74M168.06 922.25L195.79 949.98M768.78 299.67L796.51 271.95M768.78 949.91L796.51 922.19M125.03 299.67L152.76 271.95M125.03 949.91L152.76 922.19M811.88 256.58L839.6 228.85M811.88 906.82L839.6 879.09M168.12 256.58L195.85 228.85M168.12 906.82L195.85 879.09M983.11 335.98L1010.84 363.71M983.11 986.22L1010.84 1013.95M339.36 335.98L367.08 363.71M339.36 986.22L367.08 1013.95M1026.2 379.08L1053.93 406.8M1026.2 1029.32L1053.93 1057.04M382.45 379.08L410.18 406.8M382.45 1029.32L410.18 1057.04M983.17 406.74L1010.9 379.01M983.17 1056.98L1010.9 1029.25M339.42 406.74L367.15 379.01M339.42 1056.98L367.15 1029.25M1026.27 363.65L1053.99 335.92M1026.27 1013.89L1053.99 986.16M382.51 363.65L410.24 335.92M382.51 1013.89L410.24 986.16M983.26 228.92L1010.99 256.65M983.26 879.16L1010.99 906.89M339.51 228.92L367.24 256.64M339.51 879.16L367.24 906.88M1026.35 272.01L1054.08 299.74M1026.35 922.25L1054.08 949.98M382.6 272.01L410.33 299.74M382.6 922.25L410.33 949.98M983.33 299.67L1011.05 271.95M983.33 949.91L1011.05 922.19M339.57 299.67L367.3 271.95M339.57 949.91L367.3 922.19M1026.42 256.58L1054.15 228.85M1026.42 906.82L1054.15 879.09M382.67 256.58L410.39 228.85M382.67 906.82L410.39 879.09M1197.91 335.98L1225.63 363.71M1197.91 986.22L1225.63 1013.95M554.15 335.98L581.88 363.71M554.15 986.22L581.88 1013.95M1241 379.08L1268.73 406.8M1241 1029.32L1268.73 1057.04M597.25 379.08L624.97 406.8M597.25 1029.32L624.97 1057.04M1197.97 406.74L1225.7 379.01M1197.97 1056.98L1225.7 1029.25M554.22 406.74L581.95 379.01M554.22 1056.98L581.95 1029.25M1241.06 363.65L1268.79 335.92M1241.06 1013.89L1268.79 986.16M597.31 363.65L625.04 335.92M597.31 1013.89L625.04 986.16M1198.06 228.92L1225.79 256.64M1198.06 879.16L1225.79 906.88M554.31 228.92L582.03 256.64M554.31 879.16L582.03 906.88M1241.15 272.01L1268.88 299.74M1241.15 922.25L1268.88 949.98M597.4 272.01L625.13 299.74M597.4 922.25L625.13 949.98M1198.12 299.67L1225.85 271.95M1198.12 949.91L1225.85 922.19M554.37 299.67L582.1 271.95M554.37 949.91L582.1 922.19M1241.22 256.58L1268.94 228.85M1241.22 906.82L1268.94 879.09M597.46 256.58L625.19 228.85M597.46 906.82L625.19 879.09M661.59 443.14L689.32 470.86M661.59 1093.38L689.32 1121.1M17.84 443.14L45.56 470.86M704.68 486.23L732.41 513.95M704.68 1136.47L732.41 1164.2M60.93 486.23L88.66 513.95M661.65 513.89L689.38 486.16M661.65 1164.13L689.38 1136.4M17.9 513.89L45.63 486.16M704.75 470.8L732.47 443.07M704.75 1121.04L732.47 1093.31M60.99 470.8L88.72 443.07M661.74 336.07L689.47 363.8M661.74 986.31L689.47 1014.04M17.99 336.07L45.72 363.8M704.83 379.16L732.56 406.89M704.83 1029.4L732.56 1057.13M61.08 379.16L88.81 406.89M661.81 406.83L689.53 379.1M661.81 1057.07L689.53 1029.34M18.05 406.83L45.78 379.1M704.9 363.73L732.63 336.01M704.9 1013.97L732.63 986.25M61.15 363.73L88.87 336.01M876.13 443.14L903.86 470.86M876.13 1093.38L903.86 1121.1M232.38 443.14L260.11 470.86M232.38 1093.38L260.11 1121.1M919.22 486.23L946.95 513.95M919.22 1136.47L946.95 1164.2M275.47 486.23L303.2 513.95M275.47 1136.47L303.2 1164.19M876.2 513.89L903.92 486.16M876.2 1164.13L903.92 1136.4M232.44 513.89L260.17 486.16M232.44 1164.13L260.17 1136.4M919.29 470.8L947.01 443.07M919.29 1121.04L947.01 1093.31M275.54 470.8L303.26 443.07M275.54 1121.04L303.26 1093.31M876.28 336.07L904.01 363.8M876.28 986.31L904.01 1014.04M232.53 336.07L260.26 363.8M232.53 986.31L260.26 1014.04M919.38 379.16L947.1 406.89M919.38 1029.4L947.1 1057.13M275.62 379.16L303.35 406.89M275.62 1029.4L303.35 1057.13M876.35 406.83L904.07 379.1M876.35 1057.07L904.07 1029.34M232.6 406.83L260.32 379.1M232.6 1057.07L260.32 1029.34M919.44 363.73L947.17 336.01M919.44 1013.97L947.17 986.25M275.69 363.73L303.42 336.01M275.69 1013.97L303.42 986.25M1090.93 443.14L1118.65 470.86M1090.93 1093.38L1118.65 1121.1M447.18 443.14L474.9 470.86M447.18 1093.38L474.9 1121.1M1134.02 486.23L1161.75 513.95M1134.02 1136.47L1161.75 1164.19M490.27 486.23L518 513.95M490.27 1136.47L518 1164.2M1090.99 513.89L1118.72 486.16M1090.99 1164.13L1118.72 1136.4M447.24 513.89L474.97 486.16M447.24 1164.13L474.97 1136.4M1134.08 470.8L1161.81 443.07M1134.08 1121.04L1161.81 1093.31M490.33 470.8L518.06 443.07M490.33 1121.04L518.06 1093.31M1091.08 336.07L1118.81 363.8M1091.08 986.31L1118.81 1014.04M447.33 336.07L475.06 363.8M447.33 986.31L475.06 1014.04M1134.17 379.16L1161.9 406.89M1134.17 1029.4L1161.9 1057.13M490.42 379.16L518.15 406.89M490.42 1029.4L518.15 1057.13M1091.14 406.83L1118.87 379.1M1091.14 1057.07L1118.87 1029.34M447.39 406.83L475.12 379.1M447.39 1057.07L475.12 1029.34M1134.24 363.73L1161.96 336.01M1134.24 1013.97L1161.96 986.25M490.49 363.73L518.21 336.01M490.49 1013.97L518.21 986.25M768.72 549.84L796.45 577.57M768.72 1200.08L796.45 1227.81M124.97 549.84L152.7 577.57M124.97 1200.08L152.7 1227.81M811.81 592.94L839.54 620.66M811.81 1243.18L839.54 1270.9M168.06 592.94L195.79 620.66M168.06 1243.18L195.79 1270.9M768.78 620.6L796.51 592.87M768.78 1270.84L796.51 1243.11M125.03 620.6L152.76 592.87M125.03 1270.84L152.76 1243.11M811.88 577.51L839.6 549.78M811.88 1227.75L839.6 1200.02M168.12 577.51L195.85 549.78M168.12 1227.75L195.85 1200.02M768.87 442.78L796.6 470.51M768.87 1093.02L796.6 1120.75M125.12 442.78L152.85 470.51M125.12 1093.02L152.85 1120.75M811.96 485.87L839.69 513.6M811.96 1136.11L839.69 1163.84M168.21 485.87L195.94 513.6M168.21 1136.11L195.94 1163.84M768.94 513.54L796.66 485.81M768.94 1163.78L796.66 1136.05M125.18 513.54L152.91 485.81M125.18 1163.78L152.91 1136.05M812.03 470.44L839.76 442.72M812.03 1120.68L839.76 1092.96M168.28 470.44L196 442.72M168.28 1120.68L196 1092.96M983.26 549.84L1010.99 577.57M983.26 1200.08L1010.99 1227.81M339.51 549.84L367.24 577.57M339.51 1200.08L367.24 1227.81M1026.35 592.94L1054.08 620.66M1026.35 1243.18L1054.08 1270.9M382.6 592.94L410.33 620.66M382.6 1243.18L410.33 1270.9M983.33 620.6L1011.05 592.87M983.33 1270.84L1011.05 1243.11M339.57 620.6L367.3 592.87M339.57 1270.84L367.3 1243.11M1026.42 577.51L1054.15 549.78M1026.42 1227.75L1054.15 1200.02M382.67 577.51L410.39 549.78M382.67 1227.75L410.39 1200.02M983.41 442.78L1011.14 470.51M983.41 1093.02L1011.14 1120.75M339.66 442.78L367.39 470.51M339.66 1093.02L367.39 1120.75M1026.51 485.87L1054.23 513.6M1026.51 1136.11L1054.23 1163.84M382.76 485.87L410.48 513.6M382.76 1136.11L410.48 1163.84M983.48 513.54L1011.2 485.81M983.48 1163.78L1011.2 1136.05M339.73 513.54L367.45 485.81M339.73 1163.78L367.45 1136.05M1026.57 470.44L1054.3 442.72M1026.57 1120.68L1054.3 1092.96M382.82 470.44L410.55 442.72M382.82 1120.68L410.55 1092.96M1198.06 549.84L1225.79 577.57M1198.06 1200.09L1225.79 1227.81M554.31 549.84L582.03 577.57M554.31 1200.08L582.03 1227.81M1241.15 592.94L1268.88 620.66M1241.15 1243.18L1268.88 1270.9M597.4 592.94L625.13 620.66M597.4 1243.18L625.13 1270.9M1198.12 620.6L1225.85 592.87M1198.12 1270.84L1225.85 1243.11M554.37 620.6L582.1 592.87M554.37 1270.84L582.1 1243.11M1241.22 577.51L1268.94 549.78M1241.22 1227.75L1268.94 1200.02M597.46 577.51L625.19 549.78M597.46 1227.75L625.19 1200.02M1198.21 442.78L1225.94 470.51M1198.21 1093.02L1225.94 1120.75M554.46 442.78L582.19 470.51M554.46 1093.02L582.19 1120.75M1241.3 485.87L1269.03 513.6M1241.3 1136.11L1269.03 1163.84M597.55 485.87L625.28 513.6M597.55 1136.11L625.28 1163.84M1198.27 513.54L1226 485.81M1198.27 1163.78L1226 1136.05M554.52 513.54L582.25 485.81M554.52 1163.78L582.25 1136.05M1241.37 470.44L1269.09 442.72M1241.37 1120.68L1269.09 1092.96M597.62 470.44L625.34 442.72M597.62 1120.68L625.34 1092.96M661.74 657L689.47 684.72M661.74 1307.24L689.47 1334.96M17.99 657L45.72 684.72M704.83 700.09L732.56 727.82M704.83 1350.33L732.56 1378.06M61.08 700.09L88.81 727.82M661.81 727.75L689.53 700.03M661.81 1377.99L689.53 1350.27M18.05 727.75L45.78 700.03M704.9 684.66L732.63 656.93M704.9 1334.9L732.63 1307.17M61.15 684.66L88.87 656.93M661.89 549.93L689.62 577.66M661.89 1200.17L689.62 1227.9M18.14 549.93L45.87 577.66M704.99 593.02L732.71 620.75M704.99 1243.26L732.71 1270.99M61.24 593.02L88.96 620.75M661.96 620.69L689.68 592.96M661.96 1270.93L689.68 1243.2M18.21 620.69L45.93 592.96M705.05 577.59L732.78 549.87M705.05 1227.83L732.78 1200.11M61.3 577.59L89.03 549.87M876.28 657L904.01 684.72M876.28 1307.24L904.01 1334.96M232.53 657L260.26 684.72M232.53 1307.24L260.26 1334.96M919.38 700.09L947.1 727.82M919.38 1350.33L947.1 1378.06M275.62 700.09L303.35 727.82M275.62 1350.33L303.35 1378.06M876.35 727.75L904.07 700.03M876.35 1377.99L904.07 1350.27M232.6 727.75L260.32 700.03M232.6 1377.99L260.32 1350.27M919.44 684.66L947.17 656.93M919.44 1334.9L947.17 1307.17M275.69 684.66L303.42 656.93M275.69 1334.9L303.42 1307.17M876.44 549.93L904.16 577.66M876.44 1200.17L904.16 1227.9M232.68 549.93L260.41 577.66M232.68 1200.17L260.41 1227.9M919.53 593.02L947.26 620.75M919.53 1243.26L947.26 1270.99M275.78 593.02L303.5 620.75M275.78 1243.26L303.5 1270.99M876.5 620.69L904.23 592.96M876.5 1270.93L904.23 1243.2M232.75 620.69L260.48 592.96M232.75 1270.93L260.48 1243.2M919.59 577.59L947.32 549.87M919.59 1227.83L947.32 1200.11M275.84 577.59L303.57 549.87M275.84 1227.83L303.57 1200.11M1091.08 657L1118.81 684.72M1091.08 1307.24L1118.81 1334.96M447.33 657L475.06 684.72M447.33 1307.24L475.06 1334.96M1134.17 700.09L1161.9 727.82M1134.17 1350.33L1161.9 1378.06M490.42 700.09L518.15 727.82M490.42 1350.33L518.15 1378.06M1091.14 727.75L1118.87 700.03M1091.14 1377.99L1118.87 1350.27M447.39 727.75L475.12 700.03M447.39 1377.99L475.12 1350.27M1134.24 684.66L1161.96 656.93M1134.24 1334.9L1161.96 1307.17M490.49 684.66L518.21 656.93M490.49 1334.9L518.21 1307.17M1091.23 549.93L1118.96 577.66M1091.23 1200.17L1118.96 1227.9M447.48 549.93L475.21 577.66M447.48 1200.17L475.21 1227.9M1134.33 593.02L1162.05 620.75M1134.33 1243.26L1162.05 1270.99M490.57 593.02L518.3 620.75M490.57 1243.26L518.3 1270.99M1091.3 620.69L1119.02 592.96M1091.3 1270.93L1119.02 1243.2M447.54 620.69L475.27 592.96M447.54 1270.93L475.27 1243.2M1134.39 577.59L1162.12 549.87M1134.39 1227.83L1162.12 1200.11M490.64 577.59L518.36 549.87M490.64 1227.83L518.36 1200.11M768.72 765.38L796.45 793.11M124.97 765.38L152.7 793.11M811.81 808.47L839.54 836.2M168.06 808.47L195.79 836.2M768.78 836.14L796.51 808.41M125.03 836.14L152.76 808.41M811.88 793.05L839.6 765.32M168.12 793.04L195.85 765.32M768.87 658.32L796.6 686.04M768.87 1308.56L796.6 1336.28M125.12 658.32L152.85 686.04M125.12 1308.56L152.85 1336.28M811.96 701.41L839.69 729.14M811.96 1351.65L839.69 1379.38M168.21 701.41L195.94 729.14M168.21 1351.65L195.94 1379.38M768.94 729.07L796.66 701.35M768.94 1379.31L796.66 1351.59M125.18 729.07L152.91 701.35M125.18 1379.31L152.91 1351.59M812.03 685.98L839.76 658.25M812.03 1336.22L839.76 1308.49M168.28 685.98L196 658.25M168.28 1336.22L196 1308.49M18.21 986.22L45.93 1013.95M61.3 1029.32L89.03 1057.04M18.27 1056.98L46 1029.25M61.36 1013.89L89.09 986.16M18.36 879.16L46.09 906.89M61.45 922.25L89.18 949.98M18.42 949.91L46.15 922.19M61.52 906.82L89.24 879.09M18.36 1200.08L46.09 1227.81M61.45 1243.18L89.18 1270.9M18.42 1270.84L46.15 1243.11M61.52 1227.75L89.24 1200.02M18.51 1093.02L46.24 1120.75M61.6 1136.11L89.33 1163.84M18.57 1163.78L46.3 1136.05M61.67 1120.68L89.39 1092.96M18.51 1308.56L46.24 1336.28M61.6 1351.65L89.33 1379.38M18.57 1379.31L46.3 1351.59M61.67 1336.22L89.39 1308.49M983.26 765.38L1010.99 793.11M339.51 765.38L367.24 793.11M1026.35 808.47L1054.08 836.2M382.6 808.47L410.33 836.2M983.33 836.14L1011.05 808.41M339.57 836.14L367.3 808.41M1026.42 793.04L1054.15 765.32M382.67 793.04L410.39 765.32M983.41 658.32L1011.14 686.04M983.41 1308.56L1011.14 1336.28M339.66 658.32L367.39 686.04M339.66 1308.56L367.39 1336.28M1026.51 701.41L1054.23 729.14M1026.51 1351.65L1054.23 1379.38M382.76 701.41L410.48 729.14M382.76 1351.65L410.48 1379.38M983.48 729.07L1011.2 701.35M983.48 1379.31L1011.2 1351.59M339.73 729.07L367.45 701.35M339.73 1379.31L367.45 1351.59M1026.57 685.98L1054.3 658.25M1026.57 1336.22L1054.3 1308.49M382.82 685.98L410.55 658.25M382.82 1336.22L410.55 1308.49M1198.06 765.38L1225.79 793.11M554.31 765.38L582.03 793.11M1241.15 808.47L1268.88 836.2M597.4 808.47L625.13 836.2M1198.12 836.14L1225.85 808.41M554.37 836.14L582.1 808.41M1241.22 793.04L1268.94 765.32M597.46 793.05L625.19 765.32M1198.21 658.32L1225.94 686.04M1198.21 1308.56L1225.94 1336.28M554.46 658.32L582.19 686.04M554.46 1308.56L582.19 1336.28M1241.3 701.41L1269.03 729.14M1241.3 1351.65L1269.03 1379.38M597.55 701.41L625.28 729.14M597.55 1351.65L625.28 1379.38M1198.27 729.07L1226 701.35M1198.27 1379.31L1226 1351.59M554.52 729.07L582.25 701.35M554.52 1379.31L582.25 1351.59M1241.37 685.98L1269.09 658.25M1241.37 1336.22L1269.09 1308.49M597.62 685.98L625.34 658.25M597.62 1336.22L625.34 1308.49M661.89 765.47L689.62 793.2M18.14 765.47L45.87 793.2M704.99 808.56L732.71 836.29M61.24 808.56L88.96 836.29M661.96 836.22L689.68 808.5M18.21 836.22L45.93 808.5M705.05 793.13L732.78 765.4M61.3 793.13L89.03 765.4M876.44 765.47L904.16 793.2M232.68 765.47L260.41 793.2M919.53 808.56L947.26 836.29M275.78 808.56L303.5 836.29M876.5 836.22L904.23 808.5M232.75 836.22L260.48 808.5M919.59 793.13L947.32 765.4M275.84 793.13L303.57 765.4M1091.23 765.47L1118.96 793.2M447.48 765.47L475.21 793.2M1134.33 808.56L1162.05 836.29M490.57 808.56L518.3 836.29M1091.3 836.22L1119.02 808.5M447.54 836.22L475.27 808.5M1134.39 793.13L1162.12 765.4M490.64 793.13L518.36 765.4M768.72 1415.62L796.45 1443.35M124.97 1415.62L152.7 1443.35M811.81 1458.72L839.54 1486.44M168.06 1458.72L195.79 1486.44M768.78 1486.38L796.51 1458.65M125.03 1486.38L152.76 1458.65M811.88 1443.29L839.6 1415.56M168.12 1443.29L195.85 1415.56M18.36 1415.62L46.09 1443.35M61.45 1458.72L89.18 1486.44M18.42 1486.38L46.15 1458.65M61.52 1443.29L89.24 1415.56M983.26 1415.62L1010.99 1443.35M339.51 1415.62L367.24 1443.35M1026.35 1458.72L1054.08 1486.44M382.6 1458.72L410.33 1486.44M983.33 1486.38L1011.05 1458.65M339.57 1486.38L367.3 1458.65M1026.42 1443.29L1054.15 1415.56M382.67 1443.28L410.39 1415.56M1198.06 1415.62L1225.79 1443.35M554.31 1415.62L582.03 1443.35M1241.15 1458.72L1268.88 1486.44M597.4 1458.72L625.13 1486.44M1198.12 1486.38L1225.85 1458.65M554.37 1486.38L582.1 1458.65M1241.22 1443.29L1268.94 1415.56M597.46 1443.28L625.19 1415.56M661.89 1415.71L689.62 1443.44M704.99 1458.8L732.71 1486.53M661.96 1486.46L689.68 1458.74M705.05 1443.37L732.78 1415.64M876.44 1415.71L904.16 1443.44M232.68 1415.71L260.41 1443.44M919.53 1458.8L947.26 1486.53M275.78 1458.8L303.5 1486.53M876.5 1486.46L904.23 1458.74M232.75 1486.46L260.48 1458.74M919.59 1443.37L947.32 1415.64M275.84 1443.37L303.57 1415.64M1091.23 1415.71L1118.96 1443.44M447.48 1415.71L475.21 1443.44M1134.33 1458.8L1162.05 1486.53M490.57 1458.8L518.3 1486.53M1091.3 1486.46L1119.02 1458.74M447.54 1486.46L475.27 1458.74M1134.39 1443.37L1162.12 1415.64M490.64 1443.37L518.36 1415.64M661.59 1523.19L689.32 1550.92M704.68 1566.29L732.41 1594.01M661.65 1593.95L689.38 1566.22M704.75 1550.86L732.47 1523.13M876.13 1523.19L903.86 1550.92M232.38 1523.19L260.11 1550.92M919.22 1566.29L946.95 1594.01M275.47 1566.29L303.2 1594.01M876.2 1593.95L903.92 1566.22M232.44 1593.95L260.17 1566.22M919.29 1550.86L947.01 1523.13M275.54 1550.86L303.26 1523.13M1090.93 1523.19L1118.65 1550.92M447.18 1523.19L474.9 1550.92M1134.02 1566.29L1161.75 1594.01M490.27 1566.29L518 1594.01M1090.99 1593.95L1118.72 1566.22M447.24 1593.95L474.97 1566.22M1134.08 1550.86L1161.81 1523.13M490.33 1550.86L518.06 1523.13M768.72 1629.9L796.45 1657.63M124.97 1629.9L152.7 1657.63M811.81 1673L839.54 1700.72M168.06 1673L195.79 1700.72M768.78 1700.66L796.51 1672.93M125.03 1700.66L152.76 1672.93M811.88 1657.57L839.6 1629.84M168.12 1657.57L195.85 1629.84M768.87 1522.84L796.6 1550.57M125.12 1522.84L152.85 1550.57M811.96 1565.93L839.69 1593.66M168.21 1565.93L195.94 1593.66M768.94 1593.59L796.66 1565.87M125.18 1593.59L152.91 1565.87M812.03 1550.5L839.76 1522.77M168.28 1550.5L196 1522.77M983.26 1629.9L1010.99 1657.63M339.51 1629.9L367.24 1657.63M1026.35 1673L1054.08 1700.72M382.6 1673L410.33 1700.72M983.33 1700.66L1011.05 1672.93M339.57 1700.66L367.3 1672.93M1026.42 1657.57L1054.15 1629.84M382.67 1657.57L410.39 1629.84M983.41 1522.84L1011.14 1550.57M339.66 1522.84L367.39 1550.57M1026.51 1565.93L1054.23 1593.66M382.76 1565.93L410.48 1593.66M983.48 1593.59L1011.2 1565.87M339.73 1593.59L367.45 1565.87M1026.57 1550.5L1054.3 1522.77M382.82 1550.5L410.55 1522.77M1198.06 1629.9L1225.79 1657.63M554.31 1629.9L582.03 1657.63M1241.15 1673L1268.88 1700.72M597.4 1673L625.13 1700.72M1198.12 1700.66L1225.85 1672.93M554.37 1700.66L582.1 1672.93M1241.22 1657.57L1268.94 1629.84M597.46 1657.57L625.19 1629.84M1198.21 1522.84L1225.94 1550.57M554.46 1522.84L582.19 1550.57M1241.3 1565.93L1269.03 1593.66M597.55 1565.93L625.28 1593.66M1198.27 1593.59L1226 1565.87M554.52 1593.59L582.25 1565.87M1241.37 1550.5L1269.09 1522.77M597.62 1550.5L625.34 1522.77M661.74 1737.06L689.47 1764.78M704.83 1780.15L732.56 1807.88M661.81 1807.81L689.53 1780.08M704.9 1764.72L732.63 1736.99M661.89 1629.99L689.62 1657.72M704.99 1673.08L732.71 1700.81M661.96 1700.75L689.68 1673.02M705.05 1657.65L732.78 1629.93M876.28 1737.06L904.01 1764.78M232.53 1737.06L260.26 1764.78M919.38 1780.15L947.1 1807.88M275.62 1780.15L303.35 1807.88M876.35 1807.81L904.07 1780.08M232.6 1807.81L260.32 1780.08M919.44 1764.72L947.17 1736.99M275.69 1764.72L303.42 1736.99M876.44 1629.99L904.16 1657.72M232.68 1629.99L260.41 1657.72M919.53 1673.08L947.26 1700.81M275.78 1673.08L303.5 1700.81M876.5 1700.75L904.23 1673.02M232.75 1700.75L260.48 1673.02M919.59 1657.65L947.32 1629.93M275.84 1657.65L303.57 1629.93M1091.08 1737.06L1118.81 1764.78M447.33 1737.06L475.06 1764.78M1134.17 1780.15L1161.9 1807.88M490.42 1780.15L518.15 1807.88M1091.14 1807.81L1118.87 1780.08M447.39 1807.81L475.12 1780.08M1134.24 1764.72L1161.96 1736.99M490.49 1764.72L518.21 1736.99M1091.23 1629.99L1118.96 1657.72M447.48 1629.99L475.21 1657.72M1134.33 1673.08L1162.05 1700.81M490.57 1673.08L518.3 1700.81M1091.3 1700.75L1119.02 1673.02M447.54 1700.75L475.27 1673.02M1134.39 1657.65L1162.12 1629.93M490.64 1657.65L518.36 1629.93M768.72 1845.44L796.45 1873.17M124.97 1845.44L152.7 1873.17M811.81 1888.53L839.54 1916.26M168.06 1888.53L195.79 1916.26M768.78 1916.2L796.51 1888.47M125.03 1916.2L152.76 1888.47M811.88 1873.1L839.6 1845.38M168.12 1873.1L195.85 1845.38M768.87 1738.38L796.6 1766.1M125.12 1738.38L152.85 1766.1M811.96 1781.47L839.69 1809.2M168.21 1781.47L195.94 1809.2M768.94 1809.13L796.66 1781.4M125.18 1809.13L152.91 1781.4M812.03 1766.04L839.76 1738.31M168.28 1766.04L196 1738.31M18.36 1629.9L46.09 1657.63M61.45 1673L89.18 1700.72M18.42 1700.66L46.15 1672.93M61.52 1657.57L89.24 1629.84M18.51 1522.84L46.24 1550.57M61.6 1565.93L89.33 1593.66M18.57 1593.59L46.3 1565.87M61.67 1550.5L89.39 1522.77M18.36 1845.44L46.09 1873.17M61.45 1888.53L89.18 1916.26M18.42 1916.2L46.15 1888.47M61.52 1873.1L89.24 1845.38M18.51 1738.38L46.24 1766.1M61.6 1781.47L89.33 1809.2M18.57 1809.13L46.3 1781.4M61.67 1766.04L89.39 1738.31M983.26 1845.44L1010.99 1873.17M339.51 1845.44L367.24 1873.17M1026.35 1888.53L1054.08 1916.26M382.6 1888.53L410.33 1916.26M983.33 1916.2L1011.05 1888.47M339.57 1916.2L367.3 1888.47M1026.42 1873.1L1054.15 1845.38M382.67 1873.1L410.39 1845.38M983.41 1738.38L1011.14 1766.1M339.66 1738.38L367.39 1766.1M1026.51 1781.47L1054.23 1809.2M382.76 1781.47L410.48 1809.2M983.48 1809.13L1011.2 1781.4M339.73 1809.13L367.45 1781.4M1026.57 1766.04L1054.3 1738.31M382.82 1766.04L410.55 1738.31M1198.06 1845.44L1225.79 1873.17M554.31 1845.44L582.03 1873.17M1241.15 1888.53L1268.88 1916.26M597.4 1888.53L625.13 1916.26M1198.12 1916.2L1225.85 1888.47M554.37 1916.2L582.1 1888.47M1241.22 1873.1L1268.94 1845.38M597.46 1873.1L625.19 1845.38M1198.21 1738.38L1225.94 1766.1M554.46 1738.38L582.19 1766.1M1241.3 1781.47L1269.03 1809.2M597.55 1781.47L625.28 1809.2M1198.27 1809.13L1226 1781.4M554.52 1809.13L582.25 1781.4M1241.37 1766.04L1269.09 1738.31M597.62 1766.04L625.34 1738.31M661.89 1845.53L689.62 1873.25M704.99 1888.62L732.71 1916.35M661.96 1916.28L689.68 1888.56M705.05 1873.19L732.78 1845.46M876.44 1845.53L904.16 1873.25M232.68 1845.53L260.41 1873.25M919.53 1888.62L947.26 1916.35M275.78 1888.62L303.5 1916.35M876.5 1916.28L904.23 1888.56M232.75 1916.28L260.48 1888.56M919.59 1873.19L947.32 1845.46M275.84 1873.19L303.57 1845.46M1091.23 1845.53L1118.96 1873.25M447.48 1845.53L475.21 1873.25M1134.33 1888.62L1162.05 1916.35M490.57 1888.62L518.3 1916.35M1091.3 1916.28L1119.02 1888.56M447.54 1916.28L475.27 1888.56M1134.39 1873.19L1162.12 1845.46M1308.17 14.38L1335.9 42.11M1351.27 57.47L1378.99 85.2M1308.24 85.13L1335.97 57.41M1351.33 42.04L1379.06 14.31M1522.19 14.38L1549.92 42.11M1565.28 57.47L1593.01 85.2M1522.25 85.13L1549.98 57.41M1565.35 42.04L1593.07 14.31M1414.72 121.44L1442.45 149.17M1457.82 164.54L1485.54 192.26M1414.79 192.2L1442.52 164.47M1457.88 149.11L1485.61 121.38M1414.88 14.38L1442.6 42.11M1457.97 57.47L1485.7 85.2M1414.94 85.13L1442.67 57.41M1458.03 42.04L1485.76 14.31M1629.52 121.44L1657.25 149.17M1672.61 164.54L1700.34 192.26M1629.59 192.2L1657.31 164.47M1672.68 149.11L1700.41 121.38M1629.67 14.38L1657.4 42.11M1672.77 57.47L1700.49 85.2M1629.74 85.13L1657.46 57.41M1672.83 42.04L1700.56 14.31M1307.75 228.6L1335.47 256.32M1307.75 878.84L1335.47 906.56M1350.84 271.69L1378.57 299.42M1350.84 921.93L1378.57 949.66M1307.81 299.35L1335.54 271.62M1307.81 949.59L1335.54 921.86M1350.9 256.26L1378.63 228.53M1350.9 906.5L1378.63 878.77M1307.9 121.53L1335.63 149.26M1350.99 164.62L1378.72 192.35M1307.96 192.29L1335.69 164.56M1351.06 149.19L1378.78 121.47M1522.54 228.6L1550.27 256.32M1522.54 878.84L1550.27 906.56M1565.64 271.69L1593.36 299.42M1565.64 921.93L1593.36 949.66M1522.61 299.35L1550.33 271.62M1522.61 949.59L1550.33 921.86M1565.7 256.26L1593.43 228.53M1565.7 906.5L1593.43 878.77M1522.7 121.53L1550.42 149.26M1565.79 164.62L1593.52 192.35M1522.76 192.29L1550.49 164.56M1565.85 149.19L1593.58 121.47M1414.72 335.98L1442.45 363.71M1414.72 986.22L1442.45 1013.95M1457.82 379.08L1485.54 406.8M1457.82 1029.32L1485.54 1057.04M1414.79 406.74L1442.52 379.01M1414.79 1056.98L1442.52 1029.25M1457.88 363.65L1485.61 335.92M1457.88 1013.89L1485.61 986.16M1414.88 228.92L1442.6 256.65M1414.88 879.16L1442.6 906.89M1457.97 272.01L1485.7 299.74M1457.97 922.25L1485.7 949.98M1414.94 299.67L1442.67 271.95M1414.94 949.91L1442.67 922.19M1458.03 256.58L1485.76 228.85M1458.03 906.82L1485.76 879.09M1629.52 335.98L1657.25 363.71M1629.52 986.22L1657.25 1013.95M1672.61 379.08L1700.34 406.8M1672.61 1029.32L1700.34 1057.04M1629.59 406.74L1657.31 379.01M1629.59 1056.98L1657.31 1029.25M1672.68 363.65L1700.41 335.92M1672.68 1013.89L1700.41 986.16M1629.67 228.92L1657.4 256.64M1629.67 879.16L1657.4 906.88M1672.77 272.01L1700.49 299.74M1672.77 922.25L1700.49 949.98M1629.74 299.67L1657.46 271.95M1629.74 949.91L1657.46 922.19M1672.83 256.58L1700.56 228.85M1672.83 906.82L1700.56 879.09M1307.75 443.14L1335.47 470.86M1307.75 1093.38L1335.47 1121.1M1350.84 486.23L1378.57 513.95M1350.84 1136.47L1378.57 1164.2M1307.81 513.89L1335.54 486.16M1307.81 1164.13L1335.54 1136.4M1350.9 470.8L1378.63 443.07M1350.9 1121.04L1378.63 1093.31M1307.9 336.07L1335.63 363.8M1307.9 986.31L1335.63 1014.04M1350.99 379.16L1378.72 406.89M1350.99 1029.4L1378.72 1057.13M1307.96 406.83L1335.69 379.1M1307.96 1057.07L1335.69 1029.34M1351.06 363.73L1378.78 336.01M1351.06 1013.97L1378.78 986.25M1522.54 443.14L1550.27 470.86M1522.54 1093.38L1550.27 1121.1M1565.64 486.23L1593.36 513.95M1565.64 1136.47L1593.36 1164.19M1522.61 513.89L1550.33 486.16M1522.61 1164.13L1550.33 1136.4M1565.7 470.8L1593.43 443.07M1565.7 1121.04L1593.43 1093.31M1522.7 336.07L1550.42 363.8M1522.7 986.31L1550.42 1014.04M1565.79 379.16L1593.52 406.89M1565.79 1029.4L1593.52 1057.13M1522.76 406.83L1550.49 379.1M1522.76 1057.07L1550.49 1029.34M1565.85 363.73L1593.58 336.01M1565.85 1013.97L1593.58 986.25M1414.88 549.84L1442.6 577.57M1414.88 1200.08L1442.6 1227.81M1457.97 592.94L1485.7 620.66M1457.97 1243.18L1485.7 1270.9M1414.94 620.6L1442.67 592.87M1414.94 1270.84L1442.67 1243.11M1458.03 577.51L1485.76 549.78M1458.03 1227.75L1485.76 1200.02M1415.03 442.78L1442.76 470.51M1415.03 1093.02L1442.76 1120.75M1458.12 485.87L1485.85 513.6M1458.12 1136.11L1485.85 1163.84M1415.09 513.54L1442.82 485.81M1415.09 1163.78L1442.82 1136.05M1458.19 470.44L1485.91 442.72M1458.19 1120.68L1485.91 1092.96M1629.67 549.84L1657.4 577.57M1629.67 1200.09L1657.4 1227.81M1672.77 592.94L1700.49 620.66M1672.77 1243.18L1700.49 1270.9M1629.74 620.6L1657.46 592.87M1629.74 1270.84L1657.46 1243.11M1672.83 577.51L1700.56 549.78M1672.83 1227.75L1700.56 1200.02M1629.83 442.78L1657.55 470.51M1629.83 1093.02L1657.55 1120.75M1672.92 485.87L1700.65 513.6M1672.92 1136.11L1700.65 1163.84M1629.89 513.54L1657.62 485.81M1629.89 1163.78L1657.62 1136.05M1672.98 470.44L1700.71 442.72M1672.98 1120.68L1700.71 1092.96M1307.9 657L1335.63 684.72M1307.9 1307.24L1335.63 1334.96M1350.99 700.09L1378.72 727.82M1350.99 1350.33L1378.72 1378.06M1307.96 727.75L1335.69 700.03M1307.96 1377.99L1335.69 1350.27M1351.06 684.66L1378.78 656.93M1351.06 1334.9L1378.78 1307.17M1308.05 549.93L1335.78 577.66M1308.05 1200.17L1335.78 1227.9M1351.14 593.02L1378.87 620.75M1351.14 1243.26L1378.87 1270.99M1308.12 620.69L1335.84 592.96M1308.12 1270.93L1335.84 1243.2M1351.21 577.59L1378.94 549.87M1351.21 1227.83L1378.94 1200.11M1522.7 657L1550.42 684.72M1522.7 1307.24L1550.42 1334.96M1565.79 700.09L1593.52 727.82M1565.79 1350.33L1593.52 1378.06M1522.76 727.75L1550.49 700.03M1522.76 1377.99L1550.49 1350.27M1565.85 684.66L1593.58 656.93M1565.85 1334.9L1593.58 1307.17M1522.85 549.93L1550.58 577.66M1522.85 1200.17L1550.58 1227.9M1565.94 593.02L1593.67 620.75M1565.94 1243.26L1593.67 1270.99M1522.91 620.69L1550.64 592.96M1522.91 1270.93L1550.64 1243.2M1566 577.59L1593.73 549.87M1566 1227.83L1593.73 1200.11M1414.88 765.38L1442.6 793.11M1457.97 808.47L1485.7 836.2M1414.94 836.14L1442.67 808.41M1458.03 793.04L1485.76 765.32M1415.03 658.32L1442.76 686.04M1415.03 1308.56L1442.76 1336.28M1458.12 701.41L1485.85 729.14M1458.12 1351.65L1485.85 1379.38M1415.09 729.07L1442.82 701.35M1415.09 1379.31L1442.82 1351.59M1458.19 685.98L1485.91 658.25M1458.19 1336.22L1485.91 1308.49M1629.67 765.38L1657.4 793.11M1672.77 808.47L1700.49 836.2M1629.74 836.14L1657.46 808.41M1672.83 793.04L1700.56 765.32M1629.83 658.32L1657.55 686.04M1629.83 1308.56L1657.55 1336.28M1672.92 701.41L1700.65 729.14M1672.92 1351.65L1700.65 1379.38M1629.89 729.07L1657.62 701.35M1629.89 1379.31L1657.62 1351.59M1672.98 685.98L1700.71 658.25M1672.98 1336.22L1700.71 1308.49M1308.05 765.47L1335.78 793.2M1351.14 808.56L1378.87 836.29M1308.12 836.22L1335.84 808.5M1351.21 793.13L1378.94 765.4M1522.85 765.47L1550.58 793.2M1565.94 808.56L1593.67 836.29M1522.91 836.22L1550.64 808.5M1566 793.13L1593.73 765.4M1414.88 1415.62L1442.6 1443.35M1457.97 1458.72L1485.7 1486.44M1414.94 1486.38L1442.67 1458.65M1458.03 1443.29L1485.76 1415.56M1629.67 1415.62L1657.4 1443.35M1672.77 1458.72L1700.49 1486.44M1629.74 1486.38L1657.46 1458.65M1672.83 1443.29L1700.56 1415.56M1308.05 1415.71L1335.78 1443.44M1351.14 1458.8L1378.87 1486.53M1308.12 1486.46L1335.84 1458.74M1351.21 1443.37L1378.94 1415.64M1522.85 1415.71L1550.58 1443.44M1565.94 1458.8L1593.67 1486.53M1522.91 1486.46L1550.64 1458.74M1566 1443.37L1593.73 1415.64M1307.75 1523.19L1335.47 1550.92M1350.84 1566.29L1378.57 1594.01M1307.81 1593.95L1335.54 1566.22M1350.9 1550.86L1378.63 1523.13M1522.54 1523.19L1550.27 1550.92M1565.64 1566.29L1593.36 1594.01M1522.61 1593.95L1550.33 1566.22M1565.7 1550.86L1593.43 1523.13M1414.88 1629.9L1442.6 1657.63M1457.97 1673L1485.7 1700.72M1414.94 1700.66L1442.67 1672.93M1458.03 1657.57L1485.76 1629.84M1415.03 1522.84L1442.76 1550.57M1458.12 1565.93L1485.85 1593.66M1415.09 1593.59L1442.82 1565.87M1458.19 1550.5L1485.91 1522.77M1629.67 1629.9L1657.4 1657.63M1672.77 1673L1700.49 1700.72M1629.74 1700.66L1657.46 1672.93M1672.83 1657.57L1700.56 1629.84M1629.83 1522.84L1657.55 1550.57M1672.92 1565.93L1700.65 1593.66M1629.89 1593.59L1657.62 1565.87M1672.98 1550.5L1700.71 1522.77M1307.9 1737.06L1335.63 1764.78M1350.99 1780.15L1378.72 1807.88M1307.96 1807.81L1335.69 1780.08M1351.06 1764.72L1378.78 1736.99M1308.05 1629.99L1335.78 1657.72M1351.14 1673.08L1378.87 1700.81M1308.12 1700.75L1335.84 1673.02M1351.21 1657.65L1378.94 1629.93M1522.7 1737.06L1550.42 1764.78M1565.79 1780.15L1593.52 1807.88M1522.76 1807.81L1550.49 1780.08M1565.85 1764.72L1593.58 1736.99M1522.85 1629.99L1550.58 1657.72M1565.94 1673.08L1593.67 1700.81M1522.91 1700.75L1550.64 1673.02M1566 1657.65L1593.73 1629.93M1414.88 1845.44L1442.6 1873.17M1457.97 1888.53L1485.7 1916.26M1414.94 1916.2L1442.67 1888.47M1458.03 1873.1L1485.76 1845.38M1415.03 1738.38L1442.76 1766.1M1458.12 1781.47L1485.85 1809.2M1415.09 1809.13L1442.82 1781.4M1458.19 1766.04L1485.91 1738.31M1629.67 1845.44L1657.4 1873.17M1672.77 1888.53L1700.49 1916.26M1629.74 1916.2L1657.46 1888.47M1672.83 1873.1L1700.56 1845.38M1629.83 1738.38L1657.55 1766.1M1672.92 1781.47L1700.65 1809.2M1629.89 1809.13L1657.62 1781.4M1672.98 1766.04L1700.71 1738.31M1308.05 1845.53L1335.78 1873.25M1351.14 1888.62L1378.87 1916.35M1308.12 1916.28L1335.84 1888.56M1351.21 1873.19L1378.94 1845.46M1522.85 1845.53L1550.58 1873.25M1565.94 1888.62L1593.67 1916.35M1522.91 1916.28L1550.64 1888.56M1566 1873.19L1593.73 1845.46M490.64 1873.19L518.36 1845.46" /></g></g></symbol><symbol viewBox="0 0 30 30" id="facebook-outline"><path fill="#222" d="M1,15 C1,22.7331601 7.26736558,29 15,29 C22.7331601,29 29,22.7326344 29,15 C29,7.26683989 22.7326344,1 15,1 C7.26683989,1 1,7.26736558 1,15 Z M0,15 C0,6.71572875 6.71390727,0 15,0 C23.2842712,0 30,6.71390727 30,15 C30,23.2842712 23.2860927,30 15,30 C6.71572875,30 0,23.2860927 0,15 Z M19,9.12 L19,6 L16.16,6 C13.8,6 12.04,8 12.04,10.48 L12.04,12.2 L9,12.2 L9,15.16 L12.04,15.16 L12.04,24 L15.44,24 L15.44,15.16 L19,15.16 L19,12.2 L15.44,12.2 L15.44,10.16 C15.44,9.56 15.8,9.12 16.16,9.12 L19,9.12 Z" /></symbol><symbol viewBox="0 0 580 580" id="hand"><path d="M315.12,130.15h31m-170.74,0h31.05M222,99.1,206.47,83.58M299.6,99.1l15.52-15.52M260.79,99.1v-31m32,419.09h37.84A93.12,93.12,0,0,0,423.77,394V262.09a23.28,23.28,0,1,0-46.56,0V246.56a23.29,23.29,0,0,0-46.57,0v0a23.28,23.28,0,1,0-46.56,0V153.43a23.29,23.29,0,0,0-46.57,0V363l-35.7-61a23.53,23.53,0,0,0-39,26L211,438.62A93.12,93.12,0,0,0,292.8,487.15Z" fill="none" stroke="#cd0f2d" stroke-linecap="round" stroke-linejoin="round" stroke-width="9" /></symbol><symbol viewBox="0 0 30 30" id="instagram-outline"><g fill="#222"><path d="M1,15 C1,22.7331601 7.26736558,29 15,29 C22.7331601,29 29,22.7326344 29,15 C29,7.26683989 22.7326344,1 15,1 C7.26683989,1 1,7.26736558 1,15 Z M0,15 C0,6.71572875 6.71390727,0 15,0 C23.2842712,0 30,6.71390727 30,15 C30,23.2842712 23.2860927,30 15,30 C6.71572875,30 0,23.2860927 0,15 Z" /><path d="M23.94586,11.28931 C23.9309065,10.5426888 23.7894582,9.80400855 23.52753,9.10468 C23.3015394,8.50414041 22.9472753,7.96012249 22.48944,7.51056 C22.0398775,7.05272475 21.4958596,6.6984606 20.89532,6.47247 C20.1959915,6.21054181 19.4573112,6.06909355 18.71069,6.05414 C17.75073,6.01038 17.44427,6 15,6 C12.55573,6 12.24927,6.01038 11.28931,6.05414 C10.5426888,6.06909355 9.80400855,6.21054181 9.10468,6.47247 C8.50414041,6.6984606 7.96012249,7.05272475 7.51056,7.51056 C7.05272475,7.96012249 6.6984606,8.50414041 6.47247,9.10468 C6.21054181,9.80400855 6.06909355,10.5426888 6.05414,11.28931 C6.01038,12.24927 6,12.55573 6,15 C6,17.44427 6.01038,17.75073 6.05414,18.71069 C6.06909355,19.4573112 6.21054181,20.1959915 6.47247,20.89532 C6.6984606,21.4958596 7.05272475,22.0398775 7.51056,22.48944 C7.96010612,22.9472953 8.50412874,23.3015625 9.10468,23.52753 C9.80400855,23.7894582 10.5426888,23.9309065 11.28931,23.94586 C12.24927,23.98969 12.55573,24 15,24 C17.44427,24 17.75073,23.98969 18.71069,23.94586 C19.4573112,23.9309065 20.1959915,23.7894582 20.89532,23.52753 C22.1042544,23.0599688 23.0599588,22.1042644 23.52752,20.89533 C23.7894482,20.1960015 23.9308965,19.4573212 23.94585,18.7107 C23.98962,17.75073 24,17.44427 24,15 C24,12.55573 23.98962,12.24927 23.94586,11.28931 Z M22.32593,18.63678 C22.3191752,19.2074749 22.2143342,19.7727584 22.01599,20.30792 C21.7132468,21.0928479 21.0928462,21.7132522 20.30792,22.016 C19.7727565,22.2143373 19.2074742,22.319178 18.63678,22.32594 C17.68787,22.3692 17.40326,22.37836 15,22.37836 C12.59674,22.37836 12.31213,22.3692 11.36322,22.32593 C10.7925264,22.3191712 10.2272441,22.2143339 9.69208,22.016 C9.30115027,21.8717562 8.94752965,21.6417088 8.65723,21.34278 C8.3582963,21.0524785 8.12824542,20.6988542 7.984,20.30792 C7.78565581,19.7727584 7.68081482,19.2074749 7.67406,18.63678 C7.6308,17.68774 7.62164,17.40314 7.62164,15 C7.62164,12.59686 7.6308,12.31226 7.67407,11.36322 C7.68082875,10.7925264 7.78566614,10.2272441 7.984,9.69208 C8.12824383,9.30115027 8.35829116,8.94752965 8.65722,8.65723 C8.94752151,8.3582963 9.30114575,8.12824542 9.69208,7.984 C10.2272435,7.78566272 10.7925258,7.68082196 11.36322,7.67406 C12.31226,7.6308 12.59686,7.62164 15,7.62164 C17.40314,7.62164 17.68774,7.6308 18.63678,7.67407 C19.2074742,7.68083196 19.7727565,7.78567272 20.30792,7.98401 C20.6988497,8.12825383 21.0524704,8.35830116 21.34277,8.65723 C21.6417025,8.94752863 21.8717533,9.30114933 22.016,9.69208 C22.2143373,10.2272435 22.319178,10.7925258 22.32594,11.36322 C22.36921,12.31222 22.37837,12.59692 22.37837,15 C22.37837,17.40308 22.3692,17.68774 22.32593,18.63678 L22.32593,18.63678 Z M15,10.37836 C12.4475387,10.37836 10.37836,12.4475387 10.37836,15 C10.37836,17.5524613 12.4475387,19.62164 15,19.62164 C17.5524613,19.62164 19.62164,17.5524613 19.62164,15 C19.6216124,12.4475501 17.5524499,10.3783876 15,10.37836 L15,10.37836 Z M15,18 C13.3431458,18 12,16.6568542 12,15 C12,13.3431458 13.3431458,12 15,12 C16.6568542,12 18,13.3431458 18,15 C18,15.7956495 17.6839295,16.5587112 17.1213203,17.1213203 C16.5587112,17.6839295 15.7956495,18 15,18 Z M20.88422,10.1958 C20.88422,10.7922675 20.4006875,11.2758 19.80422,11.2758 C19.2077525,11.2758 18.72422,10.7922675 18.72422,10.1958 C18.72422,9.59933247 19.2077525,9.1158 19.80422,9.1158 C20.4006875,9.1158 20.88422,9.59933247 20.88422,10.1958 L20.88422,10.1958 Z" /></g></symbol><symbol fill="none" viewBox="0 0 138 138" id="logo"><circle cx="69" cy="69" r="69" fill="#C2FF46" /><path d="M26.6854 75.6885L24.84 100.207C29.8491 108.907 48.8308 123.934 66.2307 124.197C92.067 124.461 104.194 100.207 104.194 100.207C96.0215 105.479 90.7488 106.27 82.0488 106.534C57.7944 107.061 34.8581 89.9248 26.6854 75.6885Z" fill="#000" /><path d="M119.222 53.2794C118.958 53.0158 118.695 52.7521 118.431 52.4885C119.749 51.9612 121.595 50.6431 121.595 48.7976C121.595 45.8976 111.84 32.7159 109.467 32.9795C108.149 33.2431 106.567 34.5613 105.513 35.6159C102.086 31.925 98.1311 28.2341 93.6493 26.6523C93.6493 26.3886 93.6493 26.125 93.6493 25.8614C94.1766 21.1159 93.3857 15.316 89.9585 13.9978C89.1675 13.7341 88.113 13.7341 87.3221 13.9978C84.6858 14.7887 82.0494 20.325 79.1494 25.3341C73.8767 25.8614 68.8676 27.1795 63.8586 29.2886C62.5404 25.3341 59.6404 22.1705 55.9495 19.7977C51.2041 17.1614 47.7768 17.9523 45.6677 18.7432C43.295 19.5341 41.1859 22.6977 40.395 26.9159C39.0769 32.1886 40.6587 39.3068 45.4041 44.0522C44.6132 45.1067 43.8223 46.4249 43.295 47.7431C37.7587 58.2885 38.8132 73.0521 46.195 85.7065C52.5223 96.5156 69.3949 102.316 84.4221 102.316C91.8039 102.316 98.922 100.997 103.931 97.8338C110.258 94.1429 114.74 87.2884 118.431 80.4338C118.431 80.4338 118.431 80.4338 118.431 80.1702C120.54 76.2157 122.122 71.9975 123.704 68.5703L124.758 65.6703C126.076 61.4521 122.649 57.2339 119.222 53.2794ZM88.9039 17.1614C89.4312 17.6887 90.4857 20.325 89.9585 25.0705H89.6948C88.9039 25.0705 88.113 24.8068 87.3221 24.8068C87.3221 24.0159 87.3221 23.4886 87.3221 22.4341C87.5857 19.5341 88.3766 17.6887 88.9039 17.1614ZM44.3496 27.7068C44.8768 24.8068 46.195 22.6977 48.0405 21.9068C48.5677 21.3796 49.3586 21.3796 49.8859 21.3796C51.4677 21.3796 53.0495 21.9068 54.3677 22.6977C57.5313 24.5432 59.6404 27.1795 60.6949 30.6068C59.904 31.1341 59.1131 31.3977 58.3222 31.925C57.2677 30.6068 56.2132 29.025 55.1586 27.7068C54.6313 27.1795 51.995 24.8068 49.3586 25.3341C49.095 25.3341 49.095 25.5977 49.095 25.5977C49.095 25.8614 49.095 25.8614 49.3586 25.8614C51.2041 25.8614 52.5223 27.4432 53.5768 29.025C54.6313 30.3432 55.1586 32.1886 55.6859 33.7704C52.7859 35.8795 49.8859 38.2522 47.7768 41.1522C44.3496 37.1977 43.295 31.925 44.3496 27.7068ZM121.067 64.0885L120.013 66.7248C118.431 70.4157 116.849 74.6339 114.74 78.5884C113.422 80.9611 111.313 82.2793 107.886 83.0702C109.995 80.1702 112.104 75.6884 112.104 71.9975C112.367 71.9975 112.367 71.7339 112.631 71.4702L117.904 65.9339C119.222 64.8794 119.486 63.0339 118.431 62.5066C115.531 61.4521 108.677 63.2976 106.04 64.8794C104.458 65.6703 104.458 67.5157 105.513 68.3066L109.204 71.9975C109.204 71.9975 109.204 71.9975 109.467 71.9975C109.467 74.6339 107.886 78.0611 106.04 80.6975C105.249 82.0157 104.458 82.8066 103.931 83.3338C98.1311 83.3338 92.8584 81.2247 91.2766 80.1702C91.5403 80.1702 91.5403 80.1702 91.8039 79.9066C92.5948 79.6429 93.6493 79.1157 94.4402 78.5884V78.3248C93.3857 77.5339 92.3312 77.2702 91.2766 77.5339C90.2221 77.5339 88.9039 78.3248 88.113 79.3793C87.3221 80.4338 87.0585 81.752 87.0585 82.8066C87.0585 83.8611 87.3221 84.9156 87.5857 85.9702H87.8494C87.8494 84.9156 88.113 83.8611 88.3766 83.0702C91.013 85.7065 97.8675 87.0247 98.3948 87.2884C100.504 87.552 102.349 87.8156 104.195 87.8156C106.304 87.8156 108.149 87.552 109.731 87.0247C107.358 90.1883 104.722 92.8247 101.822 94.4065C87.3221 103.106 57.5313 96.7792 49.6223 83.5975C46.7223 78.852 44.8768 73.5793 44.0859 68.5703C47.5132 68.8339 53.5768 68.043 56.7404 66.7248C58.8495 70.943 62.5404 73.843 67.2858 74.3702C82.313 75.952 88.113 67.2521 90.2221 58.0248C87.5857 61.9794 83.1039 66.1975 77.8312 66.7248C77.304 66.7248 77.0403 66.7248 76.5131 66.7248C68.8676 66.7248 62.5404 59.8703 62.5404 51.6976C62.5404 46.4249 65.4404 41.6795 69.6585 39.0431C59.904 42.2067 54.3677 51.434 54.3677 56.7067C54.3677 56.9703 54.3677 57.4976 54.3677 57.7612C51.2041 58.5521 46.9859 59.0794 44.0859 58.8158C44.6132 55.6521 45.4041 52.4885 46.7223 49.8522C48.5677 46.4249 50.9404 43.5249 53.8404 40.8886C60.4313 36.6704 69.3949 32.9795 79.1494 34.5613C92.5948 37.1977 96.2857 42.4704 96.813 38.2522C97.0766 35.0886 96.2857 32.9795 95.2312 31.3977C99.1857 33.7704 102.877 37.7249 106.04 41.6795C101.295 40.8886 96.813 42.4704 92.8584 45.634C93.913 47.7431 93.913 50.9067 92.5948 54.0703C97.6039 48.7976 103.667 46.1613 110.522 47.7431C111.049 48.534 111.84 49.5885 112.367 50.3794C113.422 51.6976 114.213 53.0158 114.74 53.8067C115.267 54.5976 116.058 55.3885 116.586 55.9158C118.958 58.8158 121.595 62.243 121.067 64.0885Z" fill="#000" /><path d="M77.3041 38.7795C76.5132 38.7795 75.7223 38.7795 74.9314 39.0432H74.6678C74.1405 39.3068 73.3496 39.3068 72.8223 39.5704C72.5587 39.5704 72.2951 39.8341 72.2951 39.8341C67.8133 41.9432 64.6497 46.425 64.6497 51.6977C64.6497 58.2885 69.6587 64.3522 76.2496 64.3522C76.7769 64.3522 76.7769 64.3522 77.3041 64.3522C79.6769 64.0885 82.0496 62.7703 84.1587 61.1885C84.4223 60.9249 84.6859 60.6613 84.9496 60.3976C86.5314 58.8158 87.8495 57.234 88.9041 55.3886C89.1677 55.1249 89.1677 54.8613 89.4314 54.334C89.4314 54.334 89.4314 54.0704 89.695 54.0704C91.0132 51.1704 91.2768 48.2704 90.4859 46.1613C87.5859 40.3614 81.2587 38.7795 77.3041 38.7795ZM72.8223 56.4431C71.2405 56.4431 70.186 54.8613 70.186 52.7522C70.186 50.6431 71.5042 49.0613 72.8223 49.0613C74.4042 49.0613 75.4587 50.6431 75.4587 52.7522C75.4587 54.8613 74.4042 56.4431 72.8223 56.4431ZM87.5859 53.0158C87.0586 50.6431 85.7405 47.2159 81.7859 45.3704C77.0405 43.2613 73.3496 42.9977 70.4496 44.0522C72.2951 42.2068 74.9314 41.1523 77.5678 41.1523C80.4678 41.1523 86.2677 42.4704 88.6405 47.2159C89.1677 48.2704 88.6405 50.6431 87.5859 53.0158Z" fill="#000" /></symbol><symbol viewBox="0 0 30 30" id="mail-outline"><path fill="#222" fill-rule="evenodd" d="M1,15 C1,22.7331601 7.26736558,29 15,29 C22.7331601,29 29,22.7326344 29,15 C29,7.26683989 22.7326344,1 15,1 C7.26683989,1 1,7.26736558 1,15 Z M0,15 C0,6.71572875 6.71390727,0 15,0 C23.2842712,0 30,6.71390727 30,15 C30,23.2842712 23.2860927,30 15,30 C6.71572875,30 0,23.2860927 0,15 Z M21.625,9 L8.625,9 C7.73125,9 7.008125,9.73125 7.008125,10.625 L7,20.375 C7,21.26875 7.73125,22 8.625,22 L21.625,22 C22.51875,22 23.25,21.26875 23.25,20.375 L23.25,10.625 C23.25,9.73125 22.51875,9 21.625,9 L21.625,9 Z M21.625,20.375 L8.625,20.375 L8.625,12.25 L15.125,16.3125 L21.625,12.25 L21.625,20.375 L21.625,20.375 Z M15.125,14.6875 L8.625,10.625 L21.625,10.625 L15.125,14.6875 L15.125,14.6875 Z" /></symbol><symbol viewBox="0 0 500 500" id="search"><path class="st0" d="M470.5 471.5L368.9 335.4c67.1-69.1 77.2-178.9 18.3-258.1C348.5 28.5 289.6 0 226.6 0c-42.7 0-83.3 14.2-117.9 40.7-87.4 65-105.7 189-38.6 276.4 38.6 50.8 95.5 79.3 158.5 79.3 36.6 0 73.2-10.2 103.7-30.5L433.9 500l36.6-28.5zM106.7 288.6C55.9 221.5 70.1 128 137.2 77.2c26.4-20.3 56.9-30.5 91.5-30.5 48.8 0 91.5 22.4 119.9 61 50.8 67.1 36.6 160.6-30.5 211.4-26.4 20.3-56.9 30.5-91.5 30.5-46.8 0-91.5-22.4-119.9-61z" /></symbol></defs><use id="chevron-down-usage" xlink:href="#chevron-down" class="sprite-symbol-usage" /><use id="close-usage" xlink:href="#close" class="sprite-symbol-usage" /><use id="cross-usage" xlink:href="#cross" class="sprite-symbol-usage" /><use id="facebook-outline-usage" xlink:href="#facebook-outline" class="sprite-symbol-usage" /><use id="hand-usage" xlink:href="#hand" class="sprite-symbol-usage" /><use id="instagram-outline-usage" xlink:href="#instagram-outline" class="sprite-symbol-usage" /><use id="logo-usage" xlink:href="#logo" class="sprite-symbol-usage" /><use id="mail-outline-usage" xlink:href="#mail-outline" class="sprite-symbol-usage" /><use id="search-usage" xlink:href="#search" class="sprite-symbol-usage" /></svg>