<svg xmlns="http://www.w3.org/2000/svg" xmlns:xlink="http://www.w3.org/1999/xlink"><defs><style>
    .sprite-symbol-usage {display: none;}
    .sprite-symbol-usage:target {display: inline;}
  </style><symbol viewBox="0 0 24 24" class="flex-none fill-current text-red-500 h-4 w-4" id="alert--error"><path d="M12 0c-6.627 0-12 5.373-12 12s5.373 12 12 12 12-5.373 12-12-5.373-12-12-12zm4.597 17.954l-4.591-4.55-4.555 4.596-1.405-1.405 4.547-4.592-4.593-4.552 1.405-1.405 4.588 4.543 4.545-4.589 1.416 1.403-4.546 4.587 4.592 4.548-1.403 1.416z" /></symbol><symbol viewBox="0 0 24 24" class="flex-none fill-current text-green-500 h-4 w-4" id="alert--status"><path d="M12 0c-6.627 0-12 5.373-12 12s5.373 12 12 12 12-5.373 12-12-5.373-12-12-12zm-1.25 16.518l-4.5-4.319 1.396-1.435 3.078 2.937 6.105-6.218 1.421 1.409-7.5 7.626z" /></symbol><symbol viewBox="0 0 24 24" class="flex-none fill-current text-blue-500 h-4 w-4" id="alert--warning"><path d="M12 0c-6.627 0-12 5.373-12 12s5.373 12 12 12 12-5.373 12-12-5.373-12-12-12zm-.001 5.75c.69 0 1.251.56 1.251 1.25s-.561 1.25-1.251 1.25-1.249-.56-1.249-1.25.559-1.25 1.249-1.25zm2.001 12.25h-4v-1c.484-.179 1-.201 1-.735v-4.467c0-.534-.516-.618-1-.797v-1h3v6.265c0 .535.517.558 1 .735v.999z" /></symbol><symbol viewBox="-7 0 24 24" id="arrow"><path d="m 1.90875,0.333 c -0.429,-0.444 -1.143,-0.444 -1.587,0 -0.429,0.429 -0.429,1.143 0,1.571 l 9.194477,9.141878 v 0 0 L 0.32175,20.222 c -0.429,0.444 -0.429,1.159 0,1.587 0.444,0.444 1.159,0.444 1.587,0 l 9.952,-9.952 c 0.444,-0.429 0.444,-1.143 0,-1.571 z" /></symbol><symbol viewBox="0 0 24 24" class="flex-none fill-current text-green-600 h-3 w-3" id="close"><path d="M23.954 21.03l-9.184-9.095 9.092-9.174-2.832-2.807-9.09 9.179-9.176-9.088-2.81 2.81 9.186 9.105-9.095 9.184 2.81 2.81 9.112-9.192 9.18 9.1z" /></symbol><symbol viewBox="0 0 128 128" id="facebook"><path d="M53.68,38.26v15.1H37.11V72H53.68v42H73.29V72H90l2-18.63H73.29V38.26c0-2.67,2.11-4,3-4.82,1.57-1.34,9.15-1.55,9.15-1.55h7.43V15a93.26,93.26,0,0,0-11.68-1C53.11,14,53.68,38.26,53.68,38.26Z" /></symbol><symbol viewBox="0 0 128 128" id="instagram"><defs><style>#instagram .cls-1{fill:currentColor}</style></defs><path class="cls-1" d="M83,23a22,22,0,0,1,22,22V83a22,22,0,0,1-22,22H45A22,22,0,0,1,23,83V45A22,22,0,0,1,45,23H83m0-8H45A30.09,30.09,0,0,0,15,45V83a30.09,30.09,0,0,0,30,30H83a30.09,30.09,0,0,0,30-30V45A30.09,30.09,0,0,0,83,15Z" /><path class="cls-1" d="M90.14 32a5.73 5.73 0 105.73 5.73A5.73 5.73 0 0090.14 32zM64.27 46.47A17.68 17.68 0 1146.6 64.14 17.7 17.7 0 0164.27 46.47m0-8A25.68 25.68 0 1090 64.14 25.68 25.68 0 0064.27 38.47z" /></symbol><symbol viewBox="0 0 64 64" id="linkedin"><style>#linkedin .st0{fill:currentColor}</style><g id="linkedin_Layer_2"><path class="st0" d="M8 54.7C8 55.4 8.6 56 9.3 56h9.3c.7 0 1.3-.6 1.3-1.3V23.9c0-.7-.6-1.3-1.3-1.3H9.3c-.7 0-1.3.6-1.3 1.3V54.7zM46.6 22.3c-4.5 0-7.7 1.8-9.4 3.7-.4.4-1.1.1-1.1-.5l0-1.6c0-.7-.6-1.3-1.3-1.3h-9.4c-.7 0-1.3.6-1.3 1.3.1 5.7 0 25.4 0 30.7 0 .7.6 1.3 1.3 1.3h9.5c.7 0 1.3-.6 1.3-1.3V37.9c0-1 0-2 .3-2.7.8-2 2.6-4.1 5.7-4.1 4.1 0 6 3.1 6 7.6v15.9c0 .7.6 1.3 1.3 1.3h9.3c.7 0 1.3-.6 1.3-1.3V37.4C60 27.1 54.1 22.3 46.6 22.3zM13.9 18.9L13.9 18.9c3.8 0 6.1-2.4 6.1-5.4C19.9 10.3 17.7 8 14 8c-3.7 0-6 2.3-6 5.4C8 16.5 10.3 18.9 13.9 18.9z" /></g></symbol><symbol viewBox="0 0 32 32" id="right-arrow"><path d="M22,9a1,1,0,0,0,0,1.42l4.6,4.6H3.06a1,1,0,1,0,0,2H26.58L22,21.59A1,1,0,0,0,22,23a1,1,0,0,0,1.41,0l6.36-6.36a.88.88,0,0,0,0-1.27L23.42,9A1,1,0,0,0,22,9Z" data-name="Layer 2" /></symbol><symbol viewBox="0 0 500 500" id="search"><path class="st0" d="M470.5 471.5L368.9 335.4c67.1-69.1 77.2-178.9 18.3-258.1C348.5 28.5 289.6 0 226.6 0c-42.7 0-83.3 14.2-117.9 40.7-87.4 65-105.7 189-38.6 276.4 38.6 50.8 95.5 79.3 158.5 79.3 36.6 0 73.2-10.2 103.7-30.5L433.9 500l36.6-28.5zM106.7 288.6C55.9 221.5 70.1 128 137.2 77.2c26.4-20.3 56.9-30.5 91.5-30.5 48.8 0 91.5 22.4 119.9 61 50.8 67.1 36.6 160.6-30.5 211.4-26.4 20.3-56.9 30.5-91.5 30.5-46.8 0-91.5-22.4-119.9-61z" /></symbol><symbol viewBox="0 0 21.02 60.555" id="triangle"><path d="M2295.563,2520l-20,29.225,20,30.775" transform="rotate(180 1147.991 1290.136)" /></symbol><symbol viewBox="0 0 64 64" id="twitter"><path d="M11.4,26.6C11.5,26.6,11.5,26.6,11.4,26.6c-0.9,0-1.8-0.2-2.6-0.4c-1.3-0.4-2.5,0.8-2.1,2 c1.1,4.3,4.5,7.7,8.8,8.6c-1,0.3-2,0.4-3,0.4c-1,0-1.7,1.1-1.2,2c1.9,3.5,5.6,5.9,9.7,6h1c1.1,0,2,0.9,2,2c0,1.1-0.9,2-2,2 c-1.3,0-2.9-0.1-4.5-0.5c-1-0.2-2-0.2-2.9,0.1c-1.7,0.6-3.5,1.1-5.4,1.3C8.5,50.2,8,50.7,8,51.4v0c0,0.5,0.3,1,0.8,1.2 c3.9,1.7,8.3,2.7,12.9,2.7c21.1,0,32.7-17.9,32.7-33.5v0c0-0.9,0.4-1.8,1.1-2.4c1.2-1,2.3-2.1,3.3-3.4c0.4-0.5-0.1-1.2-0.7-1 c-1.2,0.4-2.4,0.7-3.7,0.9c-0.2,0-0.3-0.2-0.1-0.4c1.5-1.1,2.8-2.6,3.6-4.3c0.3-0.6-0.3-1.2-0.9-0.9c-1.1,0.6-2.3,1-3.5,1.4 c-1.2,0.4-2.6,0.1-3.6-0.7c-1.9-1.5-4.4-2.4-7-2.4c-5.3,0-9.8,3.7-11.1,8.8c-0.2,0.9,0.5,1.7,1.4,1.7c1.6-0.1,3.2-0.3,4.4-0.5 c1-0.2,2,0.3,2.4,1.2c0.5,1.2-0.2,2.4-1.3,2.7c-4.6,1.3-9.7,0.4-9.7,0.4l0,0C21.2,21.8,14.3,18,9.3,12.5C8.6,11.7,7.3,12,7,12.9 c-0.4,1.2-0.6,2.5-0.6,3.9C6.4,20.9,8.4,24.5,11.4,26.6z" /></symbol></defs><use id="alert--error-usage" xlink:href="#alert--error" class="sprite-symbol-usage" /><use id="alert--status-usage" xlink:href="#alert--status" class="sprite-symbol-usage" /><use id="alert--warning-usage" xlink:href="#alert--warning" class="sprite-symbol-usage" /><use id="arrow-usage" xlink:href="#arrow" class="sprite-symbol-usage" /><use id="close-usage" xlink:href="#close" class="sprite-symbol-usage" /><use id="facebook-usage" xlink:href="#facebook" class="sprite-symbol-usage" /><use id="instagram-usage" xlink:href="#instagram" class="sprite-symbol-usage" /><use id="linkedin-usage" xlink:href="#linkedin" class="sprite-symbol-usage" /><use id="right-arrow-usage" xlink:href="#right-arrow" class="sprite-symbol-usage" /><use id="search-usage" xlink:href="#search" class="sprite-symbol-usage" /><use id="triangle-usage" xlink:href="#triangle" class="sprite-symbol-usage" /><use id="twitter-usage" xlink:href="#twitter" class="sprite-symbol-usage" /></svg>