<svg xmlns="http://www.w3.org/2000/svg" xmlns:xlink="http://www.w3.org/1999/xlink"><defs><style>
    .sprite-symbol-usage {display: none;}
    .sprite-symbol-usage:target {display: inline;}
  </style><symbol viewBox="0 0 580 580" id="chevron-down"><path d="M289.62,405.36a21.31,21.31,0,0,0,14.88-6.3L493,209.82a20.67,20.67,0,0,0,.45-29.33c-3.68-3.68-8.72-5.65-14.9-5.85a21.13,21.13,0,0,0-14.46,6.3L290.3,355.27,116.3,181a19.06,19.06,0,0,0-14.09-5.82,21.48,21.48,0,0,0-15.3,6.27v0a21.15,21.15,0,0,0-6.27,14.88,20.16,20.16,0,0,0,5.88,14.48L275.17,399.51a19.93,19.93,0,0,0,14.45,5.85" fill="#cd0f2d" data-name="Ebene 1" /></symbol><symbol viewBox="0 0 500 500" id="close"><path d="M250 179.9L70-.1l-70 70 180 180-180 180 70 70 180-180 180 180 70-70-180-180 180-180-70-70-180 180z" /></symbol><symbol viewBox="0 0 1719.92 1938.01" id="cross"><defs><style>#cross .cls-4{fill:none;stroke:#505456;stroke-linecap:round;stroke-linejoin:round;stroke-width:5px}</style></defs><g style="isolation:isolate"><g style="mix-blend-mode:multiply" opacity=".25" id="cross_Ebene_1"><path class="cls-4" d="M768.57 121.44L796.29 149.17M124.82 121.44L152.54 149.17M811.66 164.54L839.39 192.26M167.91 164.54L195.64 192.26M768.63 192.2L796.36 164.47M124.88 192.2L152.61 164.47M811.72 149.11L839.45 121.38M167.97 149.11L195.7 121.38M768.72 14.38L796.45 42.11M124.97 14.38L152.7 42.11M811.81 57.47L839.54 85.2M168.06 57.47L195.79 85.2M768.78 85.13L796.51 57.41M125.03 85.13L152.76 57.41M811.88 42.04L839.6 14.31M168.12 42.04L195.85 14.31M876.56 14.38L904.29 42.11M232.81 14.38L260.53 42.11M919.65 57.47L947.38 85.2M275.9 57.47L303.63 85.2M876.62 85.13L904.35 57.41M232.87 85.13L260.6 57.41M919.72 42.04L947.44 14.31M275.96 42.04L303.69 14.31M1090.57 14.38L1118.3 42.11M446.82 14.38L474.55 42.11M1133.67 57.47L1161.39 85.2M489.91 57.47L517.64 85.2M1090.64 85.13L1118.36 57.41M446.89 85.13L474.61 57.41M1133.73 42.04L1161.46 14.31M489.98 42.04L517.71 14.31M661.78 14.38L689.51 42.11M18.03 14.38L45.76 42.11M704.88 57.47L732.6 85.2M61.12 57.47L88.85 85.2M661.85 85.13L689.57 57.41M18.1 85.13L45.82 57.41M704.94 42.04L732.67 14.31M61.19 42.04L88.92 14.31M983.11 121.44L1010.84 149.17M339.36 121.44L367.08 149.17M1026.2 164.54L1053.93 192.26M382.45 164.54L410.18 192.26M983.17 192.2L1010.9 164.47M339.42 192.2L367.15 164.47M1026.27 149.11L1053.99 121.38M382.51 149.11L410.24 121.38M983.26 14.38L1010.99 42.11M339.51 14.38L367.24 42.11M1026.35 57.47L1054.08 85.2M382.6 57.47L410.33 85.2M983.33 85.13L1011.05 57.41M339.57 85.13L367.3 57.41M1026.42 42.04L1054.15 14.31M382.67 42.04L410.39 14.31M1197.91 121.44L1225.63 149.17M554.15 121.44L581.88 149.17M1241 164.54L1268.73 192.26M597.25 164.54L624.97 192.26M1197.97 192.2L1225.7 164.47M554.22 192.2L581.95 164.47M1241.06 149.11L1268.79 121.38M597.31 149.11L625.04 121.38M1198.06 14.38L1225.79 42.11M554.31 14.38L582.03 42.11M1241.15 57.47L1268.88 85.2M597.4 57.47L625.13 85.2M1198.12 85.13L1225.85 57.41M554.37 85.13L582.1 57.41M1241.22 42.04L1268.94 14.31M597.46 42.04L625.19 14.31M661.59 228.6L689.32 256.32M661.59 878.84L689.32 906.56M17.84 228.6L45.56 256.32M704.68 271.69L732.41 299.42M704.68 921.93L732.41 949.66M60.93 271.69L88.66 299.42M661.65 299.35L689.38 271.62M661.65 949.59L689.38 921.86M17.9 299.35L45.63 271.62M704.75 256.26L732.47 228.53M704.75 906.5L732.47 878.77M60.99 256.26L88.72 228.53M661.74 121.53L689.47 149.26M17.99 121.53L45.72 149.26M704.83 164.62L732.56 192.35M61.08 164.62L88.81 192.35M661.81 192.29L689.53 164.56M18.05 192.29L45.78 164.56M704.9 149.19L732.63 121.47M61.15 149.19L88.87 121.47M876.13 228.6L903.86 256.32M876.13 878.84L903.86 906.56M232.38 228.6L260.11 256.32M232.38 878.84L260.11 906.56M919.22 271.69L946.95 299.42M919.22 921.93L946.95 949.66M275.47 271.69L303.2 299.42M275.47 921.93L303.2 949.66M876.2 299.35L903.92 271.62M876.2 949.59L903.92 921.86M232.44 299.35L260.17 271.62M232.44 949.59L260.17 921.86M919.29 256.26L947.01 228.53M919.29 906.5L947.01 878.77M275.54 256.26L303.26 228.53M275.54 906.5L303.26 878.77M876.28 121.53L904.01 149.26M232.53 121.53L260.26 149.26M919.38 164.62L947.1 192.35M275.62 164.62L303.35 192.35M876.35 192.29L904.07 164.56M232.6 192.29L260.32 164.56M919.44 149.19L947.17 121.47M275.69 149.19L303.42 121.47M1090.93 228.6L1118.65 256.32M1090.93 878.84L1118.65 906.56M447.18 228.6L474.9 256.32M447.18 878.84L474.9 906.56M1134.02 271.69L1161.75 299.42M1134.02 921.93L1161.75 949.66M490.27 271.69L518 299.42M490.27 921.93L518 949.66M1090.99 299.35L1118.72 271.62M1090.99 949.59L1118.72 921.86M447.24 299.35L474.97 271.62M447.24 949.59L474.97 921.86M1134.08 256.26L1161.81 228.53M1134.08 906.5L1161.81 878.77M490.33 256.26L518.06 228.53M490.33 906.5L518.06 878.77M1091.08 121.53L1118.81 149.26M447.33 121.53L475.06 149.26M1134.17 164.62L1161.9 192.35M490.42 164.62L518.15 192.35M1091.14 192.29L1118.87 164.56M447.39 192.29L475.12 164.56M1134.24 149.19L1161.96 121.47M490.49 149.19L518.21 121.47M768.57 335.98L796.29 363.71M768.57 986.22L796.29 1013.95M124.82 335.98L152.54 363.71M124.82 986.22L152.54 1013.95M811.66 379.08L839.39 406.8M811.66 1029.32L839.39 1057.04M167.91 379.08L195.64 406.8M167.91 1029.32L195.64 1057.04M768.63 406.74L796.36 379.01M768.63 1056.98L796.36 1029.25M124.88 406.74L152.61 379.01M124.88 1056.98L152.61 1029.25M811.72 363.65L839.45 335.92M811.72 1013.89L839.45 986.16M167.97 363.65L195.7 335.92M167.97 1013.89L195.7 986.16M768.72 228.92L796.45 256.64M768.72 879.16L796.45 906.89M124.97 228.92L152.7 256.64M124.97 879.16L152.7 906.89M811.81 272.01L839.54 299.74M811.81 922.25L839.54 949.98M168.06 272.01L195.79 299.74M168.06 922.25L195.79 949.98M768.78 299.67L796.51 271.95M768.78 949.91L796.51 922.19M125.03 299.67L152.76 271.95M125.03 949.91L152.76 922.19M811.88 256.58L839.6 228.85M811.88 906.82L839.6 879.09M168.12 256.58L195.85 228.85M168.12 906.82L195.85 879.09M983.11 335.98L1010.84 363.71M983.11 986.22L1010.84 1013.95M339.36 335.98L367.08 363.71M339.36 986.22L367.08 1013.95M1026.2 379.08L1053.93 406.8M1026.2 1029.32L1053.93 1057.04M382.45 379.08L410.18 406.8M382.45 1029.32L410.18 1057.04M983.17 406.74L1010.9 379.01M983.17 1056.98L1010.9 1029.25M339.42 406.74L367.15 379.01M339.42 1056.98L367.15 1029.25M1026.27 363.65L1053.99 335.92M1026.27 1013.89L1053.99 986.16M382.51 363.65L410.24 335.92M382.51 1013.89L410.24 986.16M983.26 228.92L1010.99 256.65M983.26 879.16L1010.99 906.89M339.51 228.92L367.24 256.64M339.51 879.16L367.24 906.88M1026.35 272.01L1054.08 299.74M1026.35 922.25L1054.08 949.98M382.6 272.01L410.33 299.74M382.6 922.25L410.33 949.98M983.33 299.67L1011.05 271.95M983.33 949.91L1011.05 922.19M339.57 299.67L367.3 271.95M339.57 949.91L367.3 922.19M1026.42 256.58L1054.15 228.85M1026.42 906.82L1054.15 879.09M382.67 256.58L410.39 228.85M382.67 906.82L410.39 879.09M1197.91 335.98L1225.63 363.71M1197.91 986.22L1225.63 1013.95M554.15 335.98L581.88 363.71M554.15 986.22L581.88 1013.95M1241 379.08L1268.73 406.8M1241 1029.32L1268.73 1057.04M597.25 379.08L624.97 406.8M597.25 1029.32L624.97 1057.04M1197.97 406.74L1225.7 379.01M1197.97 1056.98L1225.7 1029.25M554.22 406.74L581.95 379.01M554.22 1056.98L581.95 1029.25M1241.06 363.65L1268.79 335.92M1241.06 1013.89L1268.79 986.16M597.31 363.65L625.04 335.92M597.31 1013.89L625.04 986.16M1198.06 228.92L1225.79 256.64M1198.06 879.16L1225.79 906.88M554.31 228.92L582.03 256.64M554.31 879.16L582.03 906.88M1241.15 272.01L1268.88 299.74M1241.15 922.25L1268.88 949.98M597.4 272.01L625.13 299.74M597.4 922.25L625.13 949.98M1198.12 299.67L1225.85 271.95M1198.12 949.91L1225.85 922.19M554.37 299.67L582.1 271.95M554.37 949.91L582.1 922.19M1241.22 256.58L1268.94 228.85M1241.22 906.82L1268.94 879.09M597.46 256.58L625.19 228.85M597.46 906.82L625.19 879.09M661.59 443.14L689.32 470.86M661.59 1093.38L689.32 1121.1M17.84 443.14L45.56 470.86M704.68 486.23L732.41 513.95M704.68 1136.47L732.41 1164.2M60.93 486.23L88.66 513.95M661.65 513.89L689.38 486.16M661.65 1164.13L689.38 1136.4M17.9 513.89L45.63 486.16M704.75 470.8L732.47 443.07M704.75 1121.04L732.47 1093.31M60.99 470.8L88.72 443.07M661.74 336.07L689.47 363.8M661.74 986.31L689.47 1014.04M17.99 336.07L45.72 363.8M704.83 379.16L732.56 406.89M704.83 1029.4L732.56 1057.13M61.08 379.16L88.81 406.89M661.81 406.83L689.53 379.1M661.81 1057.07L689.53 1029.34M18.05 406.83L45.78 379.1M704.9 363.73L732.63 336.01M704.9 1013.97L732.63 986.25M61.15 363.73L88.87 336.01M876.13 443.14L903.86 470.86M876.13 1093.38L903.86 1121.1M232.38 443.14L260.11 470.86M232.38 1093.38L260.11 1121.1M919.22 486.23L946.95 513.95M919.22 1136.47L946.95 1164.2M275.47 486.23L303.2 513.95M275.47 1136.47L303.2 1164.19M876.2 513.89L903.92 486.16M876.2 1164.13L903.92 1136.4M232.44 513.89L260.17 486.16M232.44 1164.13L260.17 1136.4M919.29 470.8L947.01 443.07M919.29 1121.04L947.01 1093.31M275.54 470.8L303.26 443.07M275.54 1121.04L303.26 1093.31M876.28 336.07L904.01 363.8M876.28 986.31L904.01 1014.04M232.53 336.07L260.26 363.8M232.53 986.31L260.26 1014.04M919.38 379.16L947.1 406.89M919.38 1029.4L947.1 1057.13M275.62 379.16L303.35 406.89M275.62 1029.4L303.35 1057.13M876.35 406.83L904.07 379.1M876.35 1057.07L904.07 1029.34M232.6 406.83L260.32 379.1M232.6 1057.07L260.32 1029.34M919.44 363.73L947.17 336.01M919.44 1013.97L947.17 986.25M275.69 363.73L303.42 336.01M275.69 1013.97L303.42 986.25M1090.93 443.14L1118.65 470.86M1090.93 1093.38L1118.65 1121.1M447.18 443.14L474.9 470.86M447.18 1093.38L474.9 1121.1M1134.02 486.23L1161.75 513.95M1134.02 1136.47L1161.75 1164.19M490.27 486.23L518 513.95M490.27 1136.47L518 1164.2M1090.99 513.89L1118.72 486.16M1090.99 1164.13L1118.72 1136.4M447.24 513.89L474.97 486.16M447.24 1164.13L474.97 1136.4M1134.08 470.8L1161.81 443.07M1134.08 1121.04L1161.81 1093.31M490.33 470.8L518.06 443.07M490.33 1121.04L518.06 1093.31M1091.08 336.07L1118.81 363.8M1091.08 986.31L1118.81 1014.04M447.33 336.07L475.06 363.8M447.33 986.31L475.06 1014.04M1134.17 379.16L1161.9 406.89M1134.17 1029.4L1161.9 1057.13M490.42 379.16L518.15 406.89M490.42 1029.4L518.15 1057.13M1091.14 406.83L1118.87 379.1M1091.14 1057.07L1118.87 1029.34M447.39 406.83L475.12 379.1M447.39 1057.07L475.12 1029.34M1134.24 363.73L1161.96 336.01M1134.24 1013.97L1161.96 986.25M490.49 363.73L518.21 336.01M490.49 1013.97L518.21 986.25M768.72 549.84L796.45 577.57M768.72 1200.08L796.45 1227.81M124.97 549.84L152.7 577.57M124.97 1200.08L152.7 1227.81M811.81 592.94L839.54 620.66M811.81 1243.18L839.54 1270.9M168.06 592.94L195.79 620.66M168.06 1243.18L195.79 1270.9M768.78 620.6L796.51 592.87M768.78 1270.84L796.51 1243.11M125.03 620.6L152.76 592.87M125.03 1270.84L152.76 1243.11M811.88 577.51L839.6 549.78M811.88 1227.75L839.6 1200.02M168.12 577.51L195.85 549.78M168.12 1227.75L195.85 1200.02M768.87 442.78L796.6 470.51M768.87 1093.02L796.6 1120.75M125.12 442.78L152.85 470.51M125.12 1093.02L152.85 1120.75M811.96 485.87L839.69 513.6M811.96 1136.11L839.69 1163.84M168.21 485.87L195.94 513.6M168.21 1136.11L195.94 1163.84M768.94 513.54L796.66 485.81M768.94 1163.78L796.66 1136.05M125.18 513.54L152.91 485.81M125.18 1163.78L152.91 1136.05M812.03 470.44L839.76 442.72M812.03 1120.68L839.76 1092.96M168.28 470.44L196 442.72M168.28 1120.68L196 1092.96M983.26 549.84L1010.99 577.57M983.26 1200.08L1010.99 1227.81M339.51 549.84L367.24 577.57M339.51 1200.08L367.24 1227.81M1026.35 592.94L1054.08 620.66M1026.35 1243.18L1054.08 1270.9M382.6 592.94L410.33 620.66M382.6 1243.18L410.33 1270.9M983.33 620.6L1011.05 592.87M983.33 1270.84L1011.05 1243.11M339.57 620.6L367.3 592.87M339.57 1270.84L367.3 1243.11M1026.42 577.51L1054.15 549.78M1026.42 1227.75L1054.15 1200.02M382.67 577.51L410.39 549.78M382.67 1227.75L410.39 1200.02M983.41 442.78L1011.14 470.51M983.41 1093.02L1011.14 1120.75M339.66 442.78L367.39 470.51M339.66 1093.02L367.39 1120.75M1026.51 485.87L1054.23 513.6M1026.51 1136.11L1054.23 1163.84M382.76 485.87L410.48 513.6M382.76 1136.11L410.48 1163.84M983.48 513.54L1011.2 485.81M983.48 1163.78L1011.2 1136.05M339.73 513.54L367.45 485.81M339.73 1163.78L367.45 1136.05M1026.57 470.44L1054.3 442.72M1026.57 1120.68L1054.3 1092.96M382.82 470.44L410.55 442.72M382.82 1120.68L410.55 1092.96M1198.06 549.84L1225.79 577.57M1198.06 1200.09L1225.79 1227.81M554.31 549.84L582.03 577.57M554.31 1200.08L582.03 1227.81M1241.15 592.94L1268.88 620.66M1241.15 1243.18L1268.88 1270.9M597.4 592.94L625.13 620.66M597.4 1243.18L625.13 1270.9M1198.12 620.6L1225.85 592.87M1198.12 1270.84L1225.85 1243.11M554.37 620.6L582.1 592.87M554.37 1270.84L582.1 1243.11M1241.22 577.51L1268.94 549.78M1241.22 1227.75L1268.94 1200.02M597.46 577.51L625.19 549.78M597.46 1227.75L625.19 1200.02M1198.21 442.78L1225.94 470.51M1198.21 1093.02L1225.94 1120.75M554.46 442.78L582.19 470.51M554.46 1093.02L582.19 1120.75M1241.3 485.87L1269.03 513.6M1241.3 1136.11L1269.03 1163.84M597.55 485.87L625.28 513.6M597.55 1136.11L625.28 1163.84M1198.27 513.54L1226 485.81M1198.27 1163.78L1226 1136.05M554.52 513.54L582.25 485.81M554.52 1163.78L582.25 1136.05M1241.37 470.44L1269.09 442.72M1241.37 1120.68L1269.09 1092.96M597.62 470.44L625.34 442.72M597.62 1120.68L625.34 1092.96M661.74 657L689.47 684.72M661.74 1307.24L689.47 1334.96M17.99 657L45.72 684.72M704.83 700.09L732.56 727.82M704.83 1350.33L732.56 1378.06M61.08 700.09L88.81 727.82M661.81 727.75L689.53 700.03M661.81 1377.99L689.53 1350.27M18.05 727.75L45.78 700.03M704.9 684.66L732.63 656.93M704.9 1334.9L732.63 1307.17M61.15 684.66L88.87 656.93M661.89 549.93L689.62 577.66M661.89 1200.17L689.62 1227.9M18.14 549.93L45.87 577.66M704.99 593.02L732.71 620.75M704.99 1243.26L732.71 1270.99M61.24 593.02L88.96 620.75M661.96 620.69L689.68 592.96M661.96 1270.93L689.68 1243.2M18.21 620.69L45.93 592.96M705.05 577.59L732.78 549.87M705.05 1227.83L732.78 1200.11M61.3 577.59L89.03 549.87M876.28 657L904.01 684.72M876.28 1307.24L904.01 1334.96M232.53 657L260.26 684.72M232.53 1307.24L260.26 1334.96M919.38 700.09L947.1 727.82M919.38 1350.33L947.1 1378.06M275.62 700.09L303.35 727.82M275.62 1350.33L303.35 1378.06M876.35 727.75L904.07 700.03M876.35 1377.99L904.07 1350.27M232.6 727.75L260.32 700.03M232.6 1377.99L260.32 1350.27M919.44 684.66L947.17 656.93M919.44 1334.9L947.17 1307.17M275.69 684.66L303.42 656.93M275.69 1334.9L303.42 1307.17M876.44 549.93L904.16 577.66M876.44 1200.17L904.16 1227.9M232.68 549.93L260.41 577.66M232.68 1200.17L260.41 1227.9M919.53 593.02L947.26 620.75M919.53 1243.26L947.26 1270.99M275.78 593.02L303.5 620.75M275.78 1243.26L303.5 1270.99M876.5 620.69L904.23 592.96M876.5 1270.93L904.23 1243.2M232.75 620.69L260.48 592.96M232.75 1270.93L260.48 1243.2M919.59 577.59L947.32 549.87M919.59 1227.83L947.32 1200.11M275.84 577.59L303.57 549.87M275.84 1227.83L303.57 1200.11M1091.08 657L1118.81 684.72M1091.08 1307.24L1118.81 1334.96M447.33 657L475.06 684.72M447.33 1307.24L475.06 1334.96M1134.17 700.09L1161.9 727.82M1134.17 1350.33L1161.9 1378.06M490.42 700.09L518.15 727.82M490.42 1350.33L518.15 1378.06M1091.14 727.75L1118.87 700.03M1091.14 1377.99L1118.87 1350.27M447.39 727.75L475.12 700.03M447.39 1377.99L475.12 1350.27M1134.24 684.66L1161.96 656.93M1134.24 1334.9L1161.96 1307.17M490.49 684.66L518.21 656.93M490.49 1334.9L518.21 1307.17M1091.23 549.93L1118.96 577.66M1091.23 1200.17L1118.96 1227.9M447.48 549.93L475.21 577.66M447.48 1200.17L475.21 1227.9M1134.33 593.02L1162.05 620.75M1134.33 1243.26L1162.05 1270.99M490.57 593.02L518.3 620.75M490.57 1243.26L518.3 1270.99M1091.3 620.69L1119.02 592.96M1091.3 1270.93L1119.02 1243.2M447.54 620.69L475.27 592.96M447.54 1270.93L475.27 1243.2M1134.39 577.59L1162.12 549.87M1134.39 1227.83L1162.12 1200.11M490.64 577.59L518.36 549.87M490.64 1227.83L518.36 1200.11M768.72 765.38L796.45 793.11M124.97 765.38L152.7 793.11M811.81 808.47L839.54 836.2M168.06 808.47L195.79 836.2M768.78 836.14L796.51 808.41M125.03 836.14L152.76 808.41M811.88 793.05L839.6 765.32M168.12 793.04L195.85 765.32M768.87 658.32L796.6 686.04M768.87 1308.56L796.6 1336.28M125.12 658.32L152.85 686.04M125.12 1308.56L152.85 1336.28M811.96 701.41L839.69 729.14M811.96 1351.65L839.69 1379.38M168.21 701.41L195.94 729.14M168.21 1351.65L195.94 1379.38M768.94 729.07L796.66 701.35M768.94 1379.31L796.66 1351.59M125.18 729.07L152.91 701.35M125.18 1379.31L152.91 1351.59M812.03 685.98L839.76 658.25M812.03 1336.22L839.76 1308.49M168.28 685.98L196 658.25M168.28 1336.22L196 1308.49M18.21 986.22L45.93 1013.95M61.3 1029.32L89.03 1057.04M18.27 1056.98L46 1029.25M61.36 1013.89L89.09 986.16M18.36 879.16L46.09 906.89M61.45 922.25L89.18 949.98M18.42 949.91L46.15 922.19M61.52 906.82L89.24 879.09M18.36 1200.08L46.09 1227.81M61.45 1243.18L89.18 1270.9M18.42 1270.84L46.15 1243.11M61.52 1227.75L89.24 1200.02M18.51 1093.02L46.24 1120.75M61.6 1136.11L89.33 1163.84M18.57 1163.78L46.3 1136.05M61.67 1120.68L89.39 1092.96M18.51 1308.56L46.24 1336.28M61.6 1351.65L89.33 1379.38M18.57 1379.31L46.3 1351.59M61.67 1336.22L89.39 1308.49M983.26 765.38L1010.99 793.11M339.51 765.38L367.24 793.11M1026.35 808.47L1054.08 836.2M382.6 808.47L410.33 836.2M983.33 836.14L1011.05 808.41M339.57 836.14L367.3 808.41M1026.42 793.04L1054.15 765.32M382.67 793.04L410.39 765.32M983.41 658.32L1011.14 686.04M983.41 1308.56L1011.14 1336.28M339.66 658.32L367.39 686.04M339.66 1308.56L367.39 1336.28M1026.51 701.41L1054.23 729.14M1026.51 1351.65L1054.23 1379.38M382.76 701.41L410.48 729.14M382.76 1351.65L410.48 1379.38M983.48 729.07L1011.2 701.35M983.48 1379.31L1011.2 1351.59M339.73 729.07L367.45 701.35M339.73 1379.31L367.45 1351.59M1026.57 685.98L1054.3 658.25M1026.57 1336.22L1054.3 1308.49M382.82 685.98L410.55 658.25M382.82 1336.22L410.55 1308.49M1198.06 765.38L1225.79 793.11M554.31 765.38L582.03 793.11M1241.15 808.47L1268.88 836.2M597.4 808.47L625.13 836.2M1198.12 836.14L1225.85 808.41M554.37 836.14L582.1 808.41M1241.22 793.04L1268.94 765.32M597.46 793.05L625.19 765.32M1198.21 658.32L1225.94 686.04M1198.21 1308.56L1225.94 1336.28M554.46 658.32L582.19 686.04M554.46 1308.56L582.19 1336.28M1241.3 701.41L1269.03 729.14M1241.3 1351.65L1269.03 1379.38M597.55 701.41L625.28 729.14M597.55 1351.65L625.28 1379.38M1198.27 729.07L1226 701.35M1198.27 1379.31L1226 1351.59M554.52 729.07L582.25 701.35M554.52 1379.31L582.25 1351.59M1241.37 685.98L1269.09 658.25M1241.37 1336.22L1269.09 1308.49M597.62 685.98L625.34 658.25M597.62 1336.22L625.34 1308.49M661.89 765.47L689.62 793.2M18.14 765.47L45.87 793.2M704.99 808.56L732.71 836.29M61.24 808.56L88.96 836.29M661.96 836.22L689.68 808.5M18.21 836.22L45.93 808.5M705.05 793.13L732.78 765.4M61.3 793.13L89.03 765.4M876.44 765.47L904.16 793.2M232.68 765.47L260.41 793.2M919.53 808.56L947.26 836.29M275.78 808.56L303.5 836.29M876.5 836.22L904.23 808.5M232.75 836.22L260.48 808.5M919.59 793.13L947.32 765.4M275.84 793.13L303.57 765.4M1091.23 765.47L1118.96 793.2M447.48 765.47L475.21 793.2M1134.33 808.56L1162.05 836.29M490.57 808.56L518.3 836.29M1091.3 836.22L1119.02 808.5M447.54 836.22L475.27 808.5M1134.39 793.13L1162.12 765.4M490.64 793.13L518.36 765.4M768.72 1415.62L796.45 1443.35M124.97 1415.62L152.7 1443.35M811.81 1458.72L839.54 1486.44M168.06 1458.72L195.79 1486.44M768.78 1486.38L796.51 1458.65M125.03 1486.38L152.76 1458.65M811.88 1443.29L839.6 1415.56M168.12 1443.29L195.85 1415.56M18.36 1415.62L46.09 1443.35M61.45 1458.72L89.18 1486.44M18.42 1486.38L46.15 1458.65M61.52 1443.29L89.24 1415.56M983.26 1415.62L1010.99 1443.35M339.51 1415.62L367.24 1443.35M1026.35 1458.72L1054.08 1486.44M382.6 1458.72L410.33 1486.44M983.33 1486.38L1011.05 1458.65M339.57 1486.38L367.3 1458.65M1026.42 1443.29L1054.15 1415.56M382.67 1443.28L410.39 1415.56M1198.06 1415.62L1225.79 1443.35M554.31 1415.62L582.03 1443.35M1241.15 1458.72L1268.88 1486.44M597.4 1458.72L625.13 1486.44M1198.12 1486.38L1225.85 1458.65M554.37 1486.38L582.1 1458.65M1241.22 1443.29L1268.94 1415.56M597.46 1443.28L625.19 1415.56M661.89 1415.71L689.62 1443.44M704.99 1458.8L732.71 1486.53M661.96 1486.46L689.68 1458.74M705.05 1443.37L732.78 1415.64M876.44 1415.71L904.16 1443.44M232.68 1415.71L260.41 1443.44M919.53 1458.8L947.26 1486.53M275.78 1458.8L303.5 1486.53M876.5 1486.46L904.23 1458.74M232.75 1486.46L260.48 1458.74M919.59 1443.37L947.32 1415.64M275.84 1443.37L303.57 1415.64M1091.23 1415.71L1118.96 1443.44M447.48 1415.71L475.21 1443.44M1134.33 1458.8L1162.05 1486.53M490.57 1458.8L518.3 1486.53M1091.3 1486.46L1119.02 1458.74M447.54 1486.46L475.27 1458.74M1134.39 1443.37L1162.12 1415.64M490.64 1443.37L518.36 1415.64M661.59 1523.19L689.32 1550.92M704.68 1566.29L732.41 1594.01M661.65 1593.95L689.38 1566.22M704.75 1550.86L732.47 1523.13M876.13 1523.19L903.86 1550.92M232.38 1523.19L260.11 1550.92M919.22 1566.29L946.95 1594.01M275.47 1566.29L303.2 1594.01M876.2 1593.95L903.92 1566.22M232.44 1593.95L260.17 1566.22M919.29 1550.86L947.01 1523.13M275.54 1550.86L303.26 1523.13M1090.93 1523.19L1118.65 1550.92M447.18 1523.19L474.9 1550.92M1134.02 1566.29L1161.75 1594.01M490.27 1566.29L518 1594.01M1090.99 1593.95L1118.72 1566.22M447.24 1593.95L474.97 1566.22M1134.08 1550.86L1161.81 1523.13M490.33 1550.86L518.06 1523.13M768.72 1629.9L796.45 1657.63M124.97 1629.9L152.7 1657.63M811.81 1673L839.54 1700.72M168.06 1673L195.79 1700.72M768.78 1700.66L796.51 1672.93M125.03 1700.66L152.76 1672.93M811.88 1657.57L839.6 1629.84M168.12 1657.57L195.85 1629.84M768.87 1522.84L796.6 1550.57M125.12 1522.84L152.85 1550.57M811.96 1565.93L839.69 1593.66M168.21 1565.93L195.94 1593.66M768.94 1593.59L796.66 1565.87M125.18 1593.59L152.91 1565.87M812.03 1550.5L839.76 1522.77M168.28 1550.5L196 1522.77M983.26 1629.9L1010.99 1657.63M339.51 1629.9L367.24 1657.63M1026.35 1673L1054.08 1700.72M382.6 1673L410.33 1700.72M983.33 1700.66L1011.05 1672.93M339.57 1700.66L367.3 1672.93M1026.42 1657.57L1054.15 1629.84M382.67 1657.57L410.39 1629.84M983.41 1522.84L1011.14 1550.57M339.66 1522.84L367.39 1550.57M1026.51 1565.93L1054.23 1593.66M382.76 1565.93L410.48 1593.66M983.48 1593.59L1011.2 1565.87M339.73 1593.59L367.45 1565.87M1026.57 1550.5L1054.3 1522.77M382.82 1550.5L410.55 1522.77M1198.06 1629.9L1225.79 1657.63M554.31 1629.9L582.03 1657.63M1241.15 1673L1268.88 1700.72M597.4 1673L625.13 1700.72M1198.12 1700.66L1225.85 1672.93M554.37 1700.66L582.1 1672.93M1241.22 1657.57L1268.94 1629.84M597.46 1657.57L625.19 1629.84M1198.21 1522.84L1225.94 1550.57M554.46 1522.84L582.19 1550.57M1241.3 1565.93L1269.03 1593.66M597.55 1565.93L625.28 1593.66M1198.27 1593.59L1226 1565.87M554.52 1593.59L582.25 1565.87M1241.37 1550.5L1269.09 1522.77M597.62 1550.5L625.34 1522.77M661.74 1737.06L689.47 1764.78M704.83 1780.15L732.56 1807.88M661.81 1807.81L689.53 1780.08M704.9 1764.72L732.63 1736.99M661.89 1629.99L689.62 1657.72M704.99 1673.08L732.71 1700.81M661.96 1700.75L689.68 1673.02M705.05 1657.65L732.78 1629.93M876.28 1737.06L904.01 1764.78M232.53 1737.06L260.26 1764.78M919.38 1780.15L947.1 1807.88M275.62 1780.15L303.35 1807.88M876.35 1807.81L904.07 1780.08M232.6 1807.81L260.32 1780.08M919.44 1764.72L947.17 1736.99M275.69 1764.72L303.42 1736.99M876.44 1629.99L904.16 1657.72M232.68 1629.99L260.41 1657.72M919.53 1673.08L947.26 1700.81M275.78 1673.08L303.5 1700.81M876.5 1700.75L904.23 1673.02M232.75 1700.75L260.48 1673.02M919.59 1657.65L947.32 1629.93M275.84 1657.65L303.57 1629.93M1091.08 1737.06L1118.81 1764.78M447.33 1737.06L475.06 1764.78M1134.17 1780.15L1161.9 1807.88M490.42 1780.15L518.15 1807.88M1091.14 1807.81L1118.87 1780.08M447.39 1807.81L475.12 1780.08M1134.24 1764.72L1161.96 1736.99M490.49 1764.72L518.21 1736.99M1091.23 1629.99L1118.96 1657.72M447.48 1629.99L475.21 1657.72M1134.33 1673.08L1162.05 1700.81M490.57 1673.08L518.3 1700.81M1091.3 1700.75L1119.02 1673.02M447.54 1700.75L475.27 1673.02M1134.39 1657.65L1162.12 1629.93M490.64 1657.65L518.36 1629.93M768.72 1845.44L796.45 1873.17M124.97 1845.44L152.7 1873.17M811.81 1888.53L839.54 1916.26M168.06 1888.53L195.79 1916.26M768.78 1916.2L796.51 1888.47M125.03 1916.2L152.76 1888.47M811.88 1873.1L839.6 1845.38M168.12 1873.1L195.85 1845.38M768.87 1738.38L796.6 1766.1M125.12 1738.38L152.85 1766.1M811.96 1781.47L839.69 1809.2M168.21 1781.47L195.94 1809.2M768.94 1809.13L796.66 1781.4M125.18 1809.13L152.91 1781.4M812.03 1766.04L839.76 1738.31M168.28 1766.04L196 1738.31M18.36 1629.9L46.09 1657.63M61.45 1673L89.18 1700.72M18.42 1700.66L46.15 1672.93M61.52 1657.57L89.24 1629.84M18.51 1522.84L46.24 1550.57M61.6 1565.93L89.33 1593.66M18.57 1593.59L46.3 1565.87M61.67 1550.5L89.39 1522.77M18.36 1845.44L46.09 1873.17M61.45 1888.53L89.18 1916.26M18.42 1916.2L46.15 1888.47M61.52 1873.1L89.24 1845.38M18.51 1738.38L46.24 1766.1M61.6 1781.47L89.33 1809.2M18.57 1809.13L46.3 1781.4M61.67 1766.04L89.39 1738.31M983.26 1845.44L1010.99 1873.17M339.51 1845.44L367.24 1873.17M1026.35 1888.53L1054.08 1916.26M382.6 1888.53L410.33 1916.26M983.33 1916.2L1011.05 1888.47M339.57 1916.2L367.3 1888.47M1026.42 1873.1L1054.15 1845.38M382.67 1873.1L410.39 1845.38M983.41 1738.38L1011.14 1766.1M339.66 1738.38L367.39 1766.1M1026.51 1781.47L1054.23 1809.2M382.76 1781.47L410.48 1809.2M983.48 1809.13L1011.2 1781.4M339.73 1809.13L367.45 1781.4M1026.57 1766.04L1054.3 1738.31M382.82 1766.04L410.55 1738.31M1198.06 1845.44L1225.79 1873.17M554.31 1845.44L582.03 1873.17M1241.15 1888.53L1268.88 1916.26M597.4 1888.53L625.13 1916.26M1198.12 1916.2L1225.85 1888.47M554.37 1916.2L582.1 1888.47M1241.22 1873.1L1268.94 1845.38M597.46 1873.1L625.19 1845.38M1198.21 1738.38L1225.94 1766.1M554.46 1738.38L582.19 1766.1M1241.3 1781.47L1269.03 1809.2M597.55 1781.47L625.28 1809.2M1198.27 1809.13L1226 1781.4M554.52 1809.13L582.25 1781.4M1241.37 1766.04L1269.09 1738.31M597.62 1766.04L625.34 1738.31M661.89 1845.53L689.62 1873.25M704.99 1888.62L732.71 1916.35M661.96 1916.28L689.68 1888.56M705.05 1873.19L732.78 1845.46M876.44 1845.53L904.16 1873.25M232.68 1845.53L260.41 1873.25M919.53 1888.62L947.26 1916.35M275.78 1888.62L303.5 1916.35M876.5 1916.28L904.23 1888.56M232.75 1916.28L260.48 1888.56M919.59 1873.19L947.32 1845.46M275.84 1873.19L303.57 1845.46M1091.23 1845.53L1118.96 1873.25M447.48 1845.53L475.21 1873.25M1134.33 1888.62L1162.05 1916.35M490.57 1888.62L518.3 1916.35M1091.3 1916.28L1119.02 1888.56M447.54 1916.28L475.27 1888.56M1134.39 1873.19L1162.12 1845.46M1308.17 14.38L1335.9 42.11M1351.27 57.47L1378.99 85.2M1308.24 85.13L1335.97 57.41M1351.33 42.04L1379.06 14.31M1522.19 14.38L1549.92 42.11M1565.28 57.47L1593.01 85.2M1522.25 85.13L1549.98 57.41M1565.35 42.04L1593.07 14.31M1414.72 121.44L1442.45 149.17M1457.82 164.54L1485.54 192.26M1414.79 192.2L1442.52 164.47M1457.88 149.11L1485.61 121.38M1414.88 14.38L1442.6 42.11M1457.97 57.47L1485.7 85.2M1414.94 85.13L1442.67 57.41M1458.03 42.04L1485.76 14.31M1629.52 121.44L1657.25 149.17M1672.61 164.54L1700.34 192.26M1629.59 192.2L1657.31 164.47M1672.68 149.11L1700.41 121.38M1629.67 14.38L1657.4 42.11M1672.77 57.47L1700.49 85.2M1629.74 85.13L1657.46 57.41M1672.83 42.04L1700.56 14.31M1307.75 228.6L1335.47 256.32M1307.75 878.84L1335.47 906.56M1350.84 271.69L1378.57 299.42M1350.84 921.93L1378.57 949.66M1307.81 299.35L1335.54 271.62M1307.81 949.59L1335.54 921.86M1350.9 256.26L1378.63 228.53M1350.9 906.5L1378.63 878.77M1307.9 121.53L1335.63 149.26M1350.99 164.62L1378.72 192.35M1307.96 192.29L1335.69 164.56M1351.06 149.19L1378.78 121.47M1522.54 228.6L1550.27 256.32M1522.54 878.84L1550.27 906.56M1565.64 271.69L1593.36 299.42M1565.64 921.93L1593.36 949.66M1522.61 299.35L1550.33 271.62M1522.61 949.59L1550.33 921.86M1565.7 256.26L1593.43 228.53M1565.7 906.5L1593.43 878.77M1522.7 121.53L1550.42 149.26M1565.79 164.62L1593.52 192.35M1522.76 192.29L1550.49 164.56M1565.85 149.19L1593.58 121.47M1414.72 335.98L1442.45 363.71M1414.72 986.22L1442.45 1013.95M1457.82 379.08L1485.54 406.8M1457.82 1029.32L1485.54 1057.04M1414.79 406.74L1442.52 379.01M1414.79 1056.98L1442.52 1029.25M1457.88 363.65L1485.61 335.92M1457.88 1013.89L1485.61 986.16M1414.88 228.92L1442.6 256.65M1414.88 879.16L1442.6 906.89M1457.97 272.01L1485.7 299.74M1457.97 922.25L1485.7 949.98M1414.94 299.67L1442.67 271.95M1414.94 949.91L1442.67 922.19M1458.03 256.58L1485.76 228.85M1458.03 906.82L1485.76 879.09M1629.52 335.98L1657.25 363.71M1629.52 986.22L1657.25 1013.95M1672.61 379.08L1700.34 406.8M1672.61 1029.32L1700.34 1057.04M1629.59 406.74L1657.31 379.01M1629.59 1056.98L1657.31 1029.25M1672.68 363.65L1700.41 335.92M1672.68 1013.89L1700.41 986.16M1629.67 228.92L1657.4 256.64M1629.67 879.16L1657.4 906.88M1672.77 272.01L1700.49 299.74M1672.77 922.25L1700.49 949.98M1629.74 299.67L1657.46 271.95M1629.74 949.91L1657.46 922.19M1672.83 256.58L1700.56 228.85M1672.83 906.82L1700.56 879.09M1307.75 443.14L1335.47 470.86M1307.75 1093.38L1335.47 1121.1M1350.84 486.23L1378.57 513.95M1350.84 1136.47L1378.57 1164.2M1307.81 513.89L1335.54 486.16M1307.81 1164.13L1335.54 1136.4M1350.9 470.8L1378.63 443.07M1350.9 1121.04L1378.63 1093.31M1307.9 336.07L1335.63 363.8M1307.9 986.31L1335.63 1014.04M1350.99 379.16L1378.72 406.89M1350.99 1029.4L1378.72 1057.13M1307.96 406.83L1335.69 379.1M1307.96 1057.07L1335.69 1029.34M1351.06 363.73L1378.78 336.01M1351.06 1013.97L1378.78 986.25M1522.54 443.14L1550.27 470.86M1522.54 1093.38L1550.27 1121.1M1565.64 486.23L1593.36 513.95M1565.64 1136.47L1593.36 1164.19M1522.61 513.89L1550.33 486.16M1522.61 1164.13L1550.33 1136.4M1565.7 470.8L1593.43 443.07M1565.7 1121.04L1593.43 1093.31M1522.7 336.07L1550.42 363.8M1522.7 986.31L1550.42 1014.04M1565.79 379.16L1593.52 406.89M1565.79 1029.4L1593.52 1057.13M1522.76 406.83L1550.49 379.1M1522.76 1057.07L1550.49 1029.34M1565.85 363.73L1593.58 336.01M1565.85 1013.97L1593.58 986.25M1414.88 549.84L1442.6 577.57M1414.88 1200.08L1442.6 1227.81M1457.97 592.94L1485.7 620.66M1457.97 1243.18L1485.7 1270.9M1414.94 620.6L1442.67 592.87M1414.94 1270.84L1442.67 1243.11M1458.03 577.51L1485.76 549.78M1458.03 1227.75L1485.76 1200.02M1415.03 442.78L1442.76 470.51M1415.03 1093.02L1442.76 1120.75M1458.12 485.87L1485.85 513.6M1458.12 1136.11L1485.85 1163.84M1415.09 513.54L1442.82 485.81M1415.09 1163.78L1442.82 1136.05M1458.19 470.44L1485.91 442.72M1458.19 1120.68L1485.91 1092.96M1629.67 549.84L1657.4 577.57M1629.67 1200.09L1657.4 1227.81M1672.77 592.94L1700.49 620.66M1672.77 1243.18L1700.49 1270.9M1629.74 620.6L1657.46 592.87M1629.74 1270.84L1657.46 1243.11M1672.83 577.51L1700.56 549.78M1672.83 1227.75L1700.56 1200.02M1629.83 442.78L1657.55 470.51M1629.83 1093.02L1657.55 1120.75M1672.92 485.87L1700.65 513.6M1672.92 1136.11L1700.65 1163.84M1629.89 513.54L1657.62 485.81M1629.89 1163.78L1657.62 1136.05M1672.98 470.44L1700.71 442.72M1672.98 1120.68L1700.71 1092.96M1307.9 657L1335.63 684.72M1307.9 1307.24L1335.63 1334.96M1350.99 700.09L1378.72 727.82M1350.99 1350.33L1378.72 1378.06M1307.96 727.75L1335.69 700.03M1307.96 1377.99L1335.69 1350.27M1351.06 684.66L1378.78 656.93M1351.06 1334.9L1378.78 1307.17M1308.05 549.93L1335.78 577.66M1308.05 1200.17L1335.78 1227.9M1351.14 593.02L1378.87 620.75M1351.14 1243.26L1378.87 1270.99M1308.12 620.69L1335.84 592.96M1308.12 1270.93L1335.84 1243.2M1351.21 577.59L1378.94 549.87M1351.21 1227.83L1378.94 1200.11M1522.7 657L1550.42 684.72M1522.7 1307.24L1550.42 1334.96M1565.79 700.09L1593.52 727.82M1565.79 1350.33L1593.52 1378.06M1522.76 727.75L1550.49 700.03M1522.76 1377.99L1550.49 1350.27M1565.85 684.66L1593.58 656.93M1565.85 1334.9L1593.58 1307.17M1522.85 549.93L1550.58 577.66M1522.85 1200.17L1550.58 1227.9M1565.94 593.02L1593.67 620.75M1565.94 1243.26L1593.67 1270.99M1522.91 620.69L1550.64 592.96M1522.91 1270.93L1550.64 1243.2M1566 577.59L1593.73 549.87M1566 1227.83L1593.73 1200.11M1414.88 765.38L1442.6 793.11M1457.97 808.47L1485.7 836.2M1414.94 836.14L1442.67 808.41M1458.03 793.04L1485.76 765.32M1415.03 658.32L1442.76 686.04M1415.03 1308.56L1442.76 1336.28M1458.12 701.41L1485.85 729.14M1458.12 1351.65L1485.85 1379.38M1415.09 729.07L1442.82 701.35M1415.09 1379.31L1442.82 1351.59M1458.19 685.98L1485.91 658.25M1458.19 1336.22L1485.91 1308.49M1629.67 765.38L1657.4 793.11M1672.77 808.47L1700.49 836.2M1629.74 836.14L1657.46 808.41M1672.83 793.04L1700.56 765.32M1629.83 658.32L1657.55 686.04M1629.83 1308.56L1657.55 1336.28M1672.92 701.41L1700.65 729.14M1672.92 1351.65L1700.65 1379.38M1629.89 729.07L1657.62 701.35M1629.89 1379.31L1657.62 1351.59M1672.98 685.98L1700.71 658.25M1672.98 1336.22L1700.71 1308.49M1308.05 765.47L1335.78 793.2M1351.14 808.56L1378.87 836.29M1308.12 836.22L1335.84 808.5M1351.21 793.13L1378.94 765.4M1522.85 765.47L1550.58 793.2M1565.94 808.56L1593.67 836.29M1522.91 836.22L1550.64 808.5M1566 793.13L1593.73 765.4M1414.88 1415.62L1442.6 1443.35M1457.97 1458.72L1485.7 1486.44M1414.94 1486.38L1442.67 1458.65M1458.03 1443.29L1485.76 1415.56M1629.67 1415.62L1657.4 1443.35M1672.77 1458.72L1700.49 1486.44M1629.74 1486.38L1657.46 1458.65M1672.83 1443.29L1700.56 1415.56M1308.05 1415.71L1335.78 1443.44M1351.14 1458.8L1378.87 1486.53M1308.12 1486.46L1335.84 1458.74M1351.21 1443.37L1378.94 1415.64M1522.85 1415.71L1550.58 1443.44M1565.94 1458.8L1593.67 1486.53M1522.91 1486.46L1550.64 1458.74M1566 1443.37L1593.73 1415.64M1307.75 1523.19L1335.47 1550.92M1350.84 1566.29L1378.57 1594.01M1307.81 1593.95L1335.54 1566.22M1350.9 1550.86L1378.63 1523.13M1522.54 1523.19L1550.27 1550.92M1565.64 1566.29L1593.36 1594.01M1522.61 1593.95L1550.33 1566.22M1565.7 1550.86L1593.43 1523.13M1414.88 1629.9L1442.6 1657.63M1457.97 1673L1485.7 1700.72M1414.94 1700.66L1442.67 1672.93M1458.03 1657.57L1485.76 1629.84M1415.03 1522.84L1442.76 1550.57M1458.12 1565.93L1485.85 1593.66M1415.09 1593.59L1442.82 1565.87M1458.19 1550.5L1485.91 1522.77M1629.67 1629.9L1657.4 1657.63M1672.77 1673L1700.49 1700.72M1629.74 1700.66L1657.46 1672.93M1672.83 1657.57L1700.56 1629.84M1629.83 1522.84L1657.55 1550.57M1672.92 1565.93L1700.65 1593.66M1629.89 1593.59L1657.62 1565.87M1672.98 1550.5L1700.71 1522.77M1307.9 1737.06L1335.63 1764.78M1350.99 1780.15L1378.72 1807.88M1307.96 1807.81L1335.69 1780.08M1351.06 1764.72L1378.78 1736.99M1308.05 1629.99L1335.78 1657.72M1351.14 1673.08L1378.87 1700.81M1308.12 1700.75L1335.84 1673.02M1351.21 1657.65L1378.94 1629.93M1522.7 1737.06L1550.42 1764.78M1565.79 1780.15L1593.52 1807.88M1522.76 1807.81L1550.49 1780.08M1565.85 1764.72L1593.58 1736.99M1522.85 1629.99L1550.58 1657.72M1565.94 1673.08L1593.67 1700.81M1522.91 1700.75L1550.64 1673.02M1566 1657.65L1593.73 1629.93M1414.88 1845.44L1442.6 1873.17M1457.97 1888.53L1485.7 1916.26M1414.94 1916.2L1442.67 1888.47M1458.03 1873.1L1485.76 1845.38M1415.03 1738.38L1442.76 1766.1M1458.12 1781.47L1485.85 1809.2M1415.09 1809.13L1442.82 1781.4M1458.19 1766.04L1485.91 1738.31M1629.67 1845.44L1657.4 1873.17M1672.77 1888.53L1700.49 1916.26M1629.74 1916.2L1657.46 1888.47M1672.83 1873.1L1700.56 1845.38M1629.83 1738.38L1657.55 1766.1M1672.92 1781.47L1700.65 1809.2M1629.89 1809.13L1657.62 1781.4M1672.98 1766.04L1700.71 1738.31M1308.05 1845.53L1335.78 1873.25M1351.14 1888.62L1378.87 1916.35M1308.12 1916.28L1335.84 1888.56M1351.21 1873.19L1378.94 1845.46M1522.85 1845.53L1550.58 1873.25M1565.94 1888.62L1593.67 1916.35M1522.91 1916.28L1550.64 1888.56M1566 1873.19L1593.73 1845.46M490.64 1873.19L518.36 1845.46" /></g></g></symbol><symbol viewBox="0 0 30 30" id="facebook-outline"><path fill="#222" d="M1,15 C1,22.7331601 7.26736558,29 15,29 C22.7331601,29 29,22.7326344 29,15 C29,7.26683989 22.7326344,1 15,1 C7.26683989,1 1,7.26736558 1,15 Z M0,15 C0,6.71572875 6.71390727,0 15,0 C23.2842712,0 30,6.71390727 30,15 C30,23.2842712 23.2860927,30 15,30 C6.71572875,30 0,23.2860927 0,15 Z M19,9.12 L19,6 L16.16,6 C13.8,6 12.04,8 12.04,10.48 L12.04,12.2 L9,12.2 L9,15.16 L12.04,15.16 L12.04,24 L15.44,24 L15.44,15.16 L19,15.16 L19,12.2 L15.44,12.2 L15.44,10.16 C15.44,9.56 15.8,9.12 16.16,9.12 L19,9.12 Z" /></symbol><symbol viewBox="0 0 143 80" id="gug_logo_typo"><g fill-rule="nonzero" fill="#1A171B"><path d="M106.726019,25.437552 C106.612414,23.0123556 106.531268,20.5871593 106.368975,18.1703546 C106.117422,14.452839 105.922671,10.7185401 105.338417,7.02619962 C105.200468,6.18703132 105.176124,5.49052164 106.304058,5.34786303 C107.431992,5.20520442 108.397634,4.84436205 108.819595,6.18703132 C109.186666,7.34701445 109.442162,8.54162357 109.58237,9.75349658 C110.350555,16.5004097 111.083577,23.2473228 111.781436,29.9942359 C112.014867,31.3830359 111.851297,32.8120977 111.310787,34.1061605 C110.263999,36.3131731 108.405748,36.5145735 106.977573,34.4670029 C105.432578,32.08526 104.155714,29.5288073 103.17181,26.8473548 C101.910191,23.6351135 100.110974,20.6779654 97.8567255,18.1116128 C97.4347646,19.0430896 97.7836938,19.8822579 97.8567255,20.7214262 C97.9297572,21.5605945 98.0514767,22.5424214 98.2137693,23.4403315 C98.9765448,27.7788316 99.658174,32.1257233 100.096364,36.5061818 C100.161281,37.1439497 100.453408,37.9915097 99.5283399,38.1845184 C98.6032717,38.3775271 97.4753378,38.8390697 96.7774793,37.6978008 C96.3960829,37.0797752 96.1470626,36.3844648 96.0471624,35.6586219 C95.1788966,28.5592581 93.4748237,21.5773779 93.3612189,14.3773139 C93.391047,13.4007211 93.3720876,12.4231869 93.3044164,11.4486165 C93.1595308,10.8730365 93.2518718,10.261097 93.5594479,9.75853474 C93.8670241,9.25597246 94.3623072,8.90776677 94.927343,8.79684472 C96.298716,8.37726057 97.0209183,9.18286214 97.5402548,10.3409144 C99.9746447,15.7199832 104.145566,19.9661747 106.231027,25.5382522 L106.726019,25.437552 Z" transform="translate(-1)" /><path d="M52.70307,65.1097779 C53.7616763,61.3257318 54.8465291,57.549984 55.8438937,53.7493413 C56.3863201,51.6996496 56.8587559,49.6001679 57.2262061,47.5338796 C57.4274288,46.4136028 57.8211253,45.965492 59.098452,46.1812491 C60.3757786,46.3970061 61.2331622,46.6459565 61.1106788,48.0400787 C61.0231907,49.0026869 60.9794467,49.9735935 60.8132192,50.9279034 C59.6408783,57.7989344 57.6374003,64.5039986 56.2463391,71.3335379 C56.0506187,72.5953595 55.4592387,73.7721571 54.5490694,74.710965 C52.6680747,76.5448996 50.7170895,76.1299823 49.90345,73.63218 C49.130056,70.8963089 48.672431,68.0888149 48.5386352,65.2591481 C48.3122932,61.792295 47.4074117,58.3957166 45.8702474,55.2430437 C45.2271186,57.0538655 44.7987003,58.9270162 44.5929208,60.827831 C43.9367598,64.9770043 43.2543524,69.2008628 42.2832343,73.3417378 C42.1257556,73.9973072 42.1869973,75.0014072 41.0409029,74.8022468 C39.8948084,74.6030865 38.608733,74.6777716 38.4162591,73.2006659 C38.302494,72.5439676 38.302494,71.8740594 38.4162591,71.2173611 C39.8510644,64.5288936 40.2972538,57.6495642 42.4932058,51.0938703 C42.8956511,49.8823117 43.3155941,48.6790514 43.6130538,47.4425978 C43.7844434,46.3709297 44.812075,45.6152478 45.9489867,45.72484 C46.5000938,45.6787227 47.0466401,45.8517757 47.4580308,46.2026488 C47.8694215,46.553522 48.1087002,47.0506952 48.1186922,47.5753713 C48.8185972,53.384214 51.5569755,58.7864377 52.1256484,64.6367721 C52.1704629,64.8035789 52.2350315,64.9650405 52.3181222,65.1180762 L52.70307,65.1097779 Z" transform="rotate(-5 49.227 72.231)" /><path d="M128.267802 51.8743973C128.34593 53.7989903 128.637224 55.7093869 129.136489 57.5715241 130.083357 61.9064807 131.012852 66.2414373 131.646994 70.6363636 131.751236 71.3302993 132.142145 72.2469799 131.004165 72.4611576 129.866186 72.6753353 128.702145 73.1722275 127.981135 71.8014903 127.645832 71.2005244 127.402847 70.5537982 127.260125 69.8824581 126.130832 62.9173994 124.002549 56.1236829 123.620327 49.0301175 123.550832 47.7279171 123.498711 46.4085825 123.324974 45.1149492 123.094961 44.0194473 123.780293 42.9395425 124.879923 42.6647564 125.376168 42.4333671 125.947752 42.4164428 126.457179 42.6180548 126.966606 42.8196667 127.367768 43.2215668 127.564165 43.7270778 130.361337 49.1072215 134.904569 53.3650741 137.588812 58.8223218 137.799744 59.0914728 138.035278 59.3409651 138.292448 59.5676602 138.049216 56.7833502 137.884165 54.4273955 137.614872 52.0114711 137.180529 48.1648396 136.833054 44.301074 136.033862 40.4972781 135.834064 39.5206278 135.834064 38.8438263 137.09366 38.6125144 138.222953 38.4154709 139.291438 38.1241892 139.760529 39.4692251 140.143739 40.5864133 140.434257 41.7324662 140.629216 42.8960683 141.735344 49.8011572 142.806724 56.7148133 143.843357 63.6370365 144.131838 64.984573 144.020243 66.3855623 143.521943 67.6721443 142.453458 70.0795016 140.472852 70.3365148 138.804973 68.1947378 137.083894 65.8172999 135.627672 63.2638321 134.461539 60.5785789 132.954967 57.3275418 130.855534 54.3771672 128.267802 51.8743973zM93.2276554 65.136146C94.1120631 60.1724938 94.9791294 55.203233 95.8288544 50.2283636 96.0282797 49.0841997 96.1670103 47.9316228 96.3230822 46.779046 96.4791541 45.6264691 97.1034419 44.6505646 98.2913227 44.6758035 99.4792036 44.7010425 99.4531916 45.8872712 99.4531916 46.7958719 99.4011676 51.5828517 98.1786041 56.235224 97.4676097 60.9380741 96.6005434 66.3812655 95.5774052 71.7823921 95.5600638 77.3181262 95.5600638 78.2856177 95.6641118 79.6401058 94.3375003 79.9429727 93.0108889 80.2458396 92.2305292 79.2867611 91.4241575 78.3781603 88.9183358 75.5261636 88.7449226 71.8665218 87.6610897 68.5013339 85.8142384 62.8141663 85.1726093 56.8914356 84.4269323 50.9939438 84.3440603 50.3870844 84.2224371 49.7858026 84.0627644 49.1935683 83.6899259 47.7549505 83.9500458 46.6023736 85.6061425 46.1901381 86.3227805 45.9379706 87.1173527 46.0035105 87.7798367 46.369434 88.4423208 46.7353576 88.9060298 47.3648303 89.0483958 48.0914693 90.2449473 53.4757699 91.4154868 58.8684835 92.6033677 64.2611971 92.6640623 64.5388251 92.7681103 64.8164531 92.8461463 65.1024941L93.2276554 65.136146zM112.091309 78.9350087C108.75877 79.0270559 108.650979 79.0437918 108.27371 75.930923 107.375452 68.1822226 105.650795 60.5339374 104.743554 52.7768691 104.492042 50.6346798 103.845296 48.5008585 103.647679 46.3335654 103.566836 45.5971878 103.44108 44.7938668 104.545937 44.65998 108.327606 44.1160648 112.082327 43.2541683 115.971786 43.8231873 117.23833 43.9989138 118.037781 44.316895 118.055746 45.6808671 118.073711 47.0448392 117.157487 47.1285185 116.034664 47.3042449 114.07646 47.6054903 112.118257 47.2121977 110.169036 47.4381318 108.004233 47.6891696 107.878477 47.9485753 108.23778 49.8564626 108.992317 53.8144921 110.411566 57.6386347 110.932556 61.6385038 111.130172 63.1614665 111.767936 63.3120891 114.04053 62.4752965 115.908908 61.8142302 117.157487 62.3832493 117.579669 64.0400988 117.777286 64.8768915 117.705425 65.4459105 116.807166 65.8392031 115.908908 66.2324956 114.875911 67.1780714 113.887826 67.2282789 111.965553 67.3119582 111.848779 68.1989585 112.091309 69.5378268 112.100463 69.6604082 112.100463 69.7834341 112.091309 69.9060156 112.324856 72.8682617 112.567386 73.0690919 115.594517 72.1653558 116.896992 71.7720633 118.289293 71.7051199 119.519907 71.0524216 120.418166 70.5838176 121.208633 70.7009686 121.208633 72.0816766 121.208633 75.4790549 120.786452 75.9811305 117.426965 77.4371498 115.729256 78.2237349 114.04053 79.0605276 112.091309 78.9350087zM76.6353498 34.0291619C76.282661 27.1334223 75.3783305 20.2796275 75.125118 13.3754989 75.0527715 11.3537553 74.7000827 9.2816778 74.591563 7.21798929 74.591563 6.55526006 74.5101733 5.75830718 75.4958935 5.6744174 79.402601 5.35563625 83.3093085 4.77679679 87.2521893 5.6744174 88.4278188 5.93447571 89.1874564 6.28681277 89.1422399 7.54515942 89.0789367 8.97128563 88.165563 9.07195336 86.9085437 9.15584313 84.8466703 9.29845575 82.8571433 8.76156118 80.8043132 8.86222892 79.2488648 8.93772971 78.6520067 9.38234553 78.869046 11.0181962 79.4116443 15.0784614 80.4697109 19.0716147 80.6777069 23.1738248 80.76814 25.1787905 82.2693285 24.60834 83.3906982 24.230836 84.8014537 23.7526643 86.0222998 23.7191084 86.7819374 25.0697338 87.3878388 26.1351339 87.6862679 27.242479 85.9951699 27.8884303 84.7381506 28.374991 83.5986943 29.1635549 82.1336789 29.0628871 82.0613325 29.0628871 81.9799428 29.0628871 81.9347262 29.0628871 80.3973645 30.1282873 81.4735177 31.6215253 81.3016949 32.9637618 81.1931753 33.8026595 81.4735177 34.4066659 82.640104 34.2137194 84.5302272 34.0106899 86.4013659 33.6769992 88.2379094 33.2154311 89.7662279 32.7204814 90.2364797 33.0392626 90.1098735 34.5157226 89.8385743 37.7287011 89.2688461 38.1062051 86.0765597 39.3393848 83.7731827 40.1732113 81.3136573 40.5724855 78.8419161 40.5138417 77.3497709 40.5138417 76.8162159 40.0776148 76.7981293 38.7941012 76.7800427 37.2001955 76.6896097 35.6146787 76.6353498 34.0291619zM11.3956835 18.9002338C11.5700886 15.2418918 12.6468312 11.6659239 14.5463408 8.43659158 15.811622 6.39841629 17.9516676 4.92948413 20.4549389 4.38091632 24.6855665 3.34266345 28.0415074 6.00318642 27.9701044 10.1643092 27.8849757 10.630543 27.8520811 11.1034195 27.8719253 11.5756842 28.2824926 13.3601813 27.1935968 13.7333035 25.5691786 13.7981943 23.7127007 13.8630851 23.0879244 13.3115132 23.3289096 11.6567977 23.4270887 10.9592216 23.4806409 10.2454227 23.5877454 9.5478466 23.7882709 8.77529289 23.3977691 7.97596871 22.6327303 7.59301112 21.8886329 7.18613485 20.9442273 7.24443261 20.267506 7.73901543 19.2188168 8.22395281 18.4163642 9.05781498 18.0272369 10.066973 16.2957142 15.4204644 14.9479826 20.7820671 17.0632964 26.2896741 18.0094653 28.5097494 20.7202968 29.6501032 23.1950289 28.8690835 23.6137369 28.6873915 23.8683241 28.2921379 23.8376559 27.8713874 23.9663076 26.4848708 23.9303993 25.0897979 23.7305514 23.7102646 23.4627902 22.4530053 22.1596855 23.0694679 21.2849987 23.1343587 19.4999238 23.2722517 18.7858938 22.631455 19.1786103 21.1551892 19.3214163 20.6360628 19.6159536 20.2791633 20.2407299 20.3440541 21.7880869 20.3229777 23.3299166 20.1709084 24.8462233 19.8898185 26.5241937 19.7275915 27.2828506 20.4819471 27.434582 21.8608767 27.7594109 23.6046815 27.8909748 25.3736975 27.8272985 27.1413659 27.5506118 29.4287667 27.0954177 31.8459492 24.150044 32.8193112 23.7898699 32.9545839 23.4459277 33.1231019 23.1236259 33.322215 20.3121329 34.9444851 17.8755056 34.4740268 15.5102812 32.2434054 12.9486987 29.8100002 12.2971463 26.7925778 11.7348477 23.718376 11.5127261 22.1202082 11.3994557 20.5110961 11.3956835 18.9002338z" transform="translate(-1)" /><path d="M3.36073626,49.74562 C5.01956898,46.2831585 7.45828338,43.2268314 10.4967306,40.8024109 C12.4794371,39.3269476 15.0027043,38.7143842 17.4671769,39.1102237 C21.701723,39.6686455 23.6273088,43.4337619 21.8237058,47.4357845 C21.5516262,47.8509269 21.3266778,48.2934791 21.1528004,48.7556905 C20.786852,50.6509401 19.6018761,50.532487 18.1729346,50.007909 C16.4738883,49.4156435 16.1689313,48.6456984 17.0750893,47.1227299 C17.4236116,46.5304644 17.7372817,45.921277 18.085804,45.3374725 C18.6562323,44.6385921 18.6562323,43.6503689 18.085804,42.9514886 C17.5636067,42.3079074 16.6930903,42.0339279 15.8814004,42.2576918 C14.6693731,42.3551145 13.5499786,42.9260967 12.7795518,43.8398868 C9.24205031,48.2734172 5.80910552,52.7323303 5.43444403,58.6719073 C5.26889593,61.4555552 6.82853328,63.3846485 9.6777032,63.6892422 C10.0577982,63.7369921 10.428768,63.5518244 10.6100004,63.2238907 C11.5846308,61.849405 12.2060706,60.2682297 12.4223164,58.6126807 C12.6140037,57.5804466 11.1153577,57.5804466 10.244052,57.3266185 C8.7889713,56.8951108 8.50144039,56.1082437 9.29432866,54.8560252 C9.52304382,54.3211214 10.1548597,54.067376 10.705844,54.2891425 C12.0737941,54.7291112 13.4678834,55.1352361 14.8619726,55.5075173 C16.5000275,55.9728688 17.022811,56.861267 16.5261667,58.4011573 C16.0970263,60.2081947 15.4810839,61.9685368 14.6877115,63.6553985 C13.4853095,65.7537105 12.0737941,67.8858664 9.0155108,67.7504914 C8.70256781,67.7198888 8.38649541,67.7457051 8.08321361,67.8266398 C4.98136502,68.8419521 2.59398717,66.7097963 1.43515047,63.841539 C0.163044029,60.68561 0.903653946,57.5381419 1.61812469,54.4414394 C2.09929712,52.8429514 2.68126649,51.2747172 3.36073626,49.74562 Z" transform="rotate(-3 11.122 72.632)" /><path d="M34.295181 23.0648597C34.4346464 17.971543 35.5700971 12.9485532 37.6425758 8.2567046 37.8125986 7.86202942 38.0239903 7.48492187 38.2734984 7.13118402 40.692035 3.51943887 42.8652128 3.34305132 45.7043644 6.58522254 47.6322014 8.63164067 48.9992731 11.1051941 49.6826818 13.7835146 50.0945341 15.6229848 50.7780335 17.4036592 51.181123 19.2515288 52.7805764 25.7624165 51.2356514 32.61754 46.9749724 37.9150118 46.2988498 38.7351264 45.4587294 39.4176149 44.5038589 39.9224702 43.1504553 40.8201722 41.3277295 40.6943785 40.1224521 39.6200915 36.8724276 37.0902771 34.8327598 33.4044211 34.4704373 29.4064122 34.1650389 27.3054753 34.1062533 25.1783483 34.295181 23.0648597zM41.4806882.00848661737C40.4111505-.0889079183 39.4617391.663189604 39.3600873 1.68836808 39.2461707 2.60390348 39.9471958 2.98187681 40.8234772 2.95667858 41.8849109 3.04880501 42.8390516 2.33624755 43.0054178 1.32719357 43.0022493.952972298 42.8354186.597194302 42.5455495.346492539 42.2556804.0957907767 41.8693708-.0268307626 41.4806882.00848661737zM46.9574468.739235054C46.4441554.716463513 45.943099.893778575 45.5683875 1.2307987 45.193676 1.56781883 44.9772103 2.03585198 44.9682881 2.52830881 44.9069484 3.29265488 45.301275 3.95620805 46.1600307 3.82181754 47.1675439 3.72055641 48.0424394 3.11240244 48.4558879 2.22593015 48.4388144 1.43103441 47.7856528.782992803 46.9574468.739235054zM44.170872 11.7676569C43.9956157 10.9277161 43.8028338 9.70980206 42.6461424 9.71820147 41.6647073 9.71820147 41.4631626 10.8521215 41.1389385 11.6248669 40.1964199 14.0866367 39.5610811 16.6466518 39.2461707 19.2515288 38.5626713 23.8460046 37.9755627 28.4908768 40.1224521 32.9257639 40.4817275 33.6733111 40.6482209 34.7652341 41.8750148 34.5300507 43.1018087 34.2948673 44.5038589 34.1100803 44.8718971 32.4553971 45.3100378 30.4647375 45.2837494 28.4488798 45.6605503 25.6770754 46.2564217 21.4605729 45.204884 16.6225143 44.170872 11.7676569zM80.8055399 64.6697761C79.814254 68.8848916 79.3968705 73.4116305 76.1099753 76.9706968 75.7795467 77.3233232 75.4752046 77.7169527 75.127385 78.0531779 72.4230876 80.6773743 70.1970422 80.6445718 67.5449178 77.9793723 64.0058535 74.4367072 63.1363045 69.9673727 63.1971729 65.2602203 63.2077203 59.5837535 64.4475279 53.9691311 66.8405832 48.7605854 66.9884065 48.4407614 67.1275343 48.1045363 67.3101396 47.792913 69.570967 43.905822 72.2578733 43.6434024 75.1360805 47.0630583 76.979687 49.1176244 78.2605895 51.5674227 78.8664456 54.1975923 79.3446976 56.5921716 80.0577277 58.9375471 80.6055436 61.3239257 80.7432808 62.4344187 80.8100669 63.5517197 80.8055399 64.6697761zM73.3795915 51.975226C73.2230727 51.1551646 73.0578584 49.9660756 71.9100537 49.957875 70.9274634 49.957875 70.7100761 51.0485566 70.370952 51.7948125 69.3741473 54.1697595 68.6766265 56.6469197 68.29273 59.1753649 67.5188314 63.6446994 66.8405832 68.1468364 68.8492413 72.5341648 69.1796699 73.27222 69.3361887 74.3382998 70.5100799 74.1742875 71.683971 74.0102753 73.1187268 73.8052599 73.5187194 72.1979396 73.9969713 70.2625948 74.0143623 68.2944474 74.4491368 65.5800443 75.3099903 61.4715368 74.3013134 56.7233814 73.3795915 51.975226zM132.993471 18.1151024C132.993471 14.75797 132.993471 14.75797 130.110751 14.4642209 129.429381 14.3886855 128.363648 14.6908274 128.197673 13.7256518 128.031698 12.7604762 128.879043 12.3324419 129.708917 11.879229 132.21601 10.486019 135.00264 9.77262841 137.649501 8.73191737 139.562579 7.97656258 139.711082 9.91530654 140.348775 10.8553036 140.986468 11.7953007 139.938206 12.0470856 139.283042 12.3492275 135.919869 13.9102941 136.243083 13.8851156 136.452735 17.4688544 136.627445 20.6077732 138.846266 21.4302707 141.065087 22.504553 141.458185 22.6975881 141.938639 22.8150878 142.305531 22.9745516 144.218608 23.7215135 144.568029 25.6266861 143.06552 27.0198961 142.471505 27.5654301 141.851284 27.1961455 141.27474 27.0198961 139.938206 26.6338259 138.505581 25.6602575 137.317551 25.8952567 136.129521 26.130256 136.199405 28.1109641 135.404473 29.1936393 133.412776 31.9129166 130.163164 33.5998756 126.520454 30.6707776 122.37982 27.372395 121.017079 23.1172297 123.026248 18.3417089 123.410611 17.5024258 123.192223 17.0995699 122.47591 16.596 119.821165 14.8314456 118.199306 11.958061 118.108153 8.85780983 117.8985 4.98871475 122.161432 1.30426194 126.127356 2.21908052 127.139851 2.3484441 128.106438 2.70496105 128.948927 3.25979156 129.763645 3.84201025 130.037787 4.89556209 129.604091 5.77764086 129.193522 6.75960209 128.302499 6.18049675 127.612393 6.0042473 124.790822 5.28246383 123.803709 5.50067744 122.799124 7.11210099 121.845349 8.96236663 122.291854 11.1965426 123.891064 12.575834 126.459305 15.0936833 130.023396 15.9329664 132.993471 18.1151024zM127.114469 20.3056313C126.095087 22.2341424 126.124463 24.5202607 127.193089 26.4240051 128.0833 27.7476834 129.725654 28.4134752 131.333723 28.1025713 132.495547 27.8423935 132.565431 26.3484696 132.879909 25.2154374 133.412776 23.3102648 132.879909 22.11009 130.984302 21.3463423 130.110751 20.9854506 129.33329 20.4567023 128.494681 20.0286679 128.194325 19.9035902 127.884843 19.7998013 127.568716 19.7181331 127.402741 19.9279539 127.245502 20.1293819 127.114469 20.3056313zM60.7795194 25.7655154C60.7795194 28.68348 60.8860763 31.5928623 60.8505573 34.5022446 60.8505573 35.5063677 60.9482345 36.6821357 59.3143619 36.8451985 57.8136856 36.9910967 57.0233885 36.656389 56.9878696 35.0085972 56.9079519 31.5756978 57.3608187 28.1427983 57.3696985 24.7098988 57.3696985 19.7751058 57.0855467 14.8488951 57.31642 9.90551986 57.5206541 5.61439553 58.8970141 4.56736119 63.3812838 5.51999079 68.1141862 6.53269613 69.5171854 8.48944883 69.3839893 14.2138087 69.338868 16.3316538 69.107157 18.4419345 68.6913694 20.5217615 68.362819 22.1180597 67.5636422 23.1994231 65.9475292 23.5255485 64.5622894 23.7915982 64.8198019 24.3408621 65.3792257 25.1733403 67.5991612 28.4603415 69.70366 31.8160007 72.0123929 35.0429262 72.9891645 36.416086 72.420861 37.2743109 71.4085705 38.0467133 70.2453243 38.9049381 69.3573501 38.2355227 68.6824897 37.2657286 66.9486511 34.8715688 65.4615958 32.3190389 64.2426187 29.6446918 63.5272695 28.0389243 62.3182493 26.6846453 60.7795194 25.7655154zM62.0493225 20.4445212C63.6986419 20.6585118 65.2631136 19.6784067 65.7344154 18.1358963 66.2001801 15.5461488 65.8345281 12.8806608 64.6866058 10.497695 64.233739 9.45924293 63.4256825 9.45066068 62.4577906 9.53648317 61.3300634 9.63088791 61.3389431 10.394708 61.3211836 11.1585282 61.2590254 13.5186466 61.2590254 15.8873472 61.2323862 18.2560478 61.6142151 18.9683745 60.655203 20.1784715 62.0493225 20.4445212zM33.2516782 72.5627061C32.6270205 73.6199311 32.0991407 74.5756625 31.492079 75.5060205 31.3086801 75.7924656 30.9414634 75.9160217 30.6122793 75.8020435 30.0140155 75.6667187 29.8820456 75.2184553 29.7852676 74.6940717 29.4597418 72.8502713 29.7852676 71.0149287 29.8820456 69.1880439 29.8820456 68.0377831 29.6357017 67.6994711 28.4831642 68.0631565 27.5808786 68.381357 26.6114239 68.4829735 25.6590073 68.3591795 24.7352177 68.2153969 24.2601259 68.7566961 23.899408 69.4840669 23.3099422 70.7104479 22.6764865 71.9114555 22.0958187 73.1378365 21.8745588 73.7600773 21.2246592 74.1434587 20.5473714 74.0512789 17.6176385 73.8905807 17.0281728 72.8333557 18.1279223 70.0084505 20.8289072 63.2422105 24.4184898 56.881945 27.8057184 50.4032702 28.773498 48.5425542 29.5125297 46.563429 30.8498252 44.8972424 31.280927 44.3559432 31.5712609 43.4255852 32.5566365 43.6793192 33.512327 43.9711913 34.1226662 44.8689725 34.0171039 45.8276004 34.0874879 48.5848432 34.2282559 51.342086 34.1754679 54.0993288 34.0083059 60.2904383 32.7325965 66.4392589 33.2516782 72.5627061zM29.9964196 53.2958378C28.6767201 56.6197532 27.1106767 59.8590906 26.354049 63.3775353 26.2660691 63.8004253 25.7381893 64.2656043 26.354049 64.6800365 26.9699088 65.0944687 30.3043494 64.0287859 30.3923294 63.2591261 30.9886876 58.9015489 31.3528138 54.5175009 31.483281 50.1241628 30.3835314 51.215219 30.3747334 52.3401064 29.9964196 53.2958378z" transform="translate(-1)" /></g></symbol><symbol viewBox="0 0 580 580" id="hand"><path d="M315.12,130.15h31m-170.74,0h31.05M222,99.1,206.47,83.58M299.6,99.1l15.52-15.52M260.79,99.1v-31m32,419.09h37.84A93.12,93.12,0,0,0,423.77,394V262.09a23.28,23.28,0,1,0-46.56,0V246.56a23.29,23.29,0,0,0-46.57,0v0a23.28,23.28,0,1,0-46.56,0V153.43a23.29,23.29,0,0,0-46.57,0V363l-35.7-61a23.53,23.53,0,0,0-39,26L211,438.62A93.12,93.12,0,0,0,292.8,487.15Z" fill="none" stroke="#cd0f2d" stroke-linecap="round" stroke-linejoin="round" stroke-width="9" /></symbol><symbol viewBox="0 0 30 30" id="instagram-outline"><g fill="#222"><path d="M1,15 C1,22.7331601 7.26736558,29 15,29 C22.7331601,29 29,22.7326344 29,15 C29,7.26683989 22.7326344,1 15,1 C7.26683989,1 1,7.26736558 1,15 Z M0,15 C0,6.71572875 6.71390727,0 15,0 C23.2842712,0 30,6.71390727 30,15 C30,23.2842712 23.2860927,30 15,30 C6.71572875,30 0,23.2860927 0,15 Z" /><path d="M23.94586,11.28931 C23.9309065,10.5426888 23.7894582,9.80400855 23.52753,9.10468 C23.3015394,8.50414041 22.9472753,7.96012249 22.48944,7.51056 C22.0398775,7.05272475 21.4958596,6.6984606 20.89532,6.47247 C20.1959915,6.21054181 19.4573112,6.06909355 18.71069,6.05414 C17.75073,6.01038 17.44427,6 15,6 C12.55573,6 12.24927,6.01038 11.28931,6.05414 C10.5426888,6.06909355 9.80400855,6.21054181 9.10468,6.47247 C8.50414041,6.6984606 7.96012249,7.05272475 7.51056,7.51056 C7.05272475,7.96012249 6.6984606,8.50414041 6.47247,9.10468 C6.21054181,9.80400855 6.06909355,10.5426888 6.05414,11.28931 C6.01038,12.24927 6,12.55573 6,15 C6,17.44427 6.01038,17.75073 6.05414,18.71069 C6.06909355,19.4573112 6.21054181,20.1959915 6.47247,20.89532 C6.6984606,21.4958596 7.05272475,22.0398775 7.51056,22.48944 C7.96010612,22.9472953 8.50412874,23.3015625 9.10468,23.52753 C9.80400855,23.7894582 10.5426888,23.9309065 11.28931,23.94586 C12.24927,23.98969 12.55573,24 15,24 C17.44427,24 17.75073,23.98969 18.71069,23.94586 C19.4573112,23.9309065 20.1959915,23.7894582 20.89532,23.52753 C22.1042544,23.0599688 23.0599588,22.1042644 23.52752,20.89533 C23.7894482,20.1960015 23.9308965,19.4573212 23.94585,18.7107 C23.98962,17.75073 24,17.44427 24,15 C24,12.55573 23.98962,12.24927 23.94586,11.28931 Z M22.32593,18.63678 C22.3191752,19.2074749 22.2143342,19.7727584 22.01599,20.30792 C21.7132468,21.0928479 21.0928462,21.7132522 20.30792,22.016 C19.7727565,22.2143373 19.2074742,22.319178 18.63678,22.32594 C17.68787,22.3692 17.40326,22.37836 15,22.37836 C12.59674,22.37836 12.31213,22.3692 11.36322,22.32593 C10.7925264,22.3191712 10.2272441,22.2143339 9.69208,22.016 C9.30115027,21.8717562 8.94752965,21.6417088 8.65723,21.34278 C8.3582963,21.0524785 8.12824542,20.6988542 7.984,20.30792 C7.78565581,19.7727584 7.68081482,19.2074749 7.67406,18.63678 C7.6308,17.68774 7.62164,17.40314 7.62164,15 C7.62164,12.59686 7.6308,12.31226 7.67407,11.36322 C7.68082875,10.7925264 7.78566614,10.2272441 7.984,9.69208 C8.12824383,9.30115027 8.35829116,8.94752965 8.65722,8.65723 C8.94752151,8.3582963 9.30114575,8.12824542 9.69208,7.984 C10.2272435,7.78566272 10.7925258,7.68082196 11.36322,7.67406 C12.31226,7.6308 12.59686,7.62164 15,7.62164 C17.40314,7.62164 17.68774,7.6308 18.63678,7.67407 C19.2074742,7.68083196 19.7727565,7.78567272 20.30792,7.98401 C20.6988497,8.12825383 21.0524704,8.35830116 21.34277,8.65723 C21.6417025,8.94752863 21.8717533,9.30114933 22.016,9.69208 C22.2143373,10.2272435 22.319178,10.7925258 22.32594,11.36322 C22.36921,12.31222 22.37837,12.59692 22.37837,15 C22.37837,17.40308 22.3692,17.68774 22.32593,18.63678 L22.32593,18.63678 Z M15,10.37836 C12.4475387,10.37836 10.37836,12.4475387 10.37836,15 C10.37836,17.5524613 12.4475387,19.62164 15,19.62164 C17.5524613,19.62164 19.62164,17.5524613 19.62164,15 C19.6216124,12.4475501 17.5524499,10.3783876 15,10.37836 L15,10.37836 Z M15,18 C13.3431458,18 12,16.6568542 12,15 C12,13.3431458 13.3431458,12 15,12 C16.6568542,12 18,13.3431458 18,15 C18,15.7956495 17.6839295,16.5587112 17.1213203,17.1213203 C16.5587112,17.6839295 15.7956495,18 15,18 Z M20.88422,10.1958 C20.88422,10.7922675 20.4006875,11.2758 19.80422,11.2758 C19.2077525,11.2758 18.72422,10.7922675 18.72422,10.1958 C18.72422,9.59933247 19.2077525,9.1158 19.80422,9.1158 C20.4006875,9.1158 20.88422,9.59933247 20.88422,10.1958 L20.88422,10.1958 Z" /></g></symbol><symbol viewBox="0 0 30 30" id="mail-outline"><path fill="#222" fill-rule="evenodd" d="M1,15 C1,22.7331601 7.26736558,29 15,29 C22.7331601,29 29,22.7326344 29,15 C29,7.26683989 22.7326344,1 15,1 C7.26683989,1 1,7.26736558 1,15 Z M0,15 C0,6.71572875 6.71390727,0 15,0 C23.2842712,0 30,6.71390727 30,15 C30,23.2842712 23.2860927,30 15,30 C6.71572875,30 0,23.2860927 0,15 Z M21.625,9 L8.625,9 C7.73125,9 7.008125,9.73125 7.008125,10.625 L7,20.375 C7,21.26875 7.73125,22 8.625,22 L21.625,22 C22.51875,22 23.25,21.26875 23.25,20.375 L23.25,10.625 C23.25,9.73125 22.51875,9 21.625,9 L21.625,9 Z M21.625,20.375 L8.625,20.375 L8.625,12.25 L15.125,16.3125 L21.625,12.25 L21.625,20.375 L21.625,20.375 Z M15.125,14.6875 L8.625,10.625 L21.625,10.625 L15.125,14.6875 L15.125,14.6875 Z" /></symbol><symbol viewBox="0 0 500 500" id="search"><path class="st0" d="M470.5 471.5L368.9 335.4c67.1-69.1 77.2-178.9 18.3-258.1C348.5 28.5 289.6 0 226.6 0c-42.7 0-83.3 14.2-117.9 40.7-87.4 65-105.7 189-38.6 276.4 38.6 50.8 95.5 79.3 158.5 79.3 36.6 0 73.2-10.2 103.7-30.5L433.9 500l36.6-28.5zM106.7 288.6C55.9 221.5 70.1 128 137.2 77.2c26.4-20.3 56.9-30.5 91.5-30.5 48.8 0 91.5 22.4 119.9 61 50.8 67.1 36.6 160.6-30.5 211.4-26.4 20.3-56.9 30.5-91.5 30.5-46.8 0-91.5-22.4-119.9-61z" /></symbol></defs><use id="chevron-down-usage" xlink:href="#chevron-down" class="sprite-symbol-usage" /><use id="close-usage" xlink:href="#close" class="sprite-symbol-usage" /><use id="cross-usage" xlink:href="#cross" class="sprite-symbol-usage" /><use id="facebook-outline-usage" xlink:href="#facebook-outline" class="sprite-symbol-usage" /><use id="gug_logo_typo-usage" xlink:href="#gug_logo_typo" class="sprite-symbol-usage" /><use id="hand-usage" xlink:href="#hand" class="sprite-symbol-usage" /><use id="instagram-outline-usage" xlink:href="#instagram-outline" class="sprite-symbol-usage" /><use id="mail-outline-usage" xlink:href="#mail-outline" class="sprite-symbol-usage" /><use id="search-usage" xlink:href="#search" class="sprite-symbol-usage" /></svg>