<svg width="470" height="416" fill="none" xmlns="http://www.w3.org/2000/svg"><path d="M1.984 349.096a1.15 1.15 0 01-.848-.336 1.205 1.205 0 01-.336-.864c0-.341.112-.624.336-.848.224-.235.507-.352.848-.352.341 0 .624.117.848.352.224.224.336.507.336.848 0 .341-.112.629-.336.864a1.15 1.15 0 01-.848.336zm7.52-8.112c.673 0 1.27.171 1.793.512.533.341.944.827 1.232 1.456.298.619.448 1.333.448 2.144 0 .811-.15 1.52-.448 2.128-.288.608-.694 1.077-1.216 1.408-.523.331-1.126.496-1.808.496-.555 0-1.05-.117-1.488-.352a2.472 2.472 0 01-1.008-.976v3.264c0 .277-.09.496-.272.656-.182.16-.422.24-.72.24-.299 0-.544-.085-.736-.256a.881.881 0 01-.272-.672v-9.072c0-.288.085-.517.256-.688.181-.171.421-.256.72-.256.298 0 .538.085.72.256.181.171.272.4.272.688v.4c.234-.437.57-.773 1.008-1.008a3.116 3.116 0 011.52-.368zm-.527 6.592c.63 0 1.12-.213 1.472-.64.352-.437.528-1.051.528-1.84 0-.811-.176-1.44-.528-1.888-.352-.448-.843-.672-1.472-.672-.64 0-1.136.219-1.488.656-.342.437-.512 1.061-.512 1.872 0 .8.17 1.419.512 1.856.352.437.848.656 1.488.656zm11.817-6.56c.31 0 .555.085.736.256.181.171.272.4.272.688v6.208a.857.857 0 01-.288.672c-.181.171-.421.256-.72.256-.288 0-.517-.08-.688-.24-.17-.16-.256-.379-.256-.656v-.4a2.606 2.606 0 01-.992.992 2.922 2.922 0 01-1.408.336c-1.92 0-2.88-1.077-2.88-3.232v-3.936c0-.288.09-.517.272-.688.181-.171.421-.256.72-.256.31 0 .555.085.736.256.182.171.272.4.272.688v3.952c0 .555.112.965.336 1.232.224.267.576.4 1.056.4.555 0 .997-.181 1.328-.544.341-.373.512-.864.512-1.472v-3.568c0-.288.09-.517.272-.688.181-.171.421-.256.72-.256zm7.458 0c.277-.021.496.037.656.176.16.139.24.347.24.624 0 .288-.07.501-.208.64-.139.139-.39.229-.752.272l-.48.048c-.63.064-1.094.277-1.392.64-.288.363-.432.816-.432 1.36v3.36c0 .309-.096.549-.288.72-.192.16-.432.24-.72.24s-.528-.08-.72-.24c-.182-.171-.272-.411-.272-.72v-6.192c0-.299.09-.528.272-.688.192-.16.426-.24.704-.24.277 0 .501.08.672.24.17.149.256.368.256.656v.64a2.38 2.38 0 01.896-1.088 2.82 2.82 0 011.344-.432l.224-.016zm6.253-.032c.672 0 1.27.171 1.792.512.533.341.944.827 1.232 1.456.298.619.448 1.333.448 2.144 0 .811-.15 1.52-.448 2.128-.288.608-.694 1.077-1.216 1.408-.523.331-1.126.496-1.808.496-.555 0-1.05-.117-1.488-.352a2.471 2.471 0 01-1.008-.976v3.264c0 .277-.09.496-.272.656-.182.16-.422.24-.72.24-.299 0-.544-.085-.736-.256a.88.88 0 01-.272-.672v-9.072c0-.288.085-.517.256-.688.181-.171.421-.256.72-.256.298 0 .538.085.72.256.181.171.272.4.272.688v.4a2.42 2.42 0 011.008-1.008 3.116 3.116 0 011.52-.368zm-.528 6.592c.63 0 1.12-.213 1.472-.64.352-.437.528-1.051.528-1.84 0-.811-.176-1.44-.528-1.888-.352-.448-.843-.672-1.472-.672-.64 0-1.136.219-1.488.656-.342.437-.512 1.061-.512 1.872 0 .8.17 1.419.512 1.856.352.437.848.656 1.488.656zm6.633 1.52c-.288 0-.528-.08-.72-.24-.181-.171-.272-.411-.272-.72v-9.552c0-.309.09-.544.272-.704.192-.16.432-.24.72-.24s.528.08.72.24c.192.16.288.395.288.704v9.552c0 .309-.096.549-.288.72-.192.16-.432.24-.72.24zm9.263-2.24c.181 0 .325.069.432.208.117.139.176.325.176.56 0 .331-.198.608-.592.832a5.31 5.31 0 01-2.544.672c-1.259 0-2.256-.363-2.992-1.088-.736-.725-1.104-1.717-1.104-2.976 0-.8.16-1.509.48-2.128a3.502 3.502 0 011.344-1.44c.586-.341 1.248-.512 1.984-.512.704 0 1.317.155 1.84.464a3.15 3.15 0 011.216 1.312c.288.565.432 1.232.432 2 0 .459-.203.688-.608.688h-4.72c.064.736.272 1.28.624 1.632.352.341.864.512 1.536.512.341 0 .64-.043.896-.128.266-.085.565-.203.896-.352.32-.171.554-.256.704-.256zm-2.768-4.464c-.544 0-.982.171-1.312.512-.32.341-.512.832-.576 1.472h3.616c-.022-.651-.182-1.141-.48-1.472-.299-.341-.715-.512-1.248-.512z" fill="#000"/><path d="M185.84 397.004h4.019V398h-5.314v-.996c.73-.77 1.369-1.449 1.916-2.039.547-.59.924-1.006 1.131-1.248.39-.477.654-.862.791-1.155.137-.296.205-.599.205-.908 0-.488-.145-.871-.434-1.148-.285-.277-.677-.416-1.177-.416a3.57 3.57 0 00-1.12.193c-.39.129-.804.324-1.242.586v-1.195a6.416 6.416 0 011.184-.434c.39-.097.775-.146 1.154-.146.856 0 1.543.228 2.063.685.523.453.785 1.049.785 1.787 0 .375-.088.75-.264 1.125-.172.375-.453.789-.844 1.243-.218.254-.537.605-.955 1.054-.414.45-1.047 1.121-1.898 2.016zm8.654-7.881c.934 0 1.639.381 2.115 1.143.481.761.721 1.888.721 3.38 0 1.493-.24 2.62-.721 3.381-.476.762-1.181 1.143-2.115 1.143-.933 0-1.639-.381-2.115-1.143-.477-.761-.715-1.888-.715-3.381 0-1.492.238-2.619.715-3.38.476-.762 1.182-1.143 2.115-1.143zm0 8.109c.555 0 .967-.294 1.236-.884.274-.59.411-1.491.411-2.702 0-.644-.039-1.226-.118-1.746l-2.789 4.366c.293.644.713.966 1.26.966zm0-7.171c-.551 0-.963.294-1.236.884-.27.59-.404 1.491-.404 2.701 0 .551.037 1.067.111 1.547l2.73-4.353c-.297-.52-.697-.779-1.201-.779zm7.231-.938c.933 0 1.638.381 2.115 1.143.48.761.721 1.888.721 3.38 0 1.493-.241 2.62-.721 3.381-.477.762-1.182 1.143-2.115 1.143-.934 0-1.639-.381-2.116-1.143-.476-.761-.714-1.888-.714-3.381 0-1.492.238-2.619.714-3.38.477-.762 1.182-1.143 2.116-1.143zm0 8.109c.554 0 .966-.294 1.236-.884.273-.59.41-1.491.41-2.702 0-.644-.039-1.226-.117-1.746l-2.789 4.366c.293.644.713.966 1.26.966zm0-7.171c-.551 0-.963.294-1.237.884-.269.59-.404 1.491-.404 2.701 0 .551.037 1.067.111 1.547l2.731-4.353c-.297-.52-.697-.779-1.201-.779zm-28.524 14.355l-.527 2.074h1.435l.534-2.074h.937l-.533 2.074h1.43v.897h-1.647l-.574 2.302h1.465v.897h-1.694l-.609 2.414h-.938l.616-2.414h-1.442l-.615 2.414h-.932l.61-2.414h-1.512v-.897h1.74l.575-2.302h-1.559v-.897h1.775l.528-2.074h.937zm.692 2.971h-1.436l-.574 2.302h1.441l.569-2.302zm3.685-3.135h5.192v.996h-4.008v2.356h3.832v.996h-3.832v3.404h4.119V413h-5.303v-8.748zm9.568 4.869c.504 0 .899-.182 1.184-.545.289-.363.434-.865.434-1.506 0-.64-.145-1.142-.434-1.506-.285-.363-.68-.544-1.184-.544-.523 0-.917.173-1.183.521-.266.344-.399.854-.399 1.529 0 .68.131 1.192.393 1.535.266.344.662.516 1.189.516zm-2.109 3.697v-1.089c.246.144.508.255.785.333.278.075.567.112.867.112.75 0 1.317-.281 1.7-.844.386-.566.58-1.398.58-2.496a2.093 2.093 0 01-.774.902 2.114 2.114 0 01-1.142.311c-.844 0-1.498-.26-1.963-.779-.461-.52-.692-1.256-.692-2.209 0-.942.237-1.67.709-2.186.477-.519 1.149-.779 2.016-.779 1.016 0 1.76.365 2.232 1.095.473.731.709 1.879.709 3.446 0 1.472-.285 2.597-.855 3.375-.566.773-1.391 1.16-2.473 1.16-.285 0-.572-.031-.861-.094a4.346 4.346 0 01-.838-.258zm8.402-.791c.997 0 1.692-.244 2.086-.732.395-.492.592-1.379.592-2.66 0-1.293-.197-2.184-.592-2.672-.39-.492-1.086-.738-2.086-.738h-.562v6.802h.562zm.024-7.775c1.336 0 2.32.355 2.953 1.066.633.711.949 1.817.949 3.317 0 1.492-.316 2.594-.949 3.304-.633.707-1.617 1.061-2.953 1.061h-1.775v-8.748h1.775zm8.262 4.594c-.528 0-.936.148-1.225.445-.285.293-.428.709-.428 1.248s.145.959.434 1.26c.293.297.699.445 1.219.445.531 0 .939-.146 1.224-.439.289-.297.434-.719.434-1.266 0-.535-.147-.951-.44-1.248-.289-.297-.695-.445-1.218-.445zm-1.032-.492c-.504-.129-.898-.37-1.183-.721-.281-.352-.422-.776-.422-1.272 0-.695.236-1.246.709-1.652.473-.41 1.115-.615 1.928-.615.816 0 1.461.205 1.933.615.473.406.709.957.709 1.652 0 .496-.142.92-.428 1.272-.281.351-.673.592-1.177.721.586.128 1.033.388 1.342.779.312.39.468.896.468 1.517 0 .789-.252 1.407-.756 1.852-.504.445-1.201.668-2.091.668-.891 0-1.588-.221-2.092-.662-.5-.446-.75-1.061-.75-1.846 0-.625.154-1.133.463-1.523.312-.395.761-.657 1.347-.785zm-.427-1.881c0 .468.125.826.375 1.072.25.246.611.369 1.084.369.476 0 .839-.123 1.089-.369s.375-.604.375-1.072c0-.477-.125-.84-.375-1.09-.246-.25-.609-.375-1.089-.375-.473 0-.834.127-1.084.381-.25.25-.375.611-.375 1.084zm6.445-2.221h5.15v.996H207.9v2.344h3.592v.996H207.9V413h-1.189v-8.748zm8.42 7.775c.996 0 1.691-.244 2.086-.732.394-.492.592-1.379.592-2.66 0-1.293-.198-2.184-.592-2.672-.391-.492-1.086-.738-2.086-.738h-.563v6.802h.563zm.023-7.775c1.336 0 2.321.355 2.953 1.066.633.711.95 1.817.95 3.317 0 1.492-.317 2.594-.95 3.304-.632.707-1.617 1.061-2.953 1.061h-1.775v-8.748h1.775z" fill="#909090"/><path fill="#E9D8FD" d="M104 332h181v50H104z"/><path d="M369.867 389.252h4.43v.996h-3.352v2.15c.168-.062.336-.107.504-.134.172-.032.344-.047.516-.047.906 0 1.625.267 2.156.803.531.535.797 1.259.797 2.173 0 .922-.279 1.649-.838 2.18-.555.531-1.314.797-2.279.797-.465 0-.891-.031-1.278-.094a4.705 4.705 0 01-1.031-.281v-1.201c.36.195.721.342 1.084.439.363.094.735.141 1.113.141.653 0 1.155-.172 1.506-.516.356-.344.534-.832.534-1.465 0-.625-.184-1.111-.551-1.459-.364-.347-.871-.521-1.524-.521-.316 0-.625.037-.925.111a3.64 3.64 0 00-.862.322v-4.394zm9.627-.129c.934 0 1.639.381 2.115 1.143.481.761.721 1.888.721 3.38 0 1.493-.24 2.62-.721 3.381-.476.762-1.181 1.143-2.115 1.143-.933 0-1.639-.381-2.115-1.143-.477-.761-.715-1.888-.715-3.381 0-1.492.238-2.619.715-3.38.476-.762 1.182-1.143 2.115-1.143zm0 8.109c.555 0 .967-.294 1.236-.884.274-.59.411-1.491.411-2.702 0-.644-.039-1.226-.118-1.746l-2.789 4.366c.293.644.713.966 1.26.966zm0-7.171c-.551 0-.963.294-1.236.884-.27.59-.404 1.491-.404 2.701 0 .551.037 1.067.111 1.547l2.73-4.353c-.297-.52-.697-.779-1.201-.779zm7.231-.938c.933 0 1.638.381 2.115 1.143.48.761.721 1.888.721 3.38 0 1.493-.241 2.62-.721 3.381-.477.762-1.182 1.143-2.115 1.143-.934 0-1.639-.381-2.116-1.143-.476-.761-.714-1.888-.714-3.381 0-1.492.238-2.619.714-3.38.477-.762 1.182-1.143 2.116-1.143zm0 8.109c.554 0 .966-.294 1.236-.884.273-.59.41-1.491.41-2.702 0-.644-.039-1.226-.117-1.746l-2.789 4.366c.293.644.713.966 1.26.966zm0-7.171c-.551 0-.963.294-1.237.884-.269.59-.404 1.491-.404 2.701 0 .551.037 1.067.111 1.547l2.731-4.353c-.297-.52-.697-.779-1.201-.779zm-28.524 14.355l-.527 2.074h1.435l.534-2.074h.937l-.533 2.074h1.43v.897h-1.647l-.574 2.302h1.465v.897h-1.694l-.609 2.414h-.938l.616-2.414h-1.442l-.615 2.414h-.932l.61-2.414h-1.512v-.897h1.74l.575-2.302h-1.559v-.897h1.775l.528-2.074h.937zm.692 2.971h-1.436l-.574 2.302h1.441l.569-2.302zm6.023 1.734c.504 0 .898-.182 1.184-.545.289-.363.433-.865.433-1.506 0-.64-.144-1.142-.433-1.506-.286-.363-.68-.544-1.184-.544-.523 0-.918.173-1.184.521-.265.344-.398.854-.398 1.529 0 .68.131 1.192.393 1.535.265.344.662.516 1.189.516zm-2.109 3.697v-1.089c.246.144.507.255.785.333.277.075.566.112.867.112.75 0 1.316-.281 1.699-.844.387-.566.58-1.398.58-2.496a2.085 2.085 0 01-.773.902 2.115 2.115 0 01-1.143.311c-.843 0-1.498-.26-1.963-.779-.461-.52-.691-1.256-.691-2.209 0-.942.236-1.67.709-2.186.477-.519 1.148-.779 2.016-.779 1.015 0 1.759.365 2.232 1.095.473.731.709 1.879.709 3.446 0 1.472-.285 2.597-.855 3.375-.567.773-1.391 1.16-2.473 1.16-.285 0-.572-.031-.861-.094a4.304 4.304 0 01-.838-.258zm7.213-8.566h5.15v.996h-3.961v2.344h3.592v.996h-3.592V413h-1.189v-8.748zm6.679 0h5.508v.504L379.078 413h-1.236l3.047-7.752h-4.19v-.996zm10.026 1.043l-1.248 4.476h2.496l-1.248-4.476zm-.715-1.043h1.435l2.678 8.748h-1.225l-.644-2.279h-3.065l-.632 2.279h-1.225l2.678-8.748zm5.49 0h5.191v.996h-4.007v2.356h3.832v.996h-3.832v3.404h4.119V413H391.5v-8.748zm9.686 1.043l-1.248 4.476h2.496l-1.248-4.476zm-.715-1.043h1.435l2.678 8.748h-1.225l-.644-2.279h-3.065l-.632 2.279h-1.225l2.678-8.748z" fill="#909090"/><path fill="#9F7AEA" d="M289 332h181v50H289z"/><path d="M1.984 233.096a1.15 1.15 0 01-.848-.336 1.205 1.205 0 01-.336-.864c0-.341.112-.624.336-.848.224-.235.507-.352.848-.352.341 0 .624.117.848.352.224.224.336.507.336.848 0 .341-.112.629-.336.864a1.15 1.15 0 01-.848.336zm6.604-1.488c.534.032.8.272.8.72a.666.666 0 01-.32.592c-.202.128-.496.181-.88.16l-.432-.032c-1.792-.128-2.688-1.088-2.688-2.88v-3.488h-.8c-.288 0-.512-.064-.672-.192-.149-.128-.224-.315-.224-.56 0-.245.075-.432.224-.56.16-.128.384-.192.672-.192h.8v-1.472c0-.288.091-.517.272-.688.182-.171.427-.256.736-.256.299 0 .539.085.72.256.182.171.272.4.272.688v1.472h1.36c.288 0 .507.064.656.192.16.128.24.315.24.56 0 .245-.08.432-.24.56-.149.128-.368.192-.656.192h-1.36v3.632c0 .789.363 1.211 1.088 1.264l.432.032zm8.035-.752c.181 0 .325.069.432.208.117.139.176.325.176.56 0 .331-.198.608-.592.832a5.31 5.31 0 01-2.544.672c-1.259 0-2.256-.363-2.992-1.088-.736-.725-1.104-1.717-1.104-2.976 0-.8.16-1.509.48-2.128a3.502 3.502 0 011.344-1.44c.586-.341 1.248-.512 1.984-.512.704 0 1.317.155 1.84.464a3.15 3.15 0 011.216 1.312c.288.565.432 1.232.432 2 0 .459-.203.688-.608.688h-4.72c.064.736.272 1.28.624 1.632.352.341.864.512 1.536.512.341 0 .64-.043.896-.128.266-.085.565-.203.896-.352.32-.171.554-.256.704-.256zm-2.768-4.464c-.544 0-.982.171-1.312.512-.32.341-.512.832-.576 1.472h3.616c-.022-.651-.182-1.141-.48-1.472-.299-.341-.715-.512-1.248-.512zm8.468-1.408c1.088 0 1.893.272 2.416.816.533.533.8 1.349.8 2.448v3.904c0 .288-.086.517-.256.688-.171.16-.406.24-.704.24a.963.963 0 01-.688-.256c-.171-.171-.256-.395-.256-.672v-.352c-.182.416-.47.741-.864.976-.384.235-.832.352-1.344.352a3.14 3.14 0 01-1.424-.32 2.534 2.534 0 01-1.008-.88 2.222 2.222 0 01-.368-1.248c0-.576.144-1.029.432-1.36.298-.331.778-.571 1.44-.72.661-.149 1.573-.224 2.736-.224h.4v-.368c0-.523-.112-.901-.336-1.136-.224-.245-.587-.368-1.088-.368-.31 0-.624.048-.944.144-.32.085-.699.213-1.136.384-.278.139-.48.208-.608.208a.625.625 0 01-.48-.208c-.118-.139-.176-.32-.176-.544 0-.181.042-.336.128-.464.096-.139.25-.267.464-.384a5.202 5.202 0 011.328-.48 7.02 7.02 0 011.536-.176zm-.496 6.704c.533 0 .965-.176 1.296-.528.341-.363.512-.827.512-1.392v-.336h-.288c-.715 0-1.27.032-1.664.096-.395.064-.678.176-.848.336-.171.16-.256.379-.256.656 0 .341.117.624.352.848.245.213.544.32.896.32zm6.736 1.408c-.288 0-.528-.08-.72-.24-.181-.171-.272-.411-.272-.72v-9.552c0-.309.09-.544.272-.704.192-.16.432-.24.72-.24s.528.08.72.24c.192.16.288.395.288.704v9.552c0 .309-.096.549-.288.72-.192.16-.432.24-.72.24z" fill="#000"/><path d="M154.84 281.004h4.019V282h-5.314v-.996c.73-.77 1.369-1.449 1.916-2.039.547-.59.924-1.006 1.131-1.248.39-.477.654-.862.791-1.155.137-.296.205-.599.205-.908 0-.488-.145-.871-.434-1.148-.285-.277-.677-.416-1.177-.416a3.57 3.57 0 00-1.12.193c-.39.129-.804.324-1.242.586v-1.195a6.416 6.416 0 011.184-.434c.39-.097.775-.146 1.154-.146.856 0 1.543.228 2.063.685.523.453.785 1.049.785 1.787 0 .375-.088.75-.264 1.125-.172.375-.453.789-.844 1.243-.218.254-.537.605-.955 1.054-.414.45-1.047 1.121-1.898 2.016zm8.654-7.881c.934 0 1.639.381 2.115 1.143.481.761.721 1.888.721 3.38 0 1.493-.24 2.62-.721 3.381-.476.762-1.181 1.143-2.115 1.143-.933 0-1.639-.381-2.115-1.143-.477-.761-.715-1.888-.715-3.381 0-1.492.238-2.619.715-3.38.476-.762 1.182-1.143 2.115-1.143zm0 8.109c.555 0 .967-.294 1.236-.884.274-.59.411-1.491.411-2.702 0-.644-.039-1.226-.118-1.746l-2.789 4.366c.293.644.713.966 1.26.966zm0-7.171c-.551 0-.963.294-1.236.884-.27.59-.404 1.491-.404 2.701 0 .551.037 1.067.111 1.547l2.73-4.353c-.297-.52-.697-.779-1.201-.779zm7.231-.938c.933 0 1.638.381 2.115 1.143.48.761.721 1.888.721 3.38 0 1.493-.241 2.62-.721 3.381-.477.762-1.182 1.143-2.115 1.143-.934 0-1.639-.381-2.116-1.143-.476-.761-.714-1.888-.714-3.381 0-1.492.238-2.619.714-3.38.477-.762 1.182-1.143 2.116-1.143zm0 8.109c.554 0 .966-.294 1.236-.884.273-.59.41-1.491.41-2.702 0-.644-.039-1.226-.117-1.746l-2.789 4.366c.293.644.713.966 1.26.966zm0-7.171c-.551 0-.963.294-1.237.884-.269.59-.404 1.491-.404 2.701 0 .551.037 1.067.111 1.547l2.731-4.353c-.297-.52-.697-.779-1.201-.779zm-28.524 14.355l-.527 2.074h1.435l.534-2.074h.937l-.533 2.074h1.43v.897h-1.647l-.574 2.302h1.465v.897h-1.694l-.609 2.414h-.938l.616-2.414h-1.442l-.615 2.414h-.932l.61-2.414h-1.512v-.897h1.74l.575-2.302h-1.559v-.897h1.775l.528-2.074h.937zm.692 2.971h-1.436l-.574 2.302h1.441l.569-2.302zm6.023 1.734c.504 0 .898-.182 1.184-.545.289-.363.433-.865.433-1.506 0-.64-.144-1.142-.433-1.506-.286-.363-.68-.544-1.184-.544-.523 0-.918.173-1.184.521-.265.344-.398.854-.398 1.529 0 .68.131 1.192.393 1.535.265.344.662.516 1.189.516zm-2.109 3.697v-1.089c.246.144.507.255.785.333.277.075.566.112.867.112.75 0 1.316-.281 1.699-.844.387-.566.58-1.398.58-2.496a2.085 2.085 0 01-.773.902 2.115 2.115 0 01-1.143.311c-.843 0-1.498-.26-1.963-.779-.461-.52-.691-1.256-.691-2.209 0-.942.236-1.67.709-2.186.477-.519 1.148-.779 2.016-.779 1.015 0 1.759.365 2.232 1.095.473.731.709 1.879.709 3.446 0 1.472-.285 2.597-.855 3.375-.567.773-1.391 1.16-2.473 1.16-.285 0-.572-.031-.861-.094a4.304 4.304 0 01-.838-.258zm9.339-3.697c.504 0 .899-.182 1.184-.545.289-.363.434-.865.434-1.506 0-.64-.145-1.142-.434-1.506-.285-.363-.68-.544-1.184-.544-.523 0-.917.173-1.183.521-.266.344-.399.854-.399 1.529 0 .68.131 1.192.393 1.535.266.344.662.516 1.189.516zm-2.109 3.697v-1.089c.246.144.508.255.785.333.278.075.567.112.867.112.75 0 1.317-.281 1.7-.844.386-.566.58-1.398.58-2.496a2.093 2.093 0 01-.774.902 2.114 2.114 0 01-1.142.311c-.844 0-1.498-.26-1.963-.779-.461-.52-.692-1.256-.692-2.209 0-.942.237-1.67.709-2.186.477-.519 1.149-.779 2.016-.779 1.016 0 1.76.365 2.232 1.095.473.731.709 1.879.709 3.446 0 1.472-.285 2.597-.855 3.375-.566.773-1.391 1.16-2.473 1.16-.285 0-.572-.031-.861-.094a4.346 4.346 0 01-.838-.258zm12.076-8.935v.896h-1.224c-.387 0-.657.08-.809.241-.148.156-.223.435-.223.837v.581h2.256v.837h-2.256V297h-1.078v-5.725h-1.752v-.837h1.752v-.458c0-.718.164-1.248.492-1.587.333-.34.848-.51 1.547-.51h1.295zm6.809.562v1.09a3.167 3.167 0 00-.785-.328 3.194 3.194 0 00-.867-.117c-.75 0-1.319.283-1.706.849-.386.563-.58 1.393-.58 2.491.188-.391.448-.69.78-.897a2.084 2.084 0 011.142-.316c.844 0 1.496.26 1.957.779.465.516.698 1.248.698 2.197 0 .946-.239 1.678-.715 2.198-.477.519-1.147.779-2.01.779-1.016 0-1.76-.363-2.232-1.09-.473-.73-.709-1.879-.709-3.445 0-1.477.283-2.602.849-3.375.57-.778 1.395-1.166 2.473-1.166.289 0 .578.031.867.094.289.058.568.144.838.257zm-2.11 3.698c-.503 0-.9.181-1.189.545-.289.363-.434.865-.434 1.505 0 .641.145 1.143.434 1.506.289.363.686.545 1.189.545.524 0 .918-.172 1.184-.515.266-.348.399-.86.399-1.536 0-.679-.133-1.191-.399-1.535-.266-.344-.66-.515-1.184-.515zm10.096 1.037v.527h-4.67v.035c-.031.895.139 1.537.51 1.928.375.391.902.586 1.582.586a3.86 3.86 0 001.078-.164c.375-.11.776-.276 1.201-.498v1.072c-.41.168-.806.293-1.189.375a4.972 4.972 0 01-1.102.129c-1.019 0-1.816-.305-2.39-.914-.574-.613-.862-1.457-.862-2.531 0-1.047.282-1.883.844-2.508.563-.625 1.313-.938 2.25-.938.836 0 1.494.283 1.975.85.484.566.742 1.25.773 2.051zm-1.078-.317a2.07 2.07 0 00-.498-1.172c-.281-.332-.687-.498-1.219-.498-.519 0-.947.172-1.283.516-.336.344-.519.73-.551 1.16l3.551-.006zm6.053-3.533l-2.76 4.623h2.76v-4.623zm-.194-1.078h1.372v5.701h1.166v.961h-1.166V297h-1.178v-2.086h-3.709v-1.119l3.515-5.543z" fill="#909090"/><path fill="#B2F5EA" d="M104 216h119v50H104z"/><path d="M280.701 277.318c.574.153 1.014.424 1.319.815.304.387.457.871.457 1.453 0 .805-.272 1.437-.815 1.898-.539.457-1.287.686-2.244.686a7.04 7.04 0 01-1.23-.111 7.964 7.964 0 01-1.231-.323v-1.177a5.65 5.65 0 001.178.462c.386.102.771.153 1.154.153.649 0 1.147-.147 1.494-.44.348-.293.522-.714.522-1.265 0-.508-.174-.91-.522-1.207-.347-.301-.818-.451-1.412-.451h-.902v-.973h.902c.543 0 .967-.119 1.272-.358.304-.238.457-.57.457-.996 0-.449-.143-.793-.428-1.031-.281-.242-.684-.363-1.207-.363-.348 0-.707.039-1.078.117-.371.078-.76.195-1.166.352v-1.09c.472-.125.892-.219 1.259-.281.372-.063.7-.094.985-.094.851 0 1.531.215 2.039.644.512.426.767.992.767 1.7 0 .48-.134.88-.404 1.201-.265.32-.654.547-1.166.679zm6.293-4.195c.934 0 1.639.381 2.115 1.143.481.761.721 1.888.721 3.38 0 1.493-.24 2.62-.721 3.381-.476.762-1.181 1.143-2.115 1.143-.933 0-1.639-.381-2.115-1.143-.477-.761-.715-1.888-.715-3.381 0-1.492.238-2.619.715-3.38.476-.762 1.182-1.143 2.115-1.143zm0 8.109c.555 0 .967-.294 1.236-.884.274-.59.411-1.491.411-2.702 0-.644-.039-1.226-.118-1.746l-2.789 4.366c.293.644.713.966 1.26.966zm0-7.171c-.551 0-.963.294-1.236.884-.27.59-.404 1.491-.404 2.701 0 .551.037 1.067.111 1.547l2.73-4.353c-.297-.52-.697-.779-1.201-.779zm7.231-.938c.933 0 1.638.381 2.115 1.143.48.761.721 1.888.721 3.38 0 1.493-.241 2.62-.721 3.381-.477.762-1.182 1.143-2.115 1.143-.934 0-1.639-.381-2.116-1.143-.476-.761-.714-1.888-.714-3.381 0-1.492.238-2.619.714-3.38.477-.762 1.182-1.143 2.116-1.143zm0 8.109c.554 0 .966-.294 1.236-.884.273-.59.41-1.491.41-2.702 0-.644-.039-1.226-.117-1.746l-2.789 4.366c.293.644.713.966 1.26.966zm0-7.171c-.551 0-.963.294-1.237.884-.269.59-.404 1.491-.404 2.701 0 .551.037 1.067.111 1.547l2.731-4.353c-.297-.52-.697-.779-1.201-.779zm-28.524 14.355l-.527 2.074h1.435l.534-2.074h.937l-.533 2.074h1.43v.897h-1.647l-.574 2.302h1.465v.897h-1.694l-.609 2.414h-.938l.616-2.414h-1.442l-.615 2.414h-.932l.61-2.414h-1.512v-.897h1.74l.575-2.302h-1.559v-.897h1.775l.528-2.074h.937zm.692 2.971h-1.436l-.574 2.302h1.441l.569-2.302zm3.744-3.135h4.429v.996h-3.351v2.15c.168-.062.336-.107.504-.134.172-.032.343-.047.515-.047.907 0 1.625.267 2.157.803.531.535.797 1.259.797 2.173 0 .922-.28 1.649-.838 2.18-.555.531-1.315.797-2.28.797a7.97 7.97 0 01-1.277-.094 4.674 4.674 0 01-1.031-.281v-1.201c.359.195.72.342 1.084.439.363.094.734.141 1.113.141.652 0 1.154-.172 1.506-.516.355-.344.533-.832.533-1.465 0-.625-.184-1.111-.551-1.459-.363-.347-.871-.521-1.523-.521a3.86 3.86 0 00-.926.111 3.617 3.617 0 00-.861.322v-4.394zm12.58 4.928v.527h-4.67v.035c-.031.895.139 1.537.51 1.928.375.391.902.586 1.582.586.343 0 .703-.055 1.078-.164.375-.11.775-.276 1.201-.498v1.072c-.41.168-.807.293-1.189.375a4.98 4.98 0 01-1.102.129c-1.02 0-1.816-.305-2.391-.914-.574-.613-.861-1.457-.861-2.531 0-1.047.281-1.883.844-2.508.562-.625 1.312-.938 2.25-.938.836 0 1.494.283 1.974.85.485.566.743 1.25.774 2.051zm-1.078-.317a2.07 2.07 0 00-.498-1.172c-.282-.332-.688-.498-1.219-.498-.52 0-.947.172-1.283.516-.336.344-.52.73-.551 1.16l3.551-.006zm8.308.317v.527h-4.67v.035c-.031.895.139 1.537.51 1.928.375.391.902.586 1.582.586a3.86 3.86 0 001.078-.164c.375-.11.776-.276 1.201-.498v1.072c-.41.168-.806.293-1.189.375a4.972 4.972 0 01-1.102.129c-1.019 0-1.816-.305-2.39-.914-.574-.613-.862-1.457-.862-2.531 0-1.047.282-1.883.844-2.508.563-.625 1.313-.938 2.25-.938.836 0 1.494.283 1.975.85.484.566.742 1.25.773 2.051zm-1.078-.317a2.07 2.07 0 00-.498-1.172c-.281-.332-.687-.498-1.219-.498-.519 0-.947.172-1.283.516-.336.344-.519.73-.551 1.16l3.551-.006zm5.86.838h-.358c-.629 0-1.103.111-1.424.334-.316.219-.474.547-.474.985 0 .394.119.701.357.919.238.219.568.329.99.329.594 0 1.061-.206 1.401-.616.34-.414.511-.984.515-1.711v-.24h-1.007zm2.091-.445V297h-1.084v-.973c-.23.391-.521.68-.873.868-.347.183-.771.275-1.271.275-.668 0-1.201-.188-1.6-.563-.398-.378-.597-.884-.597-1.517 0-.731.244-1.285.732-1.664.492-.379 1.213-.569 2.162-.569h1.447v-.169c-.004-.524-.136-.903-.398-1.137-.262-.239-.68-.358-1.254-.358-.367 0-.738.053-1.113.159a4.826 4.826 0 00-1.096.462v-1.078a7.397 7.397 0 011.143-.34 5.121 5.121 0 011.066-.117c.543 0 1.006.08 1.389.241.386.16.699.4.937.72.149.196.254.438.317.727.062.285.093.715.093 1.289zm6.053-1.981v-3.392h1.078V297h-1.078v-.826c-.18.324-.42.572-.721.744-.297.168-.64.252-1.031.252-.793 0-1.418-.307-1.875-.92-.453-.617-.68-1.467-.68-2.549 0-1.066.229-1.902.686-2.508.457-.609 1.08-.914 1.869-.914.395 0 .742.086 1.043.258.301.168.537.414.709.738zm-3.17 2.45c0 .836.133 1.466.399 1.892.265.426.658.639 1.177.639.52 0 .914-.215 1.184-.645.273-.429.41-1.058.41-1.886 0-.832-.137-1.461-.41-1.887-.27-.43-.664-.645-1.184-.645-.519 0-.912.213-1.177.639-.266.426-.399 1.057-.399 1.893zm9.68-4.395l-2.76 4.623h2.76v-4.623zm-.194-1.078h1.372v5.701h1.166v.961h-1.166V297h-1.178v-2.086h-3.709v-1.119l3.515-5.543z" fill="#909090"/><path fill="#5EEAD4" d="M227 216h120v50H227z"/><path d="M400.867 273.252h4.43v.996h-3.352v2.15c.168-.062.336-.107.504-.134.172-.032.344-.047.516-.047.906 0 1.625.267 2.156.803.531.535.797 1.259.797 2.173 0 .922-.279 1.649-.838 2.18-.555.531-1.314.797-2.279.797-.465 0-.891-.031-1.278-.094a4.705 4.705 0 01-1.031-.281v-1.201c.36.195.721.342 1.084.439.363.094.735.141 1.113.141.653 0 1.155-.172 1.506-.516.356-.344.534-.832.534-1.465 0-.625-.184-1.111-.551-1.459-.364-.347-.871-.521-1.524-.521-.316 0-.625.037-.925.111a3.64 3.64 0 00-.862.322v-4.394zm9.627-.129c.934 0 1.639.381 2.115 1.143.481.761.721 1.888.721 3.38 0 1.493-.24 2.62-.721 3.381-.476.762-1.181 1.143-2.115 1.143-.933 0-1.639-.381-2.115-1.143-.477-.761-.715-1.888-.715-3.381 0-1.492.238-2.619.715-3.38.476-.762 1.182-1.143 2.115-1.143zm0 8.109c.555 0 .967-.294 1.236-.884.274-.59.411-1.491.411-2.702 0-.644-.039-1.226-.118-1.746l-2.789 4.366c.293.644.713.966 1.26.966zm0-7.171c-.551 0-.963.294-1.236.884-.27.59-.404 1.491-.404 2.701 0 .551.037 1.067.111 1.547l2.73-4.353c-.297-.52-.697-.779-1.201-.779zm7.231-.938c.933 0 1.638.381 2.115 1.143.48.761.721 1.888.721 3.38 0 1.493-.241 2.62-.721 3.381-.477.762-1.182 1.143-2.115 1.143-.934 0-1.639-.381-2.116-1.143-.476-.761-.714-1.888-.714-3.381 0-1.492.238-2.619.714-3.38.477-.762 1.182-1.143 2.116-1.143zm0 8.109c.554 0 .966-.294 1.236-.884.273-.59.41-1.491.41-2.702 0-.644-.039-1.226-.117-1.746l-2.789 4.366c.293.644.713.966 1.26.966zm0-7.171c-.551 0-.963.294-1.237.884-.269.59-.404 1.491-.404 2.701 0 .551.037 1.067.111 1.547l2.731-4.353c-.297-.52-.697-.779-1.201-.779zm-28.524 14.355l-.527 2.074h1.435l.534-2.074h.937l-.533 2.074h1.43v.897h-1.647l-.574 2.302h1.465v.897h-1.694l-.609 2.414h-.938l.616-2.414h-1.442l-.615 2.414h-.932l.61-2.414h-1.512v-.897h1.74l.575-2.302h-1.559v-.897h1.775l.528-2.074h.937zm.692 2.971h-1.436l-.574 2.302h1.441l.569-2.302zm4.113 4.623h1.84v-6.61l-2.203 1.061v-1.137l2.191-1.043h1.184v7.729h1.816v.99h-4.828v-.99zm9.955-6.68l-2.76 4.623h2.76v-4.623zm-.193-1.078h1.371v5.701h1.166v.961h-1.166V297h-1.178v-2.086h-3.709v-1.119l3.516-5.543zm8.496 5.473c0-.836-.133-1.467-.399-1.893-.265-.426-.658-.639-1.177-.639-.524 0-.92.215-1.19.645-.269.426-.404 1.055-.404 1.887 0 .828.135 1.457.404 1.886.27.43.666.645 1.19.645.519 0 .912-.213 1.177-.639.266-.426.399-1.056.399-1.892zm-3.17-2.45c.172-.32.408-.566.709-.738a2.105 2.105 0 011.054-.258c.789 0 1.411.305 1.864.914.453.606.679 1.442.679 2.508 0 1.082-.228 1.932-.685 2.549-.453.613-1.076.92-1.869.92-.391 0-.737-.084-1.037-.252a1.899 1.899 0 01-.715-.744V297h-1.078v-9.117h1.078v3.392zm8.631 1.571c-.528 0-.936.148-1.225.445-.285.293-.428.709-.428 1.248s.145.959.434 1.26c.293.297.699.445 1.219.445.531 0 .939-.146 1.224-.439.289-.297.434-.719.434-1.266 0-.535-.147-.951-.44-1.248-.289-.297-.695-.445-1.218-.445zm-1.032-.492c-.504-.129-.898-.37-1.183-.721-.281-.352-.422-.776-.422-1.272 0-.695.236-1.246.709-1.652.473-.41 1.115-.615 1.928-.615.816 0 1.461.205 1.933.615.473.406.709.957.709 1.652 0 .496-.142.92-.428 1.272-.281.351-.673.592-1.177.721.586.128 1.033.388 1.342.779.312.39.468.896.468 1.517 0 .789-.252 1.407-.756 1.852-.504.445-1.201.668-2.091.668-.891 0-1.588-.221-2.092-.662-.5-.446-.75-1.061-.75-1.846 0-.625.154-1.133.463-1.523.312-.395.761-.657 1.347-.785zm-.427-1.881c0 .468.125.826.375 1.072.25.246.611.369 1.084.369.476 0 .839-.123 1.089-.369s.375-.604.375-1.072c0-.477-.125-.84-.375-1.09-.246-.25-.609-.375-1.089-.375-.473 0-.834.127-1.084.381-.25.25-.375.611-.375 1.084zm9.193 3.228h-.357c-.629 0-1.104.111-1.424.334-.317.219-.475.547-.475.985 0 .394.119.701.358.919.238.219.568.329.99.329.594 0 1.06-.206 1.4-.616.34-.414.512-.984.516-1.711v-.24h-1.008zm2.092-.445V297h-1.084v-.973c-.231.391-.522.68-.873.868-.348.183-.772.275-1.272.275-.668 0-1.201-.188-1.599-.563-.399-.378-.598-.884-.598-1.517 0-.731.244-1.285.732-1.664.493-.379 1.213-.569 2.163-.569h1.447v-.169c-.004-.524-.137-.903-.399-1.137-.261-.239-.679-.358-1.254-.358-.367 0-.738.053-1.113.159-.375.105-.74.259-1.096.462v-1.078c.399-.152.78-.265 1.143-.34a5.128 5.128 0 011.066-.117c.543 0 1.006.08 1.389.241.387.16.699.4.938.72.148.196.254.438.316.727.063.285.094.715.094 1.289zm6.832-4.811v1.09a3.167 3.167 0 00-.785-.328 3.196 3.196 0 00-.868-.117c-.75 0-1.318.283-1.705.849-.386.563-.58 1.393-.58 2.491.188-.391.448-.69.78-.897a2.084 2.084 0 011.142-.316c.844 0 1.496.26 1.957.779.465.516.697 1.248.697 2.197 0 .946-.238 1.678-.714 2.198-.477.519-1.147.779-2.01.779-1.016 0-1.76-.363-2.233-1.09-.472-.73-.709-1.879-.709-3.445 0-1.477.284-2.602.85-3.375.57-.778 1.395-1.166 2.473-1.166.289 0 .578.031.867.094.289.058.568.144.838.257zm-2.11 3.698c-.503 0-.9.181-1.189.545-.289.363-.434.865-.434 1.505 0 .641.145 1.143.434 1.506.289.363.686.545 1.189.545.524 0 .918-.172 1.184-.515.266-.348.398-.86.398-1.536 0-.679-.132-1.191-.398-1.535-.266-.344-.66-.515-1.184-.515z" fill="#909090"/><path fill="#14B8A6" d="M351 216h119v50H351z"/><path d="M1.984 17.096a1.15 1.15 0 01-.848-.336 1.204 1.204 0 01-.336-.864c0-.341.112-.624.336-.848.224-.235.507-.352.848-.352.341 0 .624.117.848.352.224.224.336.507.336.848 0 .341-.112.63-.336.864a1.15 1.15 0 01-.848.336zm7.393-8.08c.277-.021.496.037.656.176.16.139.24.347.24.624 0 .288-.07.501-.208.64-.139.139-.39.23-.752.272l-.48.048c-.63.064-1.094.277-1.392.64-.288.363-.432.816-.432 1.36v3.36c0 .31-.096.55-.288.72-.192.16-.432.24-.72.24s-.528-.08-.72-.24c-.182-.17-.272-.41-.272-.72V9.944c0-.299.09-.528.272-.688.192-.16.426-.24.704-.24.277 0 .501.08.672.24.17.15.256.368.256.656v.64c.202-.47.501-.832.896-1.088a2.82 2.82 0 011.344-.432l.224-.016zm7.792 5.84a.52.52 0 01.433.208c.117.139.175.325.175.56 0 .33-.197.608-.591.832a5.297 5.297 0 01-2.544.672c-1.26 0-2.257-.363-2.993-1.088-.735-.725-1.103-1.717-1.103-2.976 0-.8.16-1.51.48-2.128a3.506 3.506 0 011.344-1.44c.586-.341 1.248-.512 1.984-.512.704 0 1.317.155 1.84.464.522.31.928.747 1.216 1.312.288.565.431 1.232.431 2 0 .459-.202.688-.608.688h-4.72c.065.736.273 1.28.624 1.632.352.341.864.512 1.537.512.34 0 .64-.043.896-.128.266-.085.565-.203.895-.352.32-.17.555-.256.704-.256zm-2.768-4.464c-.543 0-.98.17-1.312.512-.32.341-.511.832-.575 1.472h3.616c-.022-.65-.182-1.141-.48-1.472-.3-.341-.715-.512-1.248-.512zM26.007 5.64c.298 0 .543.085.735.256.192.17.288.395.288.672v9.568c0 .288-.09.517-.271.688-.182.17-.422.256-.72.256-.3 0-.54-.085-.72-.256-.182-.17-.273-.4-.273-.688v-.4a2.493 2.493 0 01-1.024 1.024c-.437.245-.938.368-1.504.368a3.28 3.28 0 01-1.808-.512c-.522-.341-.933-.821-1.232-1.44-.288-.63-.431-1.35-.431-2.16s.143-1.52.431-2.128c.3-.608.71-1.077 1.232-1.408.523-.33 1.126-.496 1.808-.496.566 0 1.067.117 1.505.352.437.235.773.565 1.008.992V6.536c0-.267.085-.48.255-.64.182-.17.422-.256.72-.256zm-2.96 9.936c.64 0 1.13-.219 1.471-.656.352-.437.529-1.061.529-1.872 0-.81-.177-1.43-.529-1.856-.34-.437-.826-.656-1.456-.656-.64 0-1.136.213-1.488.64-.352.427-.527 1.04-.527 1.84 0 .81.175 1.44.527 1.888.352.448.843.672 1.473.672z" fill="#000"/><path d="M132.982 57.252h4.43v.996h-3.351v2.15c.168-.062.335-.107.503-.134.172-.032.344-.047.516-.047.906 0 1.625.267 2.156.803.532.535.797 1.26.797 2.173 0 .922-.279 1.649-.838 2.18-.554.531-1.314.797-2.279.797-.465 0-.891-.031-1.277-.094a4.727 4.727 0 01-1.032-.281v-1.201c.36.195.721.342 1.084.44.364.093.735.14 1.114.14.652 0 1.154-.172 1.506-.516.355-.344.533-.832.533-1.465 0-.625-.184-1.111-.551-1.459-.363-.347-.871-.521-1.523-.521a3.85 3.85 0 00-.926.111 3.59 3.59 0 00-.862.323v-4.395zm9.627-.129c.934 0 1.639.38 2.116 1.143.48.761.72 1.888.72 3.38 0 1.493-.24 2.62-.72 3.381-.477.762-1.182 1.143-2.116 1.143-.933 0-1.638-.38-2.115-1.143-.476-.761-.715-1.888-.715-3.38 0-1.493.239-2.62.715-3.381.477-.762 1.182-1.143 2.115-1.143zm0 8.11c.555 0 .967-.296 1.237-.885.273-.59.41-1.49.41-2.701 0-.645-.039-1.227-.117-1.747l-2.789 4.366c.293.644.712.966 1.259.966zm0-7.173c-.55 0-.963.295-1.236.885-.269.59-.404 1.49-.404 2.702 0 .55.037 1.066.111 1.546l2.731-4.353c-.297-.52-.698-.78-1.202-.78zm-24.908 14.356l-.527 2.074h1.435l.534-2.074h.937l-.533 2.074h1.43v.897h-1.647l-.574 2.302h1.465v.897h-1.694L117.918 81h-.938l.616-2.414h-1.442L115.539 81h-.932l.61-2.414h-1.512v-.897h1.74l.575-2.302h-1.559v-.897h1.775l.528-2.074h.937zm.692 2.97h-1.436l-.574 2.303h1.441l.569-2.302zm8.759-3.503v.896h-1.224c-.387 0-.657.08-.809.24-.148.157-.223.436-.223.838v.58h2.256v.838h-2.256V81h-1.078v-5.725h-1.752v-.838h1.752v-.456c0-.72.164-1.249.493-1.588.332-.34.847-.51 1.546-.51h1.295zm7.231 0v.896h-1.225c-.387 0-.656.08-.808.24-.149.157-.223.436-.223.838v.58h2.256v.838h-2.256V81h-1.078v-5.725h-1.752v-.838h1.752v-.456c0-.72.164-1.249.492-1.588.332-.34.848-.51 1.547-.51h1.295zm7.23 0v.896h-1.224c-.387 0-.657.08-.809.24-.148.157-.223.436-.223.838v.58h2.256v.838h-2.256V81h-1.078v-5.725h-1.752v-.838h1.752v-.456c0-.72.164-1.249.492-1.588.333-.34.848-.51 1.547-.51h1.295zm2.584 8.127h1.84V73.4l-2.203 1.06v-1.136l2.191-1.043h1.184v7.729h1.816V81h-4.828v-.99zm11.877-8.127v.896h-1.224c-.387 0-.657.08-.809.24-.148.157-.223.436-.223.838v.58h2.256v.838h-2.256V81h-1.078v-5.725h-1.752v-.838h1.752v-.456c0-.72.164-1.249.492-1.588.332-.34.848-.51 1.547-.51h1.295zm3.188 8.12h4.019V81h-5.314v-.996c.73-.77 1.369-1.45 1.916-2.04.547-.589.924-1.005 1.131-1.247.39-.477.654-.861.791-1.154.136-.297.205-.6.205-.909 0-.488-.145-.87-.434-1.148-.285-.278-.678-.416-1.178-.416a3.57 3.57 0 00-1.119.193 6.31 6.31 0 00-1.242.586v-1.195a6.409 6.409 0 011.184-.434c.39-.097.775-.146 1.154-.146.855 0 1.543.228 2.063.685.523.453.785 1.05.785 1.787 0 .375-.088.75-.264 1.125-.172.375-.453.79-.844 1.243-.219.254-.537.605-.955 1.054-.414.45-1.047 1.121-1.898 2.016z" fill="#909090"/><path fill="#FFF1F2" d="M104 0h70v50h-70z"/><path d="M203.736 65.01h1.84V58.4l-2.203 1.06v-1.136l2.191-1.043h1.184v7.729h1.816V66h-4.828v-.99zm9.258-7.887c.934 0 1.639.38 2.115 1.143.481.761.721 1.888.721 3.38 0 1.493-.24 2.62-.721 3.381-.476.762-1.181 1.143-2.115 1.143-.933 0-1.639-.38-2.115-1.143-.477-.761-.715-1.888-.715-3.38 0-1.493.238-2.62.715-3.381.476-.762 1.182-1.143 2.115-1.143zm0 8.11c.555 0 .967-.296 1.236-.885.274-.59.411-1.49.411-2.701a11.7 11.7 0 00-.118-1.747l-2.789 4.366c.293.644.713.966 1.26.966zm0-7.173c-.551 0-.963.295-1.236.885-.27.59-.404 1.49-.404 2.702 0 .55.037 1.066.111 1.546l2.73-4.353c-.297-.52-.697-.78-1.201-.78zm7.231-.937c.933 0 1.638.38 2.115 1.143.48.761.721 1.888.721 3.38 0 1.493-.241 2.62-.721 3.381-.477.762-1.182 1.143-2.115 1.143-.934 0-1.639-.38-2.116-1.143-.476-.761-.714-1.888-.714-3.38 0-1.493.238-2.62.714-3.381.477-.762 1.182-1.143 2.116-1.143zm0 8.11c.554 0 .966-.296 1.236-.885.273-.59.41-1.49.41-2.701 0-.645-.039-1.227-.117-1.747l-2.789 4.366c.293.644.713.966 1.26.966zm0-7.173c-.551 0-.963.295-1.237.885-.269.59-.404 1.49-.404 2.702 0 .55.037 1.066.111 1.546l2.731-4.353c-.297-.52-.697-.78-1.201-.78zm-28.524 14.356l-.527 2.074h1.435l.534-2.074h.937l-.533 2.074h1.43v.897h-1.647l-.574 2.302h1.465v.897h-1.694L191.918 81h-.938l.616-2.414h-1.442L189.539 81h-.932l.61-2.414h-1.512v-.897h1.74l.575-2.302h-1.559v-.897h1.775l.528-2.074h.937zm.692 2.97h-1.436l-.574 2.303h1.441l.569-2.302zm8.759-3.503v.896h-1.224c-.387 0-.657.08-.809.24-.148.157-.223.436-.223.838v.58h2.256v.838h-2.256V81h-1.078v-5.725h-1.752v-.838h1.752v-.456c0-.72.164-1.249.493-1.588.332-.34.847-.51 1.546-.51h1.295zm7.231 0v.896h-1.225c-.387 0-.656.08-.808.24-.149.157-.223.436-.223.838v.58h2.256v.838h-2.256V81h-1.078v-5.725h-1.752v-.838h1.752v-.456c0-.72.164-1.249.492-1.588.332-.34.848-.51 1.547-.51h1.295zm7.564 5.297v.527h-4.67v.035c-.031.895.139 1.537.51 1.928.375.39.902.586 1.582.586a3.86 3.86 0 001.078-.164c.375-.11.776-.276 1.201-.498v1.072c-.41.168-.806.293-1.189.375a4.972 4.972 0 01-1.102.129c-1.019 0-1.816-.305-2.39-.914-.574-.613-.862-1.457-.862-2.531 0-1.047.282-1.883.844-2.508.563-.625 1.313-.938 2.25-.938.836 0 1.494.284 1.975.85.484.566.742 1.25.773 2.05zm-1.078-.317a2.067 2.067 0 00-.498-1.172c-.281-.332-.687-.498-1.219-.498-.519 0-.947.172-1.283.516-.336.344-.519.73-.551 1.16l3.551-.006zm6.053-3.533l-2.76 4.623h2.76V73.33zm-.193-1.078h1.371v5.701h1.166v.961H222.1V81h-1.178v-2.086h-3.709v-1.12l3.516-5.542zm9.679 4.928v.527h-4.67v.035c-.031.895.139 1.537.51 1.928.375.39.902.586 1.582.586a3.86 3.86 0 001.078-.164c.375-.11.776-.276 1.201-.498v1.072c-.41.168-.806.293-1.189.375a4.972 4.972 0 01-1.102.129c-1.019 0-1.816-.305-2.39-.914-.574-.613-.862-1.457-.862-2.531 0-1.047.282-1.883.844-2.508.563-.625 1.313-.938 2.25-.938.836 0 1.494.284 1.975.85.484.566.742 1.25.773 2.05zm-1.078-.317a2.067 2.067 0 00-.498-1.172c-.281-.332-.687-.498-1.219-.498-.519 0-.947.172-1.283.516-.336.344-.519.73-.551 1.16l3.551-.006zm7.553-4.418v1.09a3.152 3.152 0 00-.785-.328 3.192 3.192 0 00-.868-.117c-.75 0-1.318.283-1.705.85-.386.562-.58 1.392-.58 2.49a2.1 2.1 0 01.78-.897c.332-.21.713-.316 1.142-.316.844 0 1.496.26 1.957.78.465.515.697 1.247.697 2.196 0 .946-.238 1.678-.714 2.198-.477.52-1.147.779-2.01.779-1.016 0-1.76-.363-2.233-1.09-.472-.73-.709-1.879-.709-3.445 0-1.477.284-2.602.85-3.375.57-.778 1.395-1.166 2.473-1.166.289 0 .578.031.867.094.289.058.568.144.838.257zm-2.11 3.698c-.503 0-.9.181-1.189.544-.289.364-.434.866-.434 1.506 0 .641.145 1.143.434 1.506.289.364.686.545 1.189.545.524 0 .918-.172 1.184-.516.266-.347.398-.859.398-1.535 0-.68-.132-1.191-.398-1.535-.266-.344-.66-.515-1.184-.515z" fill="#909090"/><path fill="#FFE4E6" d="M178 0h70v50h-70z"/><path d="M278.34 65.004h4.019V66h-5.314v-.996c.73-.77 1.369-1.45 1.916-2.04.547-.589.924-1.005 1.131-1.247.39-.477.654-.861.791-1.154.137-.297.205-.6.205-.909 0-.488-.145-.87-.434-1.148-.285-.278-.677-.416-1.177-.416a3.57 3.57 0 00-1.12.193 6.31 6.31 0 00-1.242.586v-1.195a6.435 6.435 0 011.184-.434c.39-.097.775-.146 1.154-.146.856 0 1.543.228 2.063.685.523.453.785 1.05.785 1.787 0 .375-.088.75-.264 1.125-.172.375-.453.79-.844 1.243-.218.254-.537.605-.955 1.054-.414.45-1.047 1.121-1.898 2.016zm8.654-7.881c.934 0 1.639.38 2.115 1.143.481.761.721 1.888.721 3.38 0 1.493-.24 2.62-.721 3.381-.476.762-1.181 1.143-2.115 1.143-.933 0-1.639-.38-2.115-1.143-.477-.761-.715-1.888-.715-3.38 0-1.493.238-2.62.715-3.381.476-.762 1.182-1.143 2.115-1.143zm0 8.11c.555 0 .967-.296 1.236-.885.274-.59.411-1.49.411-2.701a11.7 11.7 0 00-.118-1.747l-2.789 4.366c.293.644.713.966 1.26.966zm0-7.173c-.551 0-.963.295-1.236.885-.27.59-.404 1.49-.404 2.702 0 .55.037 1.066.111 1.546l2.73-4.353c-.297-.52-.697-.78-1.201-.78zm7.231-.937c.933 0 1.638.38 2.115 1.143.48.761.721 1.888.721 3.38 0 1.493-.241 2.62-.721 3.381-.477.762-1.182 1.143-2.115 1.143-.934 0-1.639-.38-2.116-1.143-.476-.761-.714-1.888-.714-3.38 0-1.493.238-2.62.714-3.381.477-.762 1.182-1.143 2.116-1.143zm0 8.11c.554 0 .966-.296 1.236-.885.273-.59.41-1.49.41-2.701 0-.645-.039-1.227-.117-1.747l-2.789 4.366c.293.644.713.966 1.26.966zm0-7.173c-.551 0-.963.295-1.237.885-.269.59-.404 1.49-.404 2.702 0 .55.037 1.066.111 1.546l2.731-4.353c-.297-.52-.697-.78-1.201-.78zm-28.524 14.356l-.527 2.074h1.435l.534-2.074h.937l-.533 2.074h1.43v.897h-1.647l-.574 2.302h1.465v.897h-1.694L265.918 81h-.938l.616-2.414h-1.442L263.539 81h-.932l.61-2.414h-1.512v-.897h1.74l.575-2.302h-1.559v-.897h1.775l.528-2.074h.937zm.692 2.97h-1.436l-.574 2.303h1.441l.569-2.302zm8.759-3.503v.896h-1.224c-.387 0-.657.08-.809.24-.148.157-.223.436-.223.838v.58h2.256v.838h-2.256V81h-1.078v-5.725h-1.752v-.838h1.752v-.456c0-.72.164-1.249.493-1.588.332-.34.847-.51 1.546-.51h1.295zm7.231 0v.896h-1.225c-.387 0-.656.08-.808.24-.149.157-.223.436-.223.838v.58h2.256v.838h-2.256V81h-1.078v-5.725h-1.752v-.838h1.752v-.456c0-.72.164-1.249.492-1.588.332-.34.848-.51 1.547-.51h1.295zm7.23 0v.896h-1.224c-.387 0-.657.08-.809.24-.148.157-.223.436-.223.838v.58h2.256v.838h-2.256V81h-1.078v-5.725h-1.752v-.838h1.752v-.456c0-.72.164-1.249.492-1.588.333-.34.848-.51 1.547-.51h1.295zm2.584 8.127h1.84V73.4l-2.203 1.06v-1.136l2.191-1.043h1.184v7.729h1.816V81h-4.828v-.99zm11.877-8.127v.896h-1.224c-.387 0-.657.08-.809.24-.148.157-.223.436-.223.838v.58h2.256v.838h-2.256V81h-1.078v-5.725h-1.752v-.838h1.752v-.456c0-.72.164-1.249.492-1.588.332-.34.848-.51 1.547-.51h1.295zm3.188 8.12h4.019V81h-5.314v-.996c.73-.77 1.369-1.45 1.916-2.04.547-.589.924-1.005 1.131-1.247.39-.477.654-.861.791-1.154.136-.297.205-.6.205-.909 0-.488-.145-.87-.434-1.148-.285-.278-.678-.416-1.178-.416a3.57 3.57 0 00-1.119.193 6.31 6.31 0 00-1.242.586v-1.195a6.409 6.409 0 011.184-.434c.39-.097.775-.146 1.154-.146.855 0 1.543.228 2.063.685.523.453.785 1.05.785 1.787 0 .375-.088.75-.264 1.125-.172.375-.453.79-.844 1.243-.219.254-.537.605-.955 1.054-.414.45-1.047 1.121-1.898 2.016z" fill="#909090"/><path fill="#FECDD3" d="M252 0h70v50h-70z"/><path d="M354.701 61.318c.574.153 1.014.424 1.319.815.304.386.457.87.457 1.453 0 .805-.272 1.437-.815 1.898-.539.457-1.287.686-2.244.686a7.02 7.02 0 01-1.23-.111 7.906 7.906 0 01-1.231-.323V64.56a5.69 5.69 0 001.178.463c.386.101.771.152 1.154.152.649 0 1.147-.147 1.494-.44.348-.293.522-.715.522-1.265 0-.508-.174-.91-.522-1.207-.347-.301-.818-.452-1.412-.452h-.902v-.972h.902c.543 0 .967-.12 1.272-.358.304-.238.457-.57.457-.996 0-.449-.143-.793-.428-1.03-.281-.243-.684-.364-1.207-.364-.348 0-.707.039-1.078.117-.371.078-.76.195-1.166.352v-1.09a14.5 14.5 0 011.259-.282c.372-.062.7-.093.985-.093.851 0 1.531.215 2.039.644.512.426.767.992.767 1.7 0 .48-.134.88-.404 1.2-.265.321-.654.547-1.166.68zm6.293-4.195c.934 0 1.639.38 2.115 1.143.481.761.721 1.888.721 3.38 0 1.493-.24 2.62-.721 3.381-.476.762-1.181 1.143-2.115 1.143-.933 0-1.639-.38-2.115-1.143-.477-.761-.715-1.888-.715-3.38 0-1.493.238-2.62.715-3.381.476-.762 1.182-1.143 2.115-1.143zm0 8.11c.555 0 .967-.296 1.236-.885.274-.59.411-1.49.411-2.701a11.7 11.7 0 00-.118-1.747l-2.789 4.366c.293.644.713.966 1.26.966zm0-7.173c-.551 0-.963.295-1.236.885-.27.59-.404 1.49-.404 2.702 0 .55.037 1.066.111 1.546l2.73-4.353c-.297-.52-.697-.78-1.201-.78zm7.231-.937c.933 0 1.638.38 2.115 1.143.48.761.721 1.888.721 3.38 0 1.493-.241 2.62-.721 3.381-.477.762-1.182 1.143-2.115 1.143-.934 0-1.639-.38-2.116-1.143-.476-.761-.714-1.888-.714-3.38 0-1.493.238-2.62.714-3.381.477-.762 1.182-1.143 2.116-1.143zm0 8.11c.554 0 .966-.296 1.236-.885.273-.59.41-1.49.41-2.701 0-.645-.039-1.227-.117-1.747l-2.789 4.366c.293.644.713.966 1.26.966zm0-7.173c-.551 0-.963.295-1.237.885-.269.59-.404 1.49-.404 2.702 0 .55.037 1.066.111 1.546l2.731-4.353c-.297-.52-.697-.78-1.201-.78zm-28.524 14.356l-.527 2.074h1.435l.534-2.074h.937l-.533 2.074h1.43v.897h-1.647l-.574 2.302h1.465v.897h-1.694L339.918 81h-.938l.616-2.414h-1.442L337.539 81h-.932l.61-2.414h-1.512v-.897h1.74l.575-2.302h-1.559v-.897h1.775l.528-2.074h.937zm.692 2.97h-1.436l-.574 2.303h1.441l.569-2.302zm8.759-3.503v.896h-1.224c-.387 0-.657.08-.809.24-.148.157-.223.436-.223.838v.58h2.256v.838h-2.256V81h-1.078v-5.725h-1.752v-.838h1.752v-.456c0-.72.164-1.249.493-1.588.332-.34.847-.51 1.546-.51h1.295zm6.03 3.392v-3.392h1.078V81h-1.078v-.826c-.18.324-.42.572-.721.744a2.06 2.06 0 01-1.031.252c-.793 0-1.418-.307-1.875-.92-.453-.617-.68-1.467-.68-2.549 0-1.066.229-1.902.686-2.508.457-.609 1.08-.914 1.869-.914.394 0 .742.086 1.043.258.3.168.537.414.709.738zm-3.17 2.45c0 .836.133 1.466.398 1.892.266.426.658.639 1.178.639.519 0 .914-.215 1.183-.645.274-.43.411-1.058.411-1.886 0-.832-.137-1.461-.411-1.887-.269-.43-.664-.645-1.183-.645-.52 0-.912.213-1.178.639-.265.426-.398 1.057-.398 1.893zm9.486-.024h-.357c-.629 0-1.104.112-1.424.334-.317.219-.475.547-.475.984 0 .395.119.702.358.92.238.22.568.329.99.329.594 0 1.06-.206 1.4-.616.34-.414.512-.984.516-1.71v-.24h-1.008zm2.092-.445V81h-1.084v-.973c-.231.391-.522.68-.873.867-.348.184-.772.276-1.272.276-.668 0-1.201-.188-1.599-.563-.399-.379-.598-.884-.598-1.517 0-.73.244-1.285.732-1.664.493-.38 1.213-.569 2.163-.569h1.447v-.17c-.004-.523-.137-.902-.399-1.136-.261-.239-.679-.358-1.253-.358a4.08 4.08 0 00-1.114.159c-.375.105-.74.26-1.095.462v-1.078a7.297 7.297 0 011.142-.34 5.124 5.124 0 011.067-.117c.542 0 1.005.08 1.388.24.387.16.699.4.938.721.148.196.254.438.316.727.063.285.094.715.094 1.289zm5.332-3.926l-2.76 4.623h2.76V73.33zm-.193-1.078h1.371v5.701h1.166v.961H370.1V81h-1.178v-2.086h-3.709v-1.12l3.516-5.542zm7.23 5.45h-.357c-.629 0-1.104.11-1.424.333-.317.219-.475.547-.475.984 0 .395.119.702.358.92.238.22.568.329.99.329.594 0 1.06-.206 1.4-.616.34-.414.512-.984.516-1.71v-.24h-1.008zm2.092-.446V81h-1.084v-.973c-.231.391-.522.68-.873.867-.348.184-.772.276-1.272.276-.668 0-1.201-.188-1.599-.563-.399-.379-.598-.884-.598-1.517 0-.73.244-1.285.732-1.664.493-.38 1.213-.569 2.163-.569h1.447v-.17c-.004-.523-.137-.902-.399-1.136-.261-.239-.679-.358-1.254-.358-.367 0-.738.053-1.113.159a4.89 4.89 0 00-1.096.462v-1.078a7.34 7.34 0 011.143-.34 5.122 5.122 0 011.066-.117c.543 0 1.006.08 1.389.24.387.16.699.4.938.721.148.196.254.438.316.727.063.285.094.715.094 1.289zm7.254-5.373v.896h-1.225c-.387 0-.656.08-.809.24-.148.157-.222.436-.222.838v.58h2.256v.838h-2.256V81h-1.078v-5.725h-1.752v-.838h1.752v-.456c0-.72.164-1.249.492-1.588.332-.34.848-.51 1.547-.51h1.295z" fill="#909090"/><path fill="#FDA4AF" d="M326 0h70v50h-70z"/><path d="M428.461 58.33l-2.76 4.623h2.76V58.33zm-.193-1.078h1.371v5.701h1.166v.961h-1.166V66h-1.178v-2.086h-3.709v-1.12l3.516-5.542zm6.726-.129c.934 0 1.639.38 2.115 1.143.481.761.721 1.888.721 3.38 0 1.493-.24 2.62-.721 3.381-.476.762-1.181 1.143-2.115 1.143-.933 0-1.639-.38-2.115-1.143-.477-.761-.715-1.888-.715-3.38 0-1.493.238-2.62.715-3.381.476-.762 1.182-1.143 2.115-1.143zm0 8.11c.555 0 .967-.296 1.236-.885.274-.59.411-1.49.411-2.701a11.7 11.7 0 00-.118-1.747l-2.789 4.366c.293.644.713.966 1.26.966zm0-7.173c-.551 0-.963.295-1.236.885-.27.59-.404 1.49-.404 2.702 0 .55.037 1.066.111 1.546l2.73-4.353c-.297-.52-.697-.78-1.201-.78zm7.231-.937c.933 0 1.638.38 2.115 1.143.48.761.721 1.888.721 3.38 0 1.493-.241 2.62-.721 3.381-.477.762-1.182 1.143-2.115 1.143-.934 0-1.639-.38-2.116-1.143-.476-.761-.714-1.888-.714-3.38 0-1.493.238-2.62.714-3.381.477-.762 1.182-1.143 2.116-1.143zm0 8.11c.554 0 .966-.296 1.236-.885.273-.59.41-1.49.41-2.701 0-.645-.039-1.227-.117-1.747l-2.789 4.366c.293.644.713.966 1.26.966zm0-7.173c-.551 0-.963.295-1.237.885-.269.59-.404 1.49-.404 2.702 0 .55.037 1.066.111 1.546l2.731-4.353c-.297-.52-.697-.78-1.201-.78zm-28.524 14.356l-.527 2.074h1.435l.534-2.074h.937l-.533 2.074h1.43v.897h-1.647l-.574 2.302h1.465v.897h-1.694L413.918 81h-.938l.616-2.414h-1.442L411.539 81h-.932l.61-2.414h-1.512v-.897h1.74l.575-2.302h-1.559v-.897h1.775l.528-2.074h.937zm.692 2.97h-1.436l-.574 2.303h1.441l.569-2.302zm8.759-3.503v.896h-1.224c-.387 0-.657.08-.809.24-.148.157-.223.436-.223.838v.58h2.256v.838h-2.256V81h-1.078v-5.725h-1.752v-.838h1.752v-.456c0-.72.164-1.249.493-1.588.332-.34.847-.51 1.546-.51h1.295zm6.381 5.842c0-.836-.133-1.467-.398-1.893-.266-.426-.658-.639-1.178-.639-.523 0-.92.215-1.189.645-.27.426-.405 1.055-.405 1.887 0 .828.135 1.457.405 1.886.269.43.666.645 1.189.645.52 0 .912-.213 1.178-.639.265-.426.398-1.056.398-1.892zm-3.17-2.45a1.82 1.82 0 01.709-.738 2.113 2.113 0 011.055-.258c.789 0 1.41.305 1.863.914.453.606.68 1.442.68 2.508 0 1.082-.229 1.932-.686 2.549-.453.613-1.076.92-1.869.92-.39 0-.736-.084-1.037-.252a1.904 1.904 0 01-.715-.744V81h-1.078v-9.117h1.078v3.392zm5.836-3.023h5.508v.504L434.578 81h-1.236l3.047-7.752h-4.19v-.996zm7.998 7.758h1.84V73.4l-2.203 1.06v-1.136l2.191-1.043h1.184v7.729h1.816V81h-4.828v-.99zm9.258-3.164c-.527 0-.935.148-1.225.445-.285.293-.427.709-.427 1.248 0 .54.144.959.433 1.26.293.297.7.445 1.219.445.531 0 .94-.146 1.225-.44.289-.296.433-.718.433-1.265 0-.535-.146-.951-.439-1.248-.289-.297-.695-.445-1.219-.445zm-1.031-.493c-.504-.128-.899-.369-1.184-.72-.281-.352-.422-.776-.422-1.272 0-.695.237-1.246.709-1.652.473-.41 1.116-.615 1.928-.615.816 0 1.461.205 1.934.615.472.406.709.957.709 1.652 0 .496-.143.92-.428 1.272-.281.351-.674.592-1.178.72.586.13 1.033.39 1.342.78.312.39.469.896.469 1.517 0 .79-.252 1.407-.756 1.852-.504.445-1.201.668-2.092.668s-1.588-.22-2.092-.662c-.5-.445-.75-1.06-.75-1.846 0-.625.155-1.133.463-1.523.313-.395.762-.657 1.348-.785zm-.428-1.88c0 .468.125.826.375 1.072.25.246.611.37 1.084.37.477 0 .84-.124 1.09-.37.25-.246.375-.604.375-1.072 0-.477-.125-.84-.375-1.09-.246-.25-.609-.375-1.09-.375-.473 0-.834.127-1.084.38-.25.25-.375.612-.375 1.085zm6.293-2.221h4.43v.996h-3.352v2.15c.168-.062.336-.107.504-.134.172-.032.344-.047.516-.047.906 0 1.625.267 2.156.802.531.536.797 1.26.797 2.174 0 .922-.279 1.649-.838 2.18-.555.531-1.314.797-2.279.797-.465 0-.891-.031-1.278-.094a4.717 4.717 0 01-1.031-.281v-1.201c.359.195.721.342 1.084.44.363.093.734.14 1.113.14.653 0 1.155-.172 1.506-.516.356-.344.533-.832.533-1.465 0-.625-.183-1.111-.55-1.459-.364-.347-.871-.521-1.524-.521-.316 0-.625.037-.926.111-.3.07-.588.178-.861.323v-4.395z" fill="#909090"/><path fill="#FB7185" d="M400 0h70v50h-70z"/><path d="M129.367 157.252h4.43v.996h-3.352v2.15c.168-.062.336-.107.504-.134.172-.032.344-.047.516-.047.906 0 1.625.267 2.156.803.531.535.797 1.259.797 2.173 0 .922-.279 1.649-.838 2.18-.555.531-1.314.797-2.279.797-.465 0-.891-.031-1.278-.094a4.705 4.705 0 01-1.031-.281v-1.201c.36.195.721.342 1.084.439.363.094.735.141 1.113.141.653 0 1.155-.172 1.506-.516.356-.344.534-.832.534-1.465 0-.625-.184-1.111-.551-1.459-.364-.347-.871-.521-1.524-.521-.316 0-.625.037-.925.111a3.64 3.64 0 00-.862.322v-4.394zm9.627-.129c.934 0 1.639.381 2.115 1.143.481.761.721 1.888.721 3.38 0 1.493-.24 2.62-.721 3.381-.476.762-1.181 1.143-2.115 1.143-.933 0-1.639-.381-2.115-1.143-.477-.761-.715-1.888-.715-3.381 0-1.492.238-2.619.715-3.38.476-.762 1.182-1.143 2.115-1.143zm0 8.109c.555 0 .967-.294 1.236-.884.274-.59.411-1.491.411-2.702 0-.644-.039-1.226-.118-1.746l-2.789 4.366c.293.644.713.966 1.26.966zm0-7.171c-.551 0-.963.294-1.236.884-.27.59-.404 1.491-.404 2.701 0 .551.037 1.067.111 1.547l2.73-4.353c-.297-.52-.697-.779-1.201-.779zm7.231-.938c.933 0 1.638.381 2.115 1.143.48.761.721 1.888.721 3.38 0 1.493-.241 2.62-.721 3.381-.477.762-1.182 1.143-2.115 1.143-.934 0-1.639-.381-2.116-1.143-.476-.761-.714-1.888-.714-3.381 0-1.492.238-2.619.714-3.38.477-.762 1.182-1.143 2.116-1.143zm0 8.109c.554 0 .966-.294 1.236-.884.273-.59.41-1.491.41-2.702 0-.644-.039-1.226-.117-1.746l-2.789 4.366c.293.644.713.966 1.26.966zm0-7.171c-.551 0-.963.294-1.237.884-.269.59-.404 1.491-.404 2.701 0 .551.037 1.067.111 1.547l2.731-4.353c-.297-.52-.697-.779-1.201-.779zm-28.524 14.355l-.527 2.074h1.435l.534-2.074h.937l-.533 2.074h1.43v.897h-1.647l-.574 2.302h1.465v.897h-1.694l-.609 2.414h-.938l.616-2.414h-1.442l-.615 2.414h-.932l.61-2.414h-1.512v-.897h1.74l.575-2.302h-1.559v-.897h1.775l.528-2.074h.937zm.692 2.971h-1.436l-.574 2.302h1.441l.569-2.302zm8.759-3.504v.896h-1.224c-.387 0-.657.08-.809.241-.148.156-.223.435-.223.837v.581h2.256v.837h-2.256V181h-1.078v-5.725h-1.752v-.837h1.752v-.458c0-.718.164-1.248.493-1.587.332-.34.847-.51 1.546-.51h1.295zm5.309 1.447l-2.76 4.623h2.76v-4.623zm-.193-1.078h1.371v5.701h1.166v.961h-1.166V181h-1.178v-2.086h-3.709v-1.119l3.516-5.543zm7.664 4.066c.574.153 1.013.424 1.318.815.305.387.457.871.457 1.453 0 .805-.271 1.437-.814 1.898-.539.457-1.288.686-2.245.686-.402 0-.812-.037-1.23-.111a7.952 7.952 0 01-1.23-.323v-1.177c.398.207.791.361 1.177.462.387.102.772.153 1.155.153.648 0 1.146-.147 1.494-.44.347-.293.521-.714.521-1.265 0-.508-.174-.91-.521-1.207-.348-.301-.819-.451-1.412-.451h-.903v-.973h.903c.543 0 .966-.119 1.271-.358.305-.238.457-.57.457-.996 0-.449-.142-.793-.428-1.031-.281-.242-.683-.363-1.207-.363a5.24 5.24 0 00-1.078.117c-.371.078-.76.195-1.166.352v-1.09a14.4 14.4 0 011.26-.281c.371-.063.699-.094.984-.094.852 0 1.532.215 2.039.644.512.426.768.992.768 1.7 0 .48-.135.88-.404 1.201-.266.32-.655.547-1.166.679zm8.912-4.435v.896h-1.225c-.387 0-.656.08-.808.241-.149.156-.223.435-.223.837v.581h2.256v.837h-2.256V181h-1.078v-5.725h-1.752v-.837h1.752v-.458c0-.718.164-1.248.492-1.587.332-.34.848-.51 1.547-.51h1.295zm2.215.369h4.429v.996h-3.351v2.15c.168-.062.336-.107.504-.134.171-.032.343-.047.515-.047.906 0 1.625.267 2.156.803.532.535.797 1.259.797 2.173 0 .922-.279 1.649-.838 2.18-.554.531-1.314.797-2.279.797a7.97 7.97 0 01-1.277-.094 4.674 4.674 0 01-1.031-.281v-1.201c.359.195.72.342 1.084.439.363.094.734.141 1.113.141.652 0 1.154-.172 1.506-.516.355-.344.533-.832.533-1.465 0-.625-.184-1.111-.551-1.459-.363-.347-.871-.521-1.523-.521a3.86 3.86 0 00-.926.111 3.617 3.617 0 00-.861.322v-4.394zm12.58 4.928v.527h-4.67v.035c-.031.895.138 1.537.51 1.928.375.391.902.586 1.582.586.343 0 .703-.055 1.078-.164.375-.11.775-.276 1.201-.498v1.072c-.41.168-.807.293-1.19.375a4.97 4.97 0 01-1.101.129c-1.02 0-1.817-.305-2.391-.914-.574-.613-.861-1.457-.861-2.531 0-1.047.281-1.883.844-2.508.562-.625 1.312-.938 2.25-.938.836 0 1.494.283 1.974.85.485.566.742 1.25.774 2.051zm-1.078-.317a2.065 2.065 0 00-.499-1.172c-.281-.332-.687-.498-1.218-.498-.52 0-.948.172-1.283.516-.336.344-.52.73-.551 1.16l3.551-.006z" fill="#909090"/><path fill="#F43F5E" d="M104 100h70v50h-70z"/><path d="M207.961 157.445v1.09a3.167 3.167 0 00-.785-.328 3.194 3.194 0 00-.867-.117c-.75 0-1.319.283-1.705.849-.387.563-.581 1.393-.581 2.491.188-.391.448-.69.78-.897a2.084 2.084 0 011.142-.316c.844 0 1.496.26 1.957.779.465.516.698 1.248.698 2.197 0 .946-.239 1.678-.715 2.198-.477.519-1.147.779-2.01.779-1.016 0-1.76-.363-2.232-1.09-.473-.73-.709-1.879-.709-3.445 0-1.477.283-2.602.849-3.375.571-.778 1.395-1.166 2.473-1.166.289 0 .578.031.867.094.289.058.568.144.838.257zm-2.109 3.698c-.504 0-.901.181-1.19.545-.289.363-.433.865-.433 1.505 0 .641.144 1.143.433 1.506.289.363.686.545 1.19.545.523 0 .918-.172 1.183-.515.266-.348.399-.86.399-1.536 0-.679-.133-1.191-.399-1.535-.265-.344-.66-.515-1.183-.515zm7.142-4.02c.934 0 1.639.381 2.115 1.143.481.761.721 1.888.721 3.38 0 1.493-.24 2.62-.721 3.381-.476.762-1.181 1.143-2.115 1.143-.933 0-1.639-.381-2.115-1.143-.477-.761-.715-1.888-.715-3.381 0-1.492.238-2.619.715-3.38.476-.762 1.182-1.143 2.115-1.143zm0 8.109c.555 0 .967-.294 1.236-.884.274-.59.411-1.491.411-2.702 0-.644-.039-1.226-.118-1.746l-2.789 4.366c.293.644.713.966 1.26.966zm0-7.171c-.551 0-.963.294-1.236.884-.27.59-.404 1.491-.404 2.701 0 .551.037 1.067.111 1.547l2.73-4.353c-.297-.52-.697-.779-1.201-.779zm7.231-.938c.933 0 1.638.381 2.115 1.143.48.761.721 1.888.721 3.38 0 1.493-.241 2.62-.721 3.381-.477.762-1.182 1.143-2.115 1.143-.934 0-1.639-.381-2.116-1.143-.476-.761-.714-1.888-.714-3.381 0-1.492.238-2.619.714-3.38.477-.762 1.182-1.143 2.116-1.143zm0 8.109c.554 0 .966-.294 1.236-.884.273-.59.41-1.491.41-2.702 0-.644-.039-1.226-.117-1.746l-2.789 4.366c.293.644.713.966 1.26.966zm0-7.171c-.551 0-.963.294-1.237.884-.269.59-.404 1.491-.404 2.701 0 .551.037 1.067.111 1.547l2.731-4.353c-.297-.52-.697-.779-1.201-.779zm-28.524 14.355l-.527 2.074h1.435l.534-2.074h.937l-.533 2.074h1.43v.897h-1.647l-.574 2.302h1.465v.897h-1.694l-.609 2.414h-.938l.616-2.414h-1.442l-.615 2.414h-.932l.61-2.414h-1.512v-.897h1.74l.575-2.302h-1.559v-.897h1.775l.528-2.074h.937zm.692 2.971h-1.436l-.574 2.302h1.441l.569-2.302zm9.093 1.793v.527h-4.67v.035c-.031.895.139 1.537.51 1.928.375.391.903.586 1.582.586a3.86 3.86 0 001.078-.164 6.72 6.72 0 001.202-.498v1.072a7.056 7.056 0 01-1.19.375 4.972 4.972 0 01-1.102.129c-1.019 0-1.816-.305-2.39-.914-.574-.613-.861-1.457-.861-2.531 0-1.047.281-1.883.843-2.508.563-.625 1.313-.938 2.25-.938.836 0 1.494.283 1.975.85.484.566.742 1.25.773 2.051zm-1.078-.317a2.07 2.07 0 00-.498-1.172c-.281-.332-.687-.498-1.219-.498-.519 0-.947.172-1.283.516-.336.344-.519.73-.551 1.16l3.551-.006zm3.328 3.147h1.84v-6.61l-2.203 1.061v-1.137l2.191-1.043h1.184v7.729h1.816v.99h-4.828v-.99zm7.231 0h1.84v-6.61l-2.203 1.061v-1.137l2.191-1.043h1.184v7.729h1.816v.99h-4.828v-.99zm10.676-4.735v-3.392h1.078V181h-1.078v-.826c-.18.324-.42.572-.721.744a2.059 2.059 0 01-1.031.252c-.793 0-1.418-.307-1.875-.92-.454-.617-.68-1.467-.68-2.549 0-1.066.228-1.902.685-2.508.458-.609 1.081-.914 1.87-.914.394 0 .742.086 1.043.258.3.168.537.414.709.738zm-3.17 2.45c0 .836.132 1.466.398 1.892.266.426.658.639 1.178.639.519 0 .914-.215 1.183-.645.274-.429.411-1.058.411-1.886 0-.832-.137-1.461-.411-1.887-.269-.43-.664-.645-1.183-.645-.52 0-.912.213-1.178.639-.266.426-.398 1.057-.398 1.893zm9.679-4.395l-2.759 4.623h2.759v-4.623zm-.193-1.078h1.371v5.701h1.166v.961h-1.166V181h-1.178v-2.086h-3.709v-1.119l3.516-5.543zm6.727 4.594c-.528 0-.936.148-1.225.445-.285.293-.428.709-.428 1.248s.145.959.434 1.26c.293.297.699.445 1.219.445.531 0 .939-.146 1.224-.439.289-.297.434-.719.434-1.266 0-.535-.147-.951-.44-1.248-.289-.297-.695-.445-1.218-.445zm-1.032-.492c-.504-.129-.898-.37-1.183-.721-.282-.352-.422-.776-.422-1.272 0-.695.236-1.246.709-1.652.472-.41 1.115-.615 1.928-.615.816 0 1.46.205 1.933.615.473.406.709.957.709 1.652 0 .496-.142.92-.428 1.272-.281.351-.673.592-1.177.721.586.128 1.033.388 1.341.779.313.39.469.896.469 1.517 0 .789-.252 1.407-.756 1.852-.504.445-1.201.668-2.091.668-.891 0-1.588-.221-2.092-.662-.5-.446-.75-1.061-.75-1.846 0-.625.154-1.133.463-1.523.312-.395.761-.657 1.347-.785zm-.427-1.881c0 .468.125.826.375 1.072.25.246.611.369 1.084.369.476 0 .839-.123 1.089-.369s.375-.604.375-1.072c0-.477-.125-.84-.375-1.09-.246-.25-.609-.375-1.089-.375-.473 0-.834.127-1.084.381-.25.25-.375.611-.375 1.084z" fill="#909090"/><path fill="#E11D48" d="M178 100h70v50h-70z"/><path d="M276.969 157.252h5.508v.504L279.348 166h-1.237l3.047-7.752h-4.189v-.996zm10.025-.129c.934 0 1.639.381 2.115 1.143.481.761.721 1.888.721 3.38 0 1.493-.24 2.62-.721 3.381-.476.762-1.181 1.143-2.115 1.143-.933 0-1.639-.381-2.115-1.143-.477-.761-.715-1.888-.715-3.381 0-1.492.238-2.619.715-3.38.476-.762 1.182-1.143 2.115-1.143zm0 8.109c.555 0 .967-.294 1.236-.884.274-.59.411-1.491.411-2.702 0-.644-.039-1.226-.118-1.746l-2.789 4.366c.293.644.713.966 1.26.966zm0-7.171c-.551 0-.963.294-1.236.884-.27.59-.404 1.491-.404 2.701 0 .551.037 1.067.111 1.547l2.73-4.353c-.297-.52-.697-.779-1.201-.779zm7.231-.938c.933 0 1.638.381 2.115 1.143.48.761.721 1.888.721 3.38 0 1.493-.241 2.62-.721 3.381-.477.762-1.182 1.143-2.115 1.143-.934 0-1.639-.381-2.116-1.143-.476-.761-.714-1.888-.714-3.381 0-1.492.238-2.619.714-3.38.477-.762 1.182-1.143 2.116-1.143zm0 8.109c.554 0 .966-.294 1.236-.884.273-.59.41-1.491.41-2.702 0-.644-.039-1.226-.117-1.746l-2.789 4.366c.293.644.713.966 1.26.966zm0-7.171c-.551 0-.963.294-1.237.884-.269.59-.404 1.491-.404 2.701 0 .551.037 1.067.111 1.547l2.731-4.353c-.297-.52-.697-.779-1.201-.779zm-28.524 14.355l-.527 2.074h1.435l.534-2.074h.937l-.533 2.074h1.43v.897h-1.647l-.574 2.302h1.465v.897h-1.694l-.609 2.414h-.938l.616-2.414h-1.442l-.615 2.414h-.932l.61-2.414h-1.512v-.897h1.74l.575-2.302h-1.559v-.897h1.775l.528-2.074h.937zm.692 2.971h-1.436l-.574 2.302h1.441l.569-2.302zm7.91 2.338c0-.836-.133-1.467-.399-1.893-.265-.426-.658-.639-1.177-.639-.524 0-.92.215-1.19.645-.269.426-.404 1.055-.404 1.887 0 .828.135 1.457.404 1.886.27.43.666.645 1.19.645.519 0 .912-.213 1.177-.639.266-.426.399-1.056.399-1.892zm-3.17-2.45c.172-.32.408-.566.709-.738a2.105 2.105 0 011.054-.258c.79 0 1.411.305 1.864.914.453.606.679 1.442.679 2.508 0 1.082-.228 1.932-.685 2.549-.453.613-1.076.92-1.869.92-.391 0-.737-.084-1.037-.252a1.899 1.899 0 01-.715-.744V181h-1.078v-9.117h1.078v3.392zm11.584 1.905v.527h-4.67v.035c-.031.895.139 1.537.51 1.928.375.391.902.586 1.582.586.343 0 .703-.055 1.078-.164.375-.11.775-.276 1.201-.498v1.072c-.41.168-.807.293-1.189.375a4.98 4.98 0 01-1.102.129c-1.02 0-1.816-.305-2.391-.914-.574-.613-.861-1.457-.861-2.531 0-1.047.281-1.883.844-2.508.562-.625 1.312-.938 2.25-.938.836 0 1.494.283 1.974.85.485.566.743 1.25.774 2.051zm-1.078-.317a2.07 2.07 0 00-.498-1.172c-.282-.332-.688-.498-1.219-.498-.52 0-.947.172-1.283.516-.336.344-.52.73-.551 1.16l3.551-.006zm3.328 3.147h1.84v-6.61l-2.203 1.061v-1.137l2.191-1.043h1.184v7.729h1.816v.99h-4.828v-.99zm7.834-.006h4.019V181h-5.314v-.996c.73-.77 1.369-1.449 1.916-2.039.547-.59.924-1.006 1.131-1.248.39-.477.654-.862.791-1.155.136-.296.205-.599.205-.908 0-.488-.145-.871-.434-1.148-.285-.277-.677-.416-1.177-.416a3.57 3.57 0 00-1.12.193c-.39.129-.804.324-1.242.586v-1.195a6.416 6.416 0 011.184-.434c.39-.097.775-.146 1.154-.146.856 0 1.543.228 2.063.685.523.453.785 1.049.785 1.787 0 .375-.088.75-.264 1.125-.172.375-.453.789-.844 1.243-.218.254-.537.605-.955 1.054-.414.45-1.047 1.121-1.898 2.016zm9.592-3.686c.574.153 1.013.424 1.318.815.305.387.457.871.457 1.453 0 .805-.272 1.437-.814 1.898-.54.457-1.288.686-2.245.686-.402 0-.812-.037-1.23-.111a7.994 7.994 0 01-1.231-.323v-1.177c.399.207.791.361 1.178.462.387.102.772.153 1.154.153.649 0 1.147-.147 1.495-.44.347-.293.521-.714.521-1.265 0-.508-.174-.91-.521-1.207-.348-.301-.819-.451-1.413-.451h-.902v-.973h.902c.543 0 .967-.119 1.272-.358.305-.238.457-.57.457-.996 0-.449-.143-.793-.428-1.031-.281-.242-.683-.363-1.207-.363a5.24 5.24 0 00-1.078.117c-.371.078-.76.195-1.166.352v-1.09a14.4 14.4 0 011.26-.281c.371-.063.699-.094.984-.094.852 0 1.532.215 2.039.644.512.426.768.992.768 1.7 0 .48-.135.88-.404 1.201-.266.32-.655.547-1.166.679zm8.9 4.348a3.635 3.635 0 01-.897.375 3.43 3.43 0 01-.937.129c-1.016 0-1.811-.305-2.385-.914-.57-.61-.855-1.453-.855-2.531 0-1.079.285-1.922.855-2.532.574-.609 1.369-.914 2.385-.914.316 0 .625.041.926.123.301.082.603.209.908.381v1.131a2.915 2.915 0 00-.861-.551 2.63 2.63 0 00-.973-.17c-.676 0-1.195.219-1.559.657-.363.437-.545 1.062-.545 1.875 0 .808.182 1.433.545 1.875.368.437.887.656 1.559.656.375 0 .711-.057 1.008-.17.297-.117.572-.297.826-.539v1.119z" fill="#909090"/><path fill="#BE123C" d="M252 100h70v50h-70z"/><path d="M353.764 161.846c-.528 0-.936.148-1.225.445-.285.293-.428.709-.428 1.248s.145.959.434 1.26c.293.297.699.445 1.219.445.531 0 .939-.146 1.224-.439.289-.297.434-.719.434-1.266 0-.535-.147-.951-.44-1.248-.289-.297-.695-.445-1.218-.445zm-1.032-.492c-.503-.129-.898-.37-1.183-.721-.281-.352-.422-.776-.422-1.272 0-.695.236-1.246.709-1.652.473-.41 1.115-.615 1.928-.615.816 0 1.461.205 1.933.615.473.406.709.957.709 1.652 0 .496-.142.92-.427 1.272-.282.351-.674.592-1.178.721.586.128 1.033.388 1.342.779.312.39.468.896.468 1.517 0 .789-.252 1.407-.756 1.852-.503.445-1.201.668-2.091.668-.891 0-1.588-.221-2.092-.662-.5-.446-.75-1.061-.75-1.846 0-.625.154-1.133.463-1.523.312-.395.761-.657 1.347-.785zm-.427-1.881c0 .468.125.826.375 1.072.25.246.611.369 1.084.369.476 0 .84-.123 1.09-.369.25-.246.375-.604.375-1.072 0-.477-.125-.84-.375-1.09-.247-.25-.61-.375-1.09-.375-.473 0-.834.127-1.084.381-.25.25-.375.611-.375 1.084zm8.689-2.35c.934 0 1.639.381 2.115 1.143.481.761.721 1.888.721 3.38 0 1.493-.24 2.62-.721 3.381-.476.762-1.181 1.143-2.115 1.143-.933 0-1.639-.381-2.115-1.143-.477-.761-.715-1.888-.715-3.381 0-1.492.238-2.619.715-3.38.476-.762 1.182-1.143 2.115-1.143zm0 8.109c.555 0 .967-.294 1.236-.884.274-.59.411-1.491.411-2.702 0-.644-.039-1.226-.118-1.746l-2.789 4.366c.293.644.713.966 1.26.966zm0-7.171c-.551 0-.963.294-1.236.884-.27.59-.404 1.491-.404 2.701 0 .551.037 1.067.111 1.547l2.73-4.353c-.297-.52-.697-.779-1.201-.779zm7.231-.938c.933 0 1.638.381 2.115 1.143.48.761.721 1.888.721 3.38 0 1.493-.241 2.62-.721 3.381-.477.762-1.182 1.143-2.115 1.143-.934 0-1.639-.381-2.116-1.143-.476-.761-.714-1.888-.714-3.381 0-1.492.238-2.619.714-3.38.477-.762 1.182-1.143 2.116-1.143zm0 8.109c.554 0 .966-.294 1.236-.884.273-.59.41-1.491.41-2.702 0-.644-.039-1.226-.117-1.746l-2.789 4.366c.293.644.713.966 1.26.966zm0-7.171c-.551 0-.963.294-1.237.884-.269.59-.404 1.491-.404 2.701 0 .551.037 1.067.111 1.547l2.731-4.353c-.297-.52-.697-.779-1.201-.779zm-28.524 14.355l-.527 2.074h1.435l.534-2.074h.937l-.533 2.074h1.43v.897h-1.647l-.574 2.302h1.465v.897h-1.694l-.609 2.414h-.938l.616-2.414h-1.442l-.615 2.414h-.932l.61-2.414h-1.512v-.897h1.74l.575-2.302h-1.559v-.897h1.775l.528-2.074h.937zm.692 2.971h-1.436l-.574 2.302h1.441l.569-2.302zm6.023 1.734c.504 0 .898-.182 1.184-.545.289-.363.433-.865.433-1.506 0-.64-.144-1.142-.433-1.506-.286-.363-.68-.544-1.184-.544-.523 0-.918.173-1.184.521-.265.344-.398.854-.398 1.529 0 .68.131 1.192.393 1.535.265.344.662.516 1.189.516zm-2.109 3.697v-1.089c.246.144.507.255.785.333.277.075.566.112.867.112.75 0 1.316-.281 1.699-.844.387-.566.58-1.398.58-2.496a2.085 2.085 0 01-.773.902 2.115 2.115 0 01-1.143.311c-.843 0-1.498-.26-1.963-.779-.461-.52-.691-1.256-.691-2.209 0-.942.236-1.67.709-2.186.477-.519 1.148-.779 2.016-.779 1.015 0 1.759.365 2.232 1.095.473.731.709 1.879.709 3.446 0 1.472-.285 2.597-.855 3.375-.567.773-1.391 1.16-2.473 1.16-.285 0-.572-.031-.861-.094a4.304 4.304 0 01-.838-.258zm12.076-8.935v.896h-1.225c-.387 0-.656.08-.808.241-.149.156-.223.435-.223.837v.581h2.256v.837h-2.256V181h-1.078v-5.725h-1.752v-.837h1.752v-.458c0-.718.164-1.248.492-1.587.332-.34.848-.51 1.547-.51h1.295zm2.584 8.127h1.84v-6.61l-2.203 1.061v-1.137l2.191-1.043h1.184v7.729h1.816v.99h-4.828v-.99zm7.834-.006h4.019V181h-5.314v-.996c.73-.77 1.369-1.449 1.916-2.039.547-.59.924-1.006 1.131-1.248.39-.477.654-.862.791-1.155.136-.296.205-.599.205-.908 0-.488-.145-.871-.434-1.148-.285-.277-.677-.416-1.177-.416a3.57 3.57 0 00-1.12.193c-.39.129-.804.324-1.242.586v-1.195a6.416 6.416 0 011.184-.434c.39-.097.775-.146 1.154-.146.856 0 1.543.228 2.063.685.523.453.785 1.049.785 1.787 0 .375-.088.75-.264 1.125-.172.375-.453.789-.844 1.243-.218.254-.537.605-.955 1.054-.414.45-1.047 1.121-1.898 2.016zm9.592-3.686c.574.153 1.013.424 1.318.815.305.387.457.871.457 1.453 0 .805-.272 1.437-.814 1.898-.54.457-1.288.686-2.245.686-.402 0-.812-.037-1.23-.111a7.994 7.994 0 01-1.231-.323v-1.177c.399.207.791.361 1.178.462.387.102.772.153 1.154.153.649 0 1.147-.147 1.495-.44.347-.293.521-.714.521-1.265 0-.508-.174-.91-.521-1.207-.348-.301-.819-.451-1.413-.451h-.902v-.973h.902c.543 0 .967-.119 1.272-.358.305-.238.457-.57.457-.996 0-.449-.143-.793-.428-1.031-.281-.242-.683-.363-1.207-.363a5.24 5.24 0 00-1.078.117c-.371.078-.76.195-1.166.352v-1.09a14.4 14.4 0 011.26-.281c.371-.063.699-.094.984-.094.852 0 1.532.215 2.039.644.512.426.768.992.768 1.7 0 .48-.135.88-.404 1.201-.266.32-.655.547-1.166.679zm6.175.803c.504 0 .899-.182 1.184-.545.289-.363.434-.865.434-1.506 0-.64-.145-1.142-.434-1.506-.285-.363-.68-.544-1.184-.544-.523 0-.918.173-1.183.521-.266.344-.399.854-.399 1.529 0 .68.131 1.192.393 1.535.266.344.662.516 1.189.516zm-2.109 3.697v-1.089c.246.144.508.255.785.333.277.075.567.112.867.112.75 0 1.317-.281 1.7-.844.386-.566.58-1.398.58-2.496a2.093 2.093 0 01-.774.902 2.114 2.114 0 01-1.142.311c-.844 0-1.498-.26-1.963-.779-.461-.52-.692-1.256-.692-2.209 0-.942.237-1.67.709-2.186.477-.519 1.149-.779 2.016-.779 1.016 0 1.76.365 2.232 1.095.473.731.709 1.879.709 3.446 0 1.472-.285 2.597-.855 3.375-.567.773-1.391 1.16-2.473 1.16-.285 0-.572-.031-.861-.094a4.346 4.346 0 01-.838-.258z" fill="#909090"/><path fill="#9F1239" d="M326 100h70v50h-70z"/><path d="M427.646 162.121c.504 0 .899-.182 1.184-.545.289-.363.434-.865.434-1.506 0-.64-.145-1.142-.434-1.506-.285-.363-.68-.544-1.184-.544-.523 0-.917.173-1.183.521-.266.344-.399.854-.399 1.529 0 .68.131 1.192.393 1.535.266.344.662.516 1.189.516zm-2.109 3.697v-1.089c.246.144.508.255.785.333.278.075.567.112.867.112.75 0 1.317-.281 1.7-.844.386-.566.58-1.398.58-2.496a2.093 2.093 0 01-.774.902 2.114 2.114 0 01-1.142.311c-.844 0-1.498-.26-1.963-.779-.461-.52-.692-1.256-.692-2.209 0-.942.237-1.67.709-2.186.477-.519 1.149-.779 2.016-.779 1.016 0 1.76.365 2.232 1.095.473.731.709 1.879.709 3.446 0 1.472-.285 2.597-.855 3.375-.566.773-1.391 1.16-2.473 1.16-.285 0-.572-.031-.861-.094a4.346 4.346 0 01-.838-.258zm9.457-8.695c.934 0 1.639.381 2.115 1.143.481.761.721 1.888.721 3.38 0 1.493-.24 2.62-.721 3.381-.476.762-1.181 1.143-2.115 1.143-.933 0-1.639-.381-2.115-1.143-.477-.761-.715-1.888-.715-3.381 0-1.492.238-2.619.715-3.38.476-.762 1.182-1.143 2.115-1.143zm0 8.109c.555 0 .967-.294 1.236-.884.274-.59.411-1.491.411-2.702 0-.644-.039-1.226-.118-1.746l-2.789 4.366c.293.644.713.966 1.26.966zm0-7.171c-.551 0-.963.294-1.236.884-.27.59-.404 1.491-.404 2.701 0 .551.037 1.067.111 1.547l2.73-4.353c-.297-.52-.697-.779-1.201-.779zm7.231-.938c.933 0 1.638.381 2.115 1.143.48.761.721 1.888.721 3.38 0 1.493-.241 2.62-.721 3.381-.477.762-1.182 1.143-2.115 1.143-.934 0-1.639-.381-2.116-1.143-.476-.761-.714-1.888-.714-3.381 0-1.492.238-2.619.714-3.38.477-.762 1.182-1.143 2.116-1.143zm0 8.109c.554 0 .966-.294 1.236-.884.273-.59.41-1.491.41-2.702 0-.644-.039-1.226-.117-1.746l-2.789 4.366c.293.644.713.966 1.26.966zm0-7.171c-.551 0-.963.294-1.237.884-.269.59-.404 1.491-.404 2.701 0 .551.037 1.067.111 1.547l2.731-4.353c-.297-.52-.697-.779-1.201-.779zm-28.524 14.355l-.527 2.074h1.435l.534-2.074h.937l-.533 2.074h1.43v.897h-1.647l-.574 2.302h1.465v.897h-1.694l-.609 2.414h-.938l.616-2.414h-1.442l-.615 2.414h-.932l.61-2.414h-1.512v-.897h1.74l.575-2.302h-1.559v-.897h1.775l.528-2.074h.937zm.692 2.971h-1.436l-.574 2.302h1.441l.569-2.302zm6.14 1.459c-.527 0-.935.148-1.224.445-.286.293-.428.709-.428 1.248s.144.959.433 1.26c.293.297.7.445 1.219.445.531 0 .94-.146 1.225-.439.289-.297.433-.719.433-1.266 0-.535-.146-.951-.439-1.248-.289-.297-.695-.445-1.219-.445zm-1.031-.492c-.504-.129-.898-.37-1.184-.721-.281-.352-.422-.776-.422-1.272 0-.695.237-1.246.709-1.652.473-.41 1.116-.615 1.928-.615.817 0 1.461.205 1.934.615.472.406.709.957.709 1.652 0 .496-.143.92-.428 1.272-.281.351-.674.592-1.178.721.586.128 1.034.388 1.342.779.313.39.469.896.469 1.517 0 .789-.252 1.407-.756 1.852-.504.445-1.201.668-2.092.668-.89 0-1.588-.221-2.092-.662-.5-.446-.75-1.061-.75-1.846 0-.625.155-1.133.463-1.523.313-.395.762-.657 1.348-.785zm-.428-1.881c0 .468.125.826.375 1.072.25.246.612.369 1.084.369.477 0 .84-.123 1.09-.369.25-.246.375-.604.375-1.072 0-.477-.125-.84-.375-1.09-.246-.25-.609-.375-1.09-.375-.472 0-.834.127-1.084.381-.25.25-.375.611-.375 1.084zm8.69 2.373c-.528 0-.936.148-1.225.445-.285.293-.428.709-.428 1.248s.145.959.434 1.26c.293.297.699.445 1.219.445.531 0 .939-.146 1.224-.439.289-.297.434-.719.434-1.266 0-.535-.147-.951-.44-1.248-.289-.297-.695-.445-1.218-.445zm-1.032-.492c-.503-.129-.898-.37-1.183-.721-.281-.352-.422-.776-.422-1.272 0-.695.236-1.246.709-1.652.473-.41 1.115-.615 1.928-.615.816 0 1.461.205 1.933.615.473.406.709.957.709 1.652 0 .496-.142.92-.427 1.272-.282.351-.674.592-1.178.721.586.128 1.033.388 1.342.779.312.39.468.896.468 1.517 0 .789-.252 1.407-.756 1.852-.503.445-1.201.668-2.091.668-.891 0-1.588-.221-2.092-.662-.5-.446-.75-1.061-.75-1.846 0-.625.154-1.133.463-1.523.312-.395.761-.657 1.347-.785zm-.427-1.881c0 .468.125.826.375 1.072.25.246.611.369 1.084.369.476 0 .84-.123 1.09-.369.25-.246.375-.604.375-1.072 0-.477-.125-.84-.375-1.09-.247-.25-.61-.375-1.09-.375-.473 0-.834.127-1.084.381-.25.25-.375.611-.375 1.084zm6.662 5.537h1.84v-6.61l-2.203 1.061v-1.137l2.191-1.043h1.184v7.729h1.816v.99h-4.828v-.99zm10.195-3.692c.574.153 1.014.424 1.318.815.305.387.458.871.458 1.453 0 .805-.272 1.437-.815 1.898-.539.457-1.287.686-2.244.686-.402 0-.813-.037-1.231-.111a7.952 7.952 0 01-1.23-.323v-1.177a5.65 5.65 0 001.178.462c.386.102.771.153 1.154.153.648 0 1.146-.147 1.494-.44.348-.293.522-.714.522-1.265 0-.508-.174-.91-.522-1.207-.348-.301-.818-.451-1.412-.451h-.902v-.973h.902c.543 0 .967-.119 1.272-.358.304-.238.457-.57.457-.996 0-.449-.143-.793-.428-1.031-.281-.242-.684-.363-1.207-.363-.348 0-.707.039-1.078.117-.371.078-.76.195-1.166.352v-1.09c.472-.125.892-.219 1.259-.281.371-.063.7-.094.985-.094.851 0 1.531.215 2.039.644.512.426.767.992.767 1.7 0 .48-.134.88-.404 1.201-.266.32-.654.547-1.166.679zm7.231 0c.574.153 1.013.424 1.318.815.305.387.457.871.457 1.453 0 .805-.272 1.437-.814 1.898-.54.457-1.288.686-2.245.686-.402 0-.812-.037-1.23-.111a7.994 7.994 0 01-1.231-.323v-1.177c.399.207.791.361 1.178.462.387.102.772.153 1.154.153.649 0 1.147-.147 1.495-.44.347-.293.521-.714.521-1.265 0-.508-.174-.91-.521-1.207-.348-.301-.819-.451-1.413-.451h-.902v-.973h.902c.543 0 .967-.119 1.272-.358.305-.238.457-.57.457-.996 0-.449-.143-.793-.428-1.031-.281-.242-.683-.363-1.207-.363a5.24 5.24 0 00-1.078.117c-.371.078-.76.195-1.166.352v-1.09a14.4 14.4 0 011.26-.281c.371-.063.699-.094.984-.094.852 0 1.532.215 2.039.644.512.426.768.992.768 1.7 0 .48-.135.88-.404 1.201-.266.32-.655.547-1.166.679zm3.498-4.066h5.507v.504L456.27 181h-1.237l3.047-7.752h-4.189v-.996z" fill="#909090"/><path fill="#881337" d="M400 100h70v50h-70z"/></svg>