<svg width="235" height="50" fill="none" xmlns="http://www.w3.org/2000/svg"><path d="M57.051 15.74h6.489l2.962 11.99 6.912-11.99h5.713l3.033 12.132 7.264-12.131h6.56L84.768 34.29h-7.617l-2.327-9.945-5.643 9.945h-7.476L57.05 15.74zm40.766 0h6.348l-3.245 18.55h-6.347l3.244-18.55zm.353-5.783c.423-2.398 1.974-3.385 4.372-3.385 2.398 0 3.668.987 3.245 3.385-.423 2.398-1.975 3.385-4.444 3.385-2.398 0-3.597-.917-3.173-3.385zm9.874 5.783h6.912l-2.046 7.617h.283c1.833-5.5 4.937-8.252 10.649-8.252 5.22.071 7.124 2.469 5.643 11.073l-1.411 8.04h-6.347l1.269-7.405c.917-5.219-.141-6.912-3.456-6.912-3.456 0-6.418 3.527-7.335 8.675l-.987 5.643h-6.348l3.174-18.479zm24.179 24.615l.987-5.43c1.34.916 4.796 1.692 8.534 1.692 5.36 0 7.406-1.763 8.464-6.489l.282-1.34c-1.693 3.738-5.643 5.642-10.086 5.642-5.854 0-9.239-3.526-8.181-9.591.987-5.854 5.713-9.733 11.214-9.733 4.514 0 7.899 2.397 8.04 6.63h.564l.494-5.996h6.277l-2.892 16.292c-1.199 6.7-6.7 9.663-14.035 9.663a34.31 34.31 0 01-9.662-1.34zm17.985-15.446c.564-3.174-2.046-4.725-5.149-4.725-3.174 0-6.136 1.551-6.7 4.725-.565 3.244 1.833 4.867 5.007 4.867 3.104.07 6.277-1.623 6.842-4.867zm8.957 8.534l.916-5.36c2.892 1.199 5.431 1.693 8.676 1.693 4.02 0 5.783-.353 5.994-1.482.565-2.962-15.657 1.058-14.246-6.84.775-4.303 5.501-6.278 11.99-6.278 2.256 0 5.995.423 9.098 1.058l-.917 5.22c-2.539-.565-5.431-1.059-8.252-1.059-3.879 0-5.642.423-5.854 1.34-.423 2.61 15.728-1.199 14.318 6.912-.776 4.443-5.502 6.207-11.99 6.207-2.892 0-6.771-.565-9.733-1.41zm46.619.847h-6.912l2.046-7.618h-.282c-1.834 5.501-4.937 8.252-10.65 8.252-5.219-.07-7.124-2.468-5.572-11.073l1.41-8.04h6.348l-1.269 7.405c-.917 5.22.141 6.912 3.455 6.912 3.456 0 6.419-3.526 7.406-8.604l.987-5.643h6.348l-3.315 18.408zm7.053-18.55h6.348l-3.244 18.55h-6.348l3.244-18.55zm.282-5.783c.424-2.398 1.975-3.385 4.444-3.385 2.398 0 3.667.987 3.244 3.385-.423 2.398-1.975 3.385-4.443 3.385-2.398 0-3.597-.917-3.245-3.385zm8.887 17.633l1.27-7.265h-2.398l.846-4.655h2.892l.775-4.444 5.995-.775-.916 5.219h4.513l-.846 4.655h-4.514l-1.058 6.136c-.493 3.033-.635 3.879 2.116 3.879.494 0 1.058-.07 1.763-.07l-.634 3.667c-1.834.494-3.456.776-5.502.776-4.866-.07-5.289-1.834-4.302-7.124z" fill="#000"/><circle cx="25" cy="25" r="25" fill="#C2FF46"/><path d="M9.669 27.423L9 36.307c1.815 3.152 8.692 8.596 14.997 8.692 9.36.095 13.755-8.692 13.755-8.692-2.962 1.91-4.872 2.197-8.024 2.292-8.788.191-17.098-6.018-20.06-11.176z" fill="#000"/><path d="M43.196 19.304l-.286-.286c.478-.192 1.146-.67 1.146-1.338 0-1.05-3.534-5.826-4.394-5.73-.477.095-1.05.572-1.433.954-1.241-1.337-2.674-2.674-4.298-3.247V9.37c.191-1.72-.095-3.82-1.337-4.298a1.628 1.628 0 00-.956 0c-.955.286-1.91 2.292-2.96 4.107-1.911.191-3.726.669-5.54 1.433-.478-1.433-1.53-2.58-2.866-3.439-1.72-.955-2.961-.669-3.726-.382-.86.287-1.623 1.433-1.91 2.961-.478 1.91.096 4.49 1.815 6.209a6.08 6.08 0 00-.764 1.337c-2.006 3.821-1.624 9.17 1.05 13.755 2.293 3.916 8.406 6.018 13.85 6.018 2.675 0 5.254-.478 7.07-1.624 2.292-1.337 3.916-3.82 5.253-6.304v-.096c.764-1.433 1.337-2.961 1.91-4.203l.382-1.05c.478-1.529-.764-3.057-2.006-4.49zM32.212 6.218c.19.19.573 1.146.382 2.865h-.096c-.286 0-.573-.095-.86-.095v-.86c.096-1.05.383-1.72.574-1.91zm-16.143 3.82c.19-1.05.668-1.814 1.337-2.1.191-.192.478-.192.669-.192.573 0 1.146.191 1.623.478 1.147.668 1.91 1.624 2.293 2.865-.287.191-.573.287-.86.478-.382-.478-.764-1.05-1.146-1.528-.191-.191-1.146-1.051-2.101-.86-.096 0-.096.096-.096.096 0 .095 0 .095.096.095.668 0 1.146.573 1.528 1.146.382.478.573 1.146.764 1.72-1.05.764-2.101 1.623-2.865 2.674-1.242-1.433-1.624-3.343-1.242-4.871zM43.865 23.22l-.382.956c-.573 1.337-1.146 2.865-1.91 4.298-.478.86-1.242 1.337-2.484 1.624.764-1.05 1.528-2.675 1.528-4.012.096 0 .096-.095.191-.191l1.91-2.006c.478-.382.574-1.05.192-1.242-1.05-.382-3.534.287-4.49.86-.573.287-.573.955-.19 1.242l1.337 1.337h.095c0 .955-.573 2.197-1.242 3.152-.286.478-.573.764-.764.955-2.101 0-4.012-.764-4.585-1.146.096 0 .096 0 .191-.095.287-.096.669-.287.956-.478v-.096c-.383-.286-.765-.382-1.147-.286-.382 0-.86.287-1.146.669-.287.382-.382.86-.382 1.241 0 .382.096.765.191 1.147h.095c0-.383.096-.765.192-1.051.955.955 3.438 1.433 3.63 1.528.763.096 1.432.191 2.1.191.765 0 1.434-.095 2.007-.286-.86 1.146-1.815 2.101-2.866 2.674-5.254 3.152-16.047.86-18.913-3.916a15.096 15.096 0 01-2.006-5.445c1.242.096 3.439-.19 4.585-.668.764 1.528 2.102 2.579 3.821 2.77 5.445.573 7.546-2.58 8.31-5.923-.955 1.433-2.579 2.962-4.49 3.153h-.477c-2.77 0-5.062-2.484-5.062-5.445 0-1.91 1.05-3.63 2.579-4.585-3.535 1.146-5.54 4.49-5.54 6.4v.382c-1.147.287-2.675.478-3.726.382.191-1.146.478-2.292.955-3.248.67-1.241 1.529-2.292 2.58-3.247 2.387-1.529 5.635-2.866 9.17-2.293 4.87.955 6.208 2.866 6.4 1.338.095-1.147-.192-1.91-.574-2.484 1.433.86 2.77 2.292 3.916 3.725-1.719-.286-3.343.287-4.776 1.433.383.764.383 1.91-.095 3.057 1.815-1.91 4.012-2.866 6.495-2.293.191.287.478.669.669.955.382.478.669.956.86 1.242.19.287.477.573.668.764.86 1.051 1.815 2.293 1.624 2.961z" fill="#000"/><path d="M28.009 14.05c-.287 0-.573 0-.86.096h-.095c-.191.096-.478.096-.67.191-.095 0-.19.096-.19.096-1.624.764-2.77 2.388-2.77 4.298 0 2.388 1.815 4.585 4.203 4.585h.382c.86-.095 1.72-.573 2.483-1.146l.287-.287c.573-.573 1.05-1.146 1.433-1.815.095-.095.095-.19.19-.382 0 0 0-.095.096-.095.478-1.051.573-2.102.287-2.866-1.05-2.101-3.343-2.675-4.776-2.675zm-1.624 6.4c-.573 0-.955-.573-.955-1.337s.477-1.337.955-1.337c.573 0 .955.573.955 1.337s-.382 1.337-.955 1.337zm5.35-1.241c-.192-.86-.67-2.102-2.102-2.77-1.72-.765-3.057-.86-4.108-.478a3.69 3.69 0 012.58-1.05c1.05 0 3.151.477 4.011 2.196.191.382 0 1.242-.382 2.102z" fill="#000"/></svg>