<svg width="470" height="372" fill="none" xmlns="http://www.w3.org/2000/svg"><path d="M1.984 17.096a1.15 1.15 0 01-.848-.336 1.204 1.204 0 01-.336-.864c0-.341.112-.624.336-.848.224-.235.507-.352.848-.352.341 0 .624.117.848.352.224.224.336.507.336.848 0 .341-.112.63-.336.864a1.15 1.15 0 01-.848.336zm7.52-8.112c.673 0 1.27.17 1.793.512.533.341.944.827 1.232 1.456.298.619.448 1.333.448 2.144 0 .81-.15 1.52-.448 2.128-.288.608-.694 1.077-1.216 1.408-.523.33-1.126.496-1.808.496-.555 0-1.05-.117-1.488-.352a2.47 2.47 0 01-1.008-.976v3.264c0 .277-.09.496-.272.656-.182.16-.422.24-.72.24-.299 0-.544-.085-.736-.256a.88.88 0 01-.272-.672V9.96c0-.288.085-.517.256-.688.181-.17.421-.256.72-.256.298 0 .538.085.72.256.181.17.272.4.272.688v.4c.234-.437.57-.773 1.008-1.008a3.112 3.112 0 011.52-.368zm-.527 6.592c.63 0 1.12-.213 1.472-.64.352-.437.528-1.05.528-1.84 0-.81-.176-1.44-.528-1.888-.352-.448-.843-.672-1.472-.672-.64 0-1.136.219-1.488.656-.342.437-.512 1.061-.512 1.872 0 .8.17 1.419.512 1.856.352.437.848.656 1.488.656zm10.01-6.56c.277-.021.495.037.655.176.16.139.24.347.24.624 0 .288-.07.501-.208.64-.139.139-.39.23-.752.272l-.48.048c-.63.064-1.093.277-1.392.64-.288.363-.432.816-.432 1.36v3.36c0 .31-.096.55-.288.72-.192.16-.432.24-.72.24s-.528-.08-.72-.24c-.181-.17-.272-.41-.272-.72V9.944c0-.299.09-.528.272-.688.192-.16.427-.24.704-.24.277 0 .502.08.672.24.17.15.256.368.256.656v.64c.203-.47.502-.832.896-1.088a2.82 2.82 0 011.344-.432l.224-.016zm2.748 8.08c-.288 0-.528-.08-.72-.24-.181-.17-.272-.41-.272-.72V9.96c0-.31.09-.544.272-.704.192-.16.432-.24.72-.24s.528.08.72.24c.192.16.288.395.288.704v6.176c0 .31-.096.55-.288.72-.192.16-.432.24-.72.24zm0-9.504c-.363 0-.65-.096-.864-.288a1.033 1.033 0 01-.32-.784c0-.32.107-.576.32-.768.213-.192.502-.288.864-.288.352 0 .635.096.848.288.224.192.336.448.336.768s-.107.581-.32.784c-.213.192-.501.288-.864.288zm12.367 1.392c.853 0 1.504.256 1.952.768.458.501.688 1.317.688 2.448v3.936c0 .31-.096.55-.288.72-.182.16-.422.24-.72.24-.288 0-.528-.08-.72-.24-.182-.17-.272-.41-.272-.72V12.2c0-.587-.107-1.003-.32-1.248-.203-.256-.518-.384-.944-.384-.523 0-.939.181-1.248.544-.31.352-.464.837-.464 1.456v3.568c0 .31-.096.55-.288.72-.182.16-.416.24-.704.24s-.528-.08-.72-.24c-.192-.17-.288-.41-.288-.72V12.2c0-.587-.107-1.003-.32-1.248-.203-.256-.518-.384-.944-.384-.523 0-.939.181-1.248.544-.299.352-.448.837-.448 1.456v3.568c0 .31-.096.55-.288.72-.192.16-.432.24-.72.24s-.528-.08-.72-.24c-.182-.17-.272-.41-.272-.72V9.944c0-.299.096-.528.288-.688.192-.16.432-.24.72-.24.277 0 .501.08.672.24.181.15.272.368.272.656v.384c.245-.427.57-.752.976-.976.416-.224.89-.336 1.424-.336 1.173 0 1.957.49 2.352 1.472a2.645 2.645 0 011.04-1.072 3.03 3.03 0 011.552-.4zm8.064 0c1.088 0 1.894.272 2.416.816.534.533.8 1.35.8 2.448v3.904c0 .288-.085.517-.256.688-.17.16-.405.24-.704.24a.964.964 0 01-.688-.256c-.17-.17-.256-.395-.256-.672V15.8a2.074 2.074 0 01-.864.976c-.384.235-.832.352-1.344.352a3.14 3.14 0 01-1.424-.32 2.533 2.533 0 01-1.008-.88 2.223 2.223 0 01-.368-1.248c0-.576.144-1.03.432-1.36.299-.33.779-.57 1.44-.72.662-.15 1.574-.224 2.736-.224h.4v-.368c0-.523-.112-.901-.336-1.136-.224-.245-.586-.368-1.088-.368-.309 0-.624.048-.944.144-.32.085-.698.213-1.136.384-.277.139-.48.208-.608.208a.626.626 0 01-.48-.208.816.816 0 01-.176-.544.82.82 0 01.128-.464c.096-.139.251-.267.464-.384a5.226 5.226 0 011.328-.48 7 7 0 011.536-.176zm-.496 6.704c.534 0 .966-.176 1.296-.528.342-.363.512-.827.512-1.392v-.336h-.288c-.714 0-1.269.032-1.664.096-.394.064-.677.176-.848.336-.17.16-.256.379-.256.656 0 .341.118.624.352.848.246.213.544.32.896.32zm10.113-6.672c.277-.021.496.037.656.176.16.139.24.347.24.624 0 .288-.07.501-.208.64-.139.139-.39.23-.752.272l-.48.048c-.63.064-1.093.277-1.392.64-.288.363-.432.816-.432 1.36v3.36c0 .31-.096.55-.288.72-.192.16-.432.24-.72.24s-.528-.08-.72-.24c-.181-.17-.272-.41-.272-.72V9.944c0-.299.09-.528.272-.688.192-.16.427-.24.704-.24.277 0 .501.08.672.24.17.15.256.368.256.656v.64c.203-.47.501-.832.896-1.088a2.82 2.82 0 011.344-.432l.224-.016zm7.697.576a.872.872 0 01.816-.56.96.96 0 01.656.256c.203.16.304.363.304.608 0 .117-.032.24-.096.368l-4.368 9.152c-.181.363-.464.544-.848.544a.996.996 0 01-.656-.24.712.712 0 01-.272-.576c0-.117.032-.25.096-.4l1.088-2.288-2.976-6.192a.811.811 0 01-.08-.368.79.79 0 01.304-.624 1.13 1.13 0 01.72-.256c.182 0 .347.048.496.144a.86.86 0 01.352.416l2.24 4.944 2.224-4.928z" fill="#000"/><path fill="#0094FB" d="M104 0h366v50H104z"/><path d="M265.701 57.416l-.527 2.074h1.435l.534-2.074h.937l-.533 2.074h1.43v.897h-1.647l-.574 2.303h1.465v.896h-1.694L265.918 66h-.938l.616-2.414h-1.442L263.539 66h-.932l.61-2.414h-1.512v-.896h1.74l.575-2.303h-1.559v-.897h1.775l.528-2.074h.937zm.692 2.97h-1.436l-.574 2.303h1.441l.569-2.302zm6.14-3.263c.934 0 1.639.38 2.115 1.143.481.761.721 1.888.721 3.38 0 1.493-.24 2.62-.721 3.381-.476.762-1.181 1.143-2.115 1.143-.933 0-1.638-.38-2.115-1.143-.477-.761-.715-1.888-.715-3.38 0-1.493.238-2.62.715-3.381.477-.762 1.182-1.143 2.115-1.143zm0 8.11c.555 0 .967-.296 1.237-.885.273-.59.41-1.49.41-2.701a11.7 11.7 0 00-.118-1.747l-2.789 4.366c.293.644.713.966 1.26.966zm0-7.173c-.551 0-.963.295-1.236.885-.27.59-.404 1.49-.404 2.702 0 .55.037 1.066.111 1.546l2.73-4.353c-.296-.52-.697-.78-1.201-.78zm7.231-.937c.933 0 1.638.38 2.115 1.143.48.761.721 1.888.721 3.38 0 1.493-.241 2.62-.721 3.381-.477.762-1.182 1.143-2.115 1.143-.934 0-1.639-.38-2.116-1.143-.476-.761-.714-1.888-.714-3.38 0-1.493.238-2.62.714-3.381.477-.762 1.182-1.143 2.116-1.143zm0 8.11c.554 0 .966-.296 1.236-.885.273-.59.41-1.49.41-2.701 0-.645-.039-1.227-.117-1.747l-2.789 4.366c.293.644.713.966 1.26.966zm0-7.173c-.551 0-.963.295-1.237.885-.269.59-.404 1.49-.404 2.702 0 .55.037 1.066.111 1.546l2.731-4.353c-.297-.52-.697-.78-1.201-.78zm4.435-.808h5.508v.504L286.578 66h-1.236l3.047-7.752h-4.19v-.996zm8.578 4.336v3.44h1.401c.687 0 1.177-.12 1.47-.358.293-.242.44-.639.44-1.19 0-.726-.154-1.222-.463-1.488-.309-.27-.791-.404-1.447-.404h-1.401zm0-3.363v2.402h1.377c.571 0 .983-.11 1.237-.328a1.04 1.04 0 00.386-.826c0-.442-.127-.76-.381-.955-.25-.196-.664-.293-1.242-.293h-1.377zm-1.189-.973h2.59c.894 0 1.584.193 2.068.58.484.387.727.934.727 1.64 0 .38-.129.723-.387 1.032-.254.309-.637.502-1.148.58.574.086 1.023.332 1.347.738.328.403.492.994.492 1.776 0 .793-.259 1.392-.779 1.799-.519.402-1.293.603-2.32.603h-2.59v-8.748zm12.486-.37v.897h-1.224c-.387 0-.657.08-.809.24-.148.157-.223.436-.223.838v.58h2.256v.838h-2.256V66h-1.078v-5.725h-1.752v-.837h1.752v-.458c0-.718.164-1.248.492-1.587.332-.34.848-.51 1.547-.51h1.295zm7.231 0v.897h-1.225c-.387 0-.656.08-.809.24-.148.157-.222.436-.222.838v.58h2.256v.838h-2.256V66h-1.078v-5.725h-1.752v-.837h1.752v-.458c0-.718.164-1.248.492-1.587.332-.34.848-.51 1.547-.51h1.295z" fill="#909090"/><path d="M1.984 118.096a1.15 1.15 0 01-.848-.336 1.205 1.205 0 01-.336-.864c0-.341.112-.624.336-.848.224-.235.507-.352.848-.352.341 0 .624.117.848.352.224.224.336.507.336.848 0 .341-.112.629-.336.864a1.15 1.15 0 01-.848.336zm5.935.032c-1.163 0-2.101-.229-2.816-.688-.341-.203-.512-.491-.512-.864 0-.213.059-.384.176-.512a.544.544 0 01.432-.208c.181 0 .432.085.752.256.341.16.65.283.928.368.288.085.65.128 1.088.128.448 0 .795-.075 1.04-.224.256-.149.384-.357.384-.624a.585.585 0 00-.16-.432c-.096-.107-.277-.203-.544-.288-.256-.096-.65-.203-1.184-.32-.95-.192-1.632-.464-2.048-.816-.405-.352-.608-.837-.608-1.456 0-.469.139-.891.416-1.264a2.624 2.624 0 011.136-.88c.49-.213 1.045-.32 1.664-.32.448 0 .88.059 1.296.176a3.8 3.8 0 011.12.48c.341.213.512.496.512.848a.854.854 0 01-.176.544.544.544 0 01-.432.208c-.117 0-.235-.021-.352-.064a9.733 9.733 0 01-.416-.224 5.817 5.817 0 00-.8-.352 2.36 2.36 0 00-.832-.128c-.395 0-.71.08-.944.24a.764.764 0 00-.336.656c0 .267.117.469.352.608s.688.277 1.36.416c.715.149 1.275.32 1.68.512s.693.432.864.72c.181.288.272.656.272 1.104 0 .725-.304 1.307-.912 1.744-.597.437-1.397.656-2.4.656zm11.125-2.272c.182 0 .326.069.433.208.117.139.175.325.175.56 0 .331-.197.608-.591.832a5.311 5.311 0 01-2.544.672c-1.26 0-2.256-.363-2.992-1.088-.736-.725-1.104-1.717-1.104-2.976 0-.8.16-1.509.48-2.128a3.502 3.502 0 011.344-1.44c.586-.341 1.248-.512 1.984-.512.704 0 1.317.155 1.84.464a3.15 3.15 0 011.216 1.312c.288.565.431 1.232.431 2 0 .459-.202.688-.608.688h-4.72c.065.736.273 1.28.624 1.632.352.341.864.512 1.537.512.34 0 .64-.043.896-.128.266-.085.565-.203.895-.352.32-.171.555-.256.704-.256zm-2.768-4.464c-.543 0-.98.171-1.312.512-.32.341-.511.832-.575 1.472h3.616c-.022-.651-.182-1.141-.48-1.472-.3-.341-.715-.512-1.248-.512zm8.549 6.736c-.78 0-1.467-.165-2.064-.496a3.396 3.396 0 01-1.36-1.408c-.32-.608-.48-1.317-.48-2.128 0-.811.165-1.525.495-2.144a3.6 3.6 0 011.424-1.456c.608-.341 1.307-.512 2.096-.512.416 0 .832.059 1.248.176a4.1 4.1 0 011.12.48c.342.224.513.507.513.848 0 .235-.06.427-.177.576a.516.516 0 01-.431.208.962.962 0 01-.369-.08 3.125 3.125 0 01-.384-.192 3.802 3.802 0 00-.671-.32 1.977 1.977 0 00-.736-.128c-.662 0-1.174.219-1.537.656-.352.427-.527 1.045-.527 1.856 0 .8.175 1.419.527 1.856.363.427.875.64 1.537.64.266 0 .5-.037.704-.112.213-.085.448-.197.703-.336.16-.096.3-.165.416-.208a.85.85 0 01.352-.08c.171 0 .315.075.433.224a.878.878 0 01.175.56.9.9 0 01-.128.48 1.041 1.041 0 01-.384.352c-.33.213-.714.384-1.151.512a5.178 5.178 0 01-1.345.176zm7.908 0c-.8 0-1.504-.165-2.112-.496a3.446 3.446 0 01-1.392-1.424c-.33-.619-.496-1.339-.496-2.16 0-.821.165-1.536.496-2.144a3.446 3.446 0 011.392-1.424c.608-.331 1.312-.496 2.112-.496s1.499.165 2.096.496a3.322 3.322 0 011.392 1.424c.33.608.496 1.323.496 2.144 0 .821-.165 1.541-.496 2.16a3.322 3.322 0 01-1.392 1.424c-.597.331-1.296.496-2.096.496zm-.016-1.552c.65 0 1.147-.213 1.488-.64.341-.427.512-1.056.512-1.888 0-.821-.17-1.445-.512-1.872-.341-.437-.832-.656-1.472-.656s-1.136.219-1.488.656c-.341.427-.512 1.051-.512 1.872 0 .832.17 1.461.512 1.888.341.427.832.64 1.472.64zm10.195-6.592c.939 0 1.638.267 2.096.8.459.533.688 1.339.688 2.416v3.936c0 .299-.09.533-.272.704-.17.171-.41.256-.72.256s-.554-.085-.736-.256c-.181-.171-.272-.405-.272-.704v-3.824c0-.608-.117-1.051-.352-1.328-.224-.277-.581-.416-1.072-.416-.576 0-1.04.181-1.392.544-.341.363-.512.848-.512 1.456v3.568c0 .299-.09.533-.272.704-.181.171-.426.256-.736.256s-.554-.085-.736-.256c-.17-.171-.256-.405-.256-.704v-6.192c0-.277.09-.501.272-.672.181-.171.427-.256.736-.256.278 0 .502.085.672.256a.81.81 0 01.272.64v.432a2.71 2.71 0 011.072-1.008 3.222 3.222 0 011.52-.352zm11.343-3.344c.3 0 .544.085.736.256a.857.857 0 01.288.672v9.568c0 .288-.09.517-.272.688-.18.171-.42.256-.72.256-.298 0-.538-.085-.72-.256-.18-.171-.272-.4-.272-.688v-.4a2.493 2.493 0 01-1.023 1.024c-.438.245-.94.368-1.505.368a3.285 3.285 0 01-1.808-.512c-.522-.341-.933-.821-1.232-1.44-.287-.629-.431-1.349-.431-2.16 0-.811.144-1.52.431-2.128.3-.608.71-1.077 1.233-1.408.522-.331 1.125-.496 1.807-.496.566 0 1.067.117 1.505.352.437.235.773.565 1.008.992v-3.792c0-.267.085-.48.255-.64.182-.171.422-.256.72-.256zm-2.96 9.936c.64 0 1.131-.219 1.472-.656.352-.437.528-1.061.528-1.872 0-.811-.175-1.429-.528-1.856-.34-.437-.826-.656-1.456-.656-.64 0-1.136.213-1.487.64-.352.427-.529 1.04-.529 1.84 0 .811.176 1.44.529 1.888.352.448.842.672 1.471.672zm9.434-6.592c1.088 0 1.893.272 2.416.816.533.533.8 1.349.8 2.448v3.904c0 .288-.086.517-.256.688-.17.16-.406.24-.704.24a.962.962 0 01-.688-.256c-.17-.171-.256-.395-.256-.672v-.352c-.181.416-.47.741-.864.976-.384.235-.832.352-1.344.352-.523 0-.997-.107-1.424-.32a2.533 2.533 0 01-1.008-.88 2.221 2.221 0 01-.368-1.248c0-.576.144-1.029.432-1.36.298-.331.778-.571 1.44-.72.661-.149 1.573-.224 2.736-.224h.4v-.368c0-.523-.112-.901-.336-1.136-.224-.245-.587-.368-1.088-.368-.31 0-.624.048-.944.144-.32.085-.699.213-1.136.384-.277.139-.48.208-.608.208a.625.625 0 01-.48-.208.816.816 0 01-.176-.544c0-.181.042-.336.128-.464.096-.139.25-.267.464-.384a5.2 5.2 0 011.328-.48 7.02 7.02 0 011.536-.176zm-.496 6.704c.533 0 .965-.176 1.296-.528.341-.363.512-.827.512-1.392v-.336h-.288c-.715 0-1.27.032-1.664.096-.395.064-.678.176-.848.336-.17.16-.256.379-.256.656 0 .341.117.624.352.848.245.213.544.32.896.32zm10.113-6.672c.277-.021.495.037.655.176.16.139.24.347.24.624 0 .288-.069.501-.207.64-.14.139-.39.229-.753.272l-.48.048c-.629.064-1.093.277-1.392.64-.288.363-.431.816-.431 1.36v3.36c0 .309-.096.549-.288.72-.192.16-.433.24-.72.24-.288 0-.528-.08-.72-.24-.182-.171-.272-.411-.272-.72v-6.192c0-.299.09-.528.272-.688.192-.16.426-.24.704-.24.277 0 .5.08.672.24.17.149.255.368.255.656v.64c.203-.469.502-.832.897-1.088a2.82 2.82 0 011.343-.432l.225-.016zm7.697.576a.872.872 0 01.816-.56c.245 0 .464.085.656.256.203.16.304.363.304.608 0 .117-.032.24-.096.368l-4.368 9.152c-.181.363-.464.544-.848.544a.996.996 0 01-.656-.24.711.711 0 01-.272-.576c0-.117.032-.251.096-.4l1.088-2.288-2.976-6.192a.811.811 0 01-.08-.368c0-.245.101-.453.304-.624a1.12 1.12 0 01.72-.256c.181 0 .347.048.496.144a.86.86 0 01.352.416l2.24 4.944 2.224-4.928z" fill="#000"/><path fill="#7E8890" d="M104 101h366v50H104z"/><path d="M265.701 158.416l-.527 2.074h1.435l.534-2.074h.937l-.533 2.074h1.43v.897h-1.647l-.574 2.302h1.465v.897h-1.694l-.609 2.414h-.938l.616-2.414h-1.442l-.615 2.414h-.932l.61-2.414h-1.512v-.897h1.74l.575-2.302h-1.559v-.897h1.775l.528-2.074h.937zm.692 2.971h-1.436l-.574 2.302h1.441l.569-2.302zm8.337-2.942v1.09a3.15 3.15 0 00-.785-.328 3.184 3.184 0 00-.867-.117c-.75 0-1.318.283-1.705.849-.387.563-.58 1.393-.58 2.491.187-.391.447-.69.779-.897a2.085 2.085 0 011.143-.316c.844 0 1.496.26 1.957.779.465.516.697 1.248.697 2.197 0 .946-.238 1.678-.715 2.198-.476.519-1.146.779-2.009.779-1.016 0-1.76-.363-2.233-1.09-.473-.73-.709-1.879-.709-3.445 0-1.477.283-2.602.85-3.375.57-.778 1.394-1.166 2.472-1.166.289 0 .579.031.868.094.289.058.568.144.837.257zm-2.109 3.698c-.504 0-.9.181-1.189.545-.289.363-.434.865-.434 1.505 0 .641.145 1.143.434 1.506.289.363.685.545 1.189.545.524 0 .918-.172 1.184-.515.265-.348.398-.86.398-1.536 0-.679-.133-1.191-.398-1.535-.266-.344-.66-.515-1.184-.515zm9.82 4.546c-.3.161-.609.28-.925.358a4.011 4.011 0 01-1.008.123c-1.121 0-1.992-.397-2.613-1.19-.618-.792-.926-1.908-.926-3.345 0-1.43.31-2.543.931-3.34.625-.801 1.495-1.201 2.608-1.201.355 0 .691.041 1.008.123.316.078.625.197.925.357v1.213a3.275 3.275 0 00-.931-.545 2.824 2.824 0 00-1.002-.187c-.77 0-1.346.297-1.729.89-.383.594-.574 1.491-.574 2.69 0 1.195.191 2.09.574 2.683.383.594.959.891 1.729.891.344 0 .68-.063 1.008-.188.332-.125.64-.306.925-.544v1.212zm1.758-8.437h5.508v.504L286.578 167h-1.236l3.047-7.752h-4.19v-.996zm7.629 0h4.43v.996h-3.352v2.15c.168-.062.336-.107.504-.134.172-.032.344-.047.516-.047.906 0 1.625.267 2.156.803.531.535.797 1.259.797 2.173 0 .922-.279 1.649-.838 2.18-.555.531-1.314.797-2.279.797-.465 0-.891-.031-1.278-.094a4.705 4.705 0 01-1.031-.281v-1.201c.359.195.721.342 1.084.439.363.094.734.141 1.113.141.653 0 1.155-.172 1.506-.516.356-.344.533-.832.533-1.465 0-.625-.183-1.111-.55-1.459-.364-.347-.871-.521-1.524-.521a3.866 3.866 0 00-1.787.433v-4.394zm6.832 0h5.508v.504L301.039 167h-1.236l3.047-7.752h-4.19v-.996zm8.971 7.775c.996 0 1.691-.244 2.086-.732.394-.492.592-1.379.592-2.66 0-1.293-.198-2.184-.592-2.672-.391-.492-1.086-.738-2.086-.738h-.563v6.802h.563zm.023-7.775c1.336 0 2.321.355 2.953 1.066.633.711.95 1.817.95 3.317 0 1.492-.317 2.594-.95 3.304-.632.707-1.617 1.061-2.953 1.061h-1.775v-8.748h1.775z" fill="#909090"/><path d="M1.984 219.096a1.15 1.15 0 01-.848-.336 1.205 1.205 0 01-.336-.864c0-.341.112-.624.336-.848.224-.235.507-.352.848-.352.341 0 .624.117.848.352.224.224.336.507.336.848 0 .341-.112.629-.336.864a1.15 1.15 0 01-.848.336zm5.935.032c-1.163 0-2.101-.229-2.816-.688-.341-.203-.512-.491-.512-.864 0-.213.059-.384.176-.512a.544.544 0 01.432-.208c.181 0 .432.085.752.256.341.16.65.283.928.368.288.085.65.128 1.088.128.448 0 .795-.075 1.04-.224.256-.149.384-.357.384-.624a.585.585 0 00-.16-.432c-.096-.107-.277-.203-.544-.288-.256-.096-.65-.203-1.184-.32-.95-.192-1.632-.464-2.048-.816-.405-.352-.608-.837-.608-1.456 0-.469.139-.891.416-1.264a2.624 2.624 0 011.136-.88c.49-.213 1.045-.32 1.664-.32.448 0 .88.059 1.296.176a3.8 3.8 0 011.12.48c.341.213.512.496.512.848a.854.854 0 01-.176.544.544.544 0 01-.432.208c-.117 0-.235-.021-.352-.064a9.733 9.733 0 01-.416-.224 5.817 5.817 0 00-.8-.352 2.36 2.36 0 00-.832-.128c-.395 0-.71.08-.944.24a.764.764 0 00-.336.656c0 .267.117.469.352.608s.688.277 1.36.416c.715.149 1.275.32 1.68.512s.693.432.864.72c.181.288.272.656.272 1.104 0 .725-.304 1.307-.912 1.744-.597.437-1.397.656-2.4.656zm11.11-8.112c.309 0 .554.085.736.256.18.171.271.4.271.688v6.208a.857.857 0 01-.288.672c-.18.171-.42.256-.72.256-.287 0-.517-.08-.688-.24-.17-.16-.256-.379-.256-.656v-.4a2.606 2.606 0 01-.991.992 2.922 2.922 0 01-1.409.336c-1.92 0-2.88-1.077-2.88-3.232v-3.936c0-.288.091-.517.272-.688.182-.171.422-.256.72-.256.31 0 .555.085.737.256.18.171.272.4.272.688v3.952c0 .555.111.965.335 1.232.224.267.576.4 1.056.4.555 0 .998-.181 1.328-.544.342-.373.512-.864.512-1.472v-3.568c0-.288.091-.517.272-.688.182-.171.422-.256.72-.256zm6.561 8.112c-.779 0-1.466-.165-2.064-.496a3.397 3.397 0 01-1.36-1.408c-.32-.608-.48-1.317-.48-2.128 0-.811.166-1.525.496-2.144a3.6 3.6 0 011.424-1.456c.608-.341 1.307-.512 2.096-.512.416 0 .832.059 1.248.176a4.1 4.1 0 011.12.48c.341.224.512.507.512.848 0 .235-.059.427-.176.576a.515.515 0 01-.432.208.962.962 0 01-.368-.08 3.125 3.125 0 01-.384-.192 3.795 3.795 0 00-.672-.32 1.977 1.977 0 00-.736-.128c-.661 0-1.173.219-1.536.656-.352.427-.528 1.045-.528 1.856 0 .8.176 1.419.528 1.856.363.427.875.64 1.536.64.267 0 .502-.037.704-.112.213-.085.448-.197.704-.336.16-.096.299-.165.416-.208a.85.85 0 01.352-.08c.17 0 .315.075.432.224a.878.878 0 01.176.56.898.898 0 01-.128.48 1.04 1.04 0 01-.384.352c-.33.213-.714.384-1.152.512a5.178 5.178 0 01-1.344.176zm7.813 0c-.779 0-1.467-.165-2.064-.496a3.397 3.397 0 01-1.36-1.408c-.32-.608-.48-1.317-.48-2.128 0-.811.165-1.525.496-2.144a3.6 3.6 0 011.424-1.456c.608-.341 1.306-.512 2.096-.512.416 0 .832.059 1.248.176.426.117.8.277 1.12.48.341.224.512.507.512.848 0 .235-.059.427-.176.576a.515.515 0 01-.432.208.962.962 0 01-.368-.08 3.125 3.125 0 01-.384-.192 3.795 3.795 0 00-.672-.32 1.977 1.977 0 00-.736-.128c-.662 0-1.174.219-1.536.656-.352.427-.528 1.045-.528 1.856 0 .8.176 1.419.528 1.856.362.427.874.64 1.536.64.266 0 .501-.037.704-.112.213-.085.448-.197.704-.336a2.5 2.5 0 01.416-.208.85.85 0 01.352-.08c.17 0 .314.075.432.224a.878.878 0 01.176.56.898.898 0 01-.128.48 1.04 1.04 0 01-.384.352 4.405 4.405 0 01-1.152.512 5.178 5.178 0 01-1.344.176zm10.532-2.272c.181 0 .325.069.432.208.117.139.176.325.176.56 0 .331-.197.608-.592.832a5.31 5.31 0 01-2.544.672c-1.259 0-2.256-.363-2.992-1.088-.736-.725-1.104-1.717-1.104-2.976 0-.8.16-1.509.48-2.128a3.502 3.502 0 011.344-1.44c.587-.341 1.248-.512 1.984-.512.704 0 1.318.155 1.84.464.523.309.928.747 1.216 1.312.288.565.432 1.232.432 2 0 .459-.203.688-.608.688h-4.72c.064.736.272 1.28.624 1.632.352.341.864.512 1.536.512.342 0 .64-.043.896-.128.267-.085.566-.203.896-.352.32-.171.555-.256.704-.256zm-2.768-4.464c-.544 0-.981.171-1.312.512-.32.341-.512.832-.576 1.472h3.616c-.021-.651-.181-1.141-.48-1.472-.298-.341-.715-.512-1.248-.512zm7.908 6.736c-1.163 0-2.101-.229-2.816-.688-.341-.203-.512-.491-.512-.864 0-.213.059-.384.176-.512a.544.544 0 01.432-.208c.181 0 .432.085.752.256.342.16.65.283.928.368.288.085.65.128 1.088.128.448 0 .795-.075 1.04-.224.256-.149.384-.357.384-.624a.585.585 0 00-.16-.432c-.096-.107-.277-.203-.544-.288-.256-.096-.65-.203-1.184-.32-.95-.192-1.632-.464-2.048-.816-.405-.352-.608-.837-.608-1.456 0-.469.139-.891.416-1.264a2.625 2.625 0 011.136-.88c.49-.213 1.045-.32 1.664-.32.448 0 .88.059 1.296.176.416.107.79.267 1.12.48.342.213.512.496.512.848a.853.853 0 01-.176.544.544.544 0 01-.432.208c-.117 0-.235-.021-.352-.064a9.814 9.814 0 01-.416-.224 5.815 5.815 0 00-.8-.352 2.36 2.36 0 00-.832-.128c-.395 0-.71.08-.944.24a.764.764 0 00-.336.656c0 .267.117.469.352.608s.688.277 1.36.416c.715.149 1.275.32 1.68.512.406.192.694.432.864.72.181.288.272.656.272 1.104 0 .725-.304 1.307-.912 1.744-.597.437-1.397.656-2.4.656zm7.766 0c-1.163 0-2.102-.229-2.816-.688-.342-.203-.512-.491-.512-.864 0-.213.058-.384.176-.512a.544.544 0 01.432-.208c.181 0 .432.085.752.256.341.16.65.283.928.368.288.085.65.128 1.088.128.448 0 .794-.075 1.04-.224.256-.149.384-.357.384-.624a.585.585 0 00-.16-.432c-.096-.107-.278-.203-.544-.288-.256-.096-.65-.203-1.184-.32-.95-.192-1.632-.464-2.048-.816-.406-.352-.608-.837-.608-1.456 0-.469.138-.891.416-1.264a2.624 2.624 0 011.136-.88c.49-.213 1.045-.32 1.664-.32.448 0 .88.059 1.296.176a3.8 3.8 0 011.12.48c.341.213.512.496.512.848a.854.854 0 01-.176.544.544.544 0 01-.432.208c-.118 0-.235-.021-.352-.064a9.692 9.692 0 01-.416-.224 5.82 5.82 0 00-.8-.352 2.36 2.36 0 00-.832-.128c-.395 0-.71.08-.944.24a.764.764 0 00-.336.656c0 .267.117.469.352.608.234.139.688.277 1.36.416.714.149 1.274.32 1.68.512.405.192.693.432.864.72.181.288.272.656.272 1.104 0 .725-.304 1.307-.912 1.744-.598.437-1.398.656-2.4.656z" fill="#000"/><path fill="#21B362" d="M104 202h366v50H104z"/><path d="M265.701 259.416l-.527 2.074h1.435l.534-2.074h.937l-.533 2.074h1.43v.897h-1.647l-.574 2.302h1.465v.897h-1.694l-.609 2.414h-.938l.616-2.414h-1.442l-.615 2.414h-.932l.61-2.414h-1.512v-.897h1.74l.575-2.302h-1.559v-.897h1.775l.528-2.074h.937zm.692 2.971h-1.436l-.574 2.302h1.441l.569-2.302zm4.716 4.617h4.02V268h-5.315v-.996c.731-.77 1.37-1.449 1.916-2.039.547-.59.924-1.006 1.131-1.248.391-.477.655-.862.791-1.155.137-.296.205-.599.205-.908 0-.488-.144-.871-.433-1.148-.285-.277-.678-.416-1.178-.416a3.57 3.57 0 00-1.119.193 6.247 6.247 0 00-1.242.586v-1.195a6.408 6.408 0 011.183-.434 4.786 4.786 0 011.155-.146c.855 0 1.543.228 2.062.685.524.453.785 1.049.785 1.787 0 .375-.088.75-.263 1.125-.172.375-.453.789-.844 1.243-.219.254-.537.605-.955 1.054a181.25 181.25 0 01-1.899 2.016zm8.655-3.158c-.528 0-.936.148-1.225.445-.285.293-.428.709-.428 1.248s.145.959.434 1.26c.293.297.699.445 1.219.445.531 0 .939-.146 1.224-.439.289-.297.434-.719.434-1.266 0-.535-.147-.951-.44-1.248-.289-.297-.695-.445-1.218-.445zm-1.032-.492c-.503-.129-.898-.37-1.183-.721-.281-.352-.422-.776-.422-1.272 0-.695.236-1.246.709-1.652.473-.41 1.115-.615 1.928-.615.816 0 1.461.205 1.933.615.473.406.709.957.709 1.652 0 .496-.142.92-.427 1.272-.282.351-.674.592-1.178.721.586.128 1.033.388 1.342.779.312.39.468.896.468 1.517 0 .789-.252 1.407-.756 1.852-.503.445-1.201.668-2.091.668-.891 0-1.588-.221-2.092-.662-.5-.446-.75-1.061-.75-1.846 0-.625.154-1.133.463-1.523.312-.395.761-.657 1.347-.785zm-.427-1.881c0 .468.125.826.375 1.072.25.246.611.369 1.084.369.476 0 .84-.123 1.09-.369.25-.246.375-.604.375-1.072 0-.477-.125-.84-.375-1.09-.247-.25-.61-.375-1.09-.375-.473 0-.834.127-1.084.381-.25.25-.375.611-.375 1.084zm8.689-1.178l-1.248 4.476h2.496l-1.248-4.476zm-.715-1.043h1.436l2.678 8.748h-1.225l-.645-2.279h-3.064l-.633 2.279h-1.224l2.677-8.748zm5.151 0h5.508v.504L293.809 268h-1.237l3.047-7.752h-4.189v-.996zm10.722 1.078l-2.759 4.623h2.759v-4.623zm-.193-1.078h1.371v5.701h1.166v.961h-1.166V268h-1.178v-2.086h-3.709v-1.119l3.516-5.543zm4.33 0h4.43v.996h-3.352v2.15c.168-.062.336-.107.504-.134.172-.032.344-.047.516-.047.906 0 1.625.267 2.156.803.531.535.797 1.259.797 2.173 0 .922-.279 1.649-.838 2.18-.555.531-1.314.797-2.279.797-.465 0-.891-.031-1.278-.094a4.69 4.69 0 01-1.031-.281v-1.201c.359.195.721.342 1.084.439.363.094.734.141 1.113.141.653 0 1.155-.172 1.506-.516.356-.344.533-.832.533-1.465 0-.625-.183-1.111-.55-1.459-.364-.347-.871-.521-1.524-.521a3.866 3.866 0 00-1.787.433v-4.394z" fill="#909090"/><path d="M1.984 320.096a1.15 1.15 0 01-.848-.336 1.205 1.205 0 01-.336-.864c0-.341.112-.624.336-.848.224-.235.507-.352.848-.352.341 0 .624.117.848.352.224.224.336.507.336.848 0 .341-.112.629-.336.864a1.15 1.15 0 01-.848.336zm4.017 0c-.288 0-.528-.08-.72-.24-.182-.171-.272-.411-.272-.72v-6.176c0-.309.09-.544.272-.704.192-.16.432-.24.72-.24s.528.08.72.24c.192.16.288.395.288.704v6.176c0 .309-.096.549-.288.72-.192.16-.432.24-.72.24zm0-9.504c-.363 0-.65-.096-.864-.288a1.034 1.034 0 01-.32-.784c0-.32.106-.576.32-.768.213-.192.501-.288.864-.288.352 0 .634.096.848.288.224.192.336.448.336.768s-.107.581-.32.784c-.214.192-.502.288-.864.288zm7.614 1.392c.939 0 1.638.267 2.096.8.459.533.688 1.339.688 2.416v3.936c0 .299-.09.533-.272.704-.17.171-.41.256-.72.256s-.554-.085-.736-.256c-.181-.171-.272-.405-.272-.704v-3.824c0-.608-.117-1.051-.352-1.328-.224-.277-.581-.416-1.072-.416-.576 0-1.04.181-1.392.544-.341.363-.512.848-.512 1.456v3.568c0 .299-.09.533-.272.704-.181.171-.426.256-.736.256s-.554-.085-.736-.256c-.17-.171-.256-.405-.256-.704v-6.192c0-.277.09-.501.272-.672.182-.171.427-.256.736-.256.278 0 .502.085.672.256a.81.81 0 01.272.64v.432a2.71 2.71 0 011.072-1.008 3.222 3.222 0 011.52-.352zm8.768-1.776c-.491.032-.848.181-1.072.448-.224.267-.336.651-.336 1.152v.368h1.36c.597 0 .896.251.896.752s-.299.752-.896.752h-1.36v5.456c0 .309-.096.544-.288.704-.182.16-.416.24-.704.24s-.528-.08-.72-.24c-.192-.16-.288-.395-.288-.704v-5.456h-.8c-.598 0-.896-.251-.896-.752s.298-.752.896-.752h.8v-.112c0-1.003.261-1.787.784-2.352.533-.576 1.28-.901 2.24-.976l.416-.032c.426-.032.725.016.896.144.181.117.272.304.272.56 0 .459-.262.715-.784.768l-.416.032zm5.272 9.92c-.8 0-1.504-.165-2.112-.496a3.444 3.444 0 01-1.392-1.424c-.33-.619-.496-1.339-.496-2.16 0-.821.165-1.536.496-2.144a3.444 3.444 0 011.392-1.424c.608-.331 1.312-.496 2.112-.496s1.498.165 2.096.496a3.322 3.322 0 011.392 1.424c.33.608.496 1.323.496 2.144 0 .821-.165 1.541-.496 2.16a3.322 3.322 0 01-1.392 1.424c-.598.331-1.296.496-2.096.496zm-.016-1.552c.65 0 1.146-.213 1.488-.64.341-.427.512-1.056.512-1.888 0-.821-.17-1.445-.512-1.872-.341-.437-.832-.656-1.472-.656s-1.136.219-1.488.656c-.341.427-.512 1.051-.512 1.872 0 .832.17 1.461.512 1.888.341.427.832.64 1.472.64z" fill="#000"/><path fill="#00B1C4" d="M104 303h366v50H104z"/><path d="M265.701 360.416l-.527 2.074h1.435l.534-2.074h.937l-.533 2.074h1.43v.897h-1.647l-.574 2.302h1.465v.897h-1.694l-.609 2.414h-.938l.616-2.414h-1.442l-.615 2.414h-.932l.61-2.414h-1.512v-.897h1.74l.575-2.302h-1.559v-.897h1.775l.528-2.074h.937zm.692 2.971h-1.436l-.574 2.302h1.441l.569-2.302zm4.113 4.623h1.84v-6.61l-2.203 1.061v-1.137l2.191-1.043h1.184v7.729h1.816v.99h-4.828v-.99zm6.463-7.758h5.508v.504L279.348 369h-1.237l3.047-7.752h-4.189v-.996zm10.025 1.043l-1.248 4.476h2.496l-1.248-4.476zm-.715-1.043h1.436l2.678 8.748h-1.225l-.645-2.279h-3.064l-.633 2.279h-1.224l2.677-8.748zm6.522 7.752h4.019V369h-5.314v-.996c.73-.77 1.369-1.449 1.916-2.039.547-.59.924-1.006 1.131-1.248.39-.477.654-.862.791-1.155.136-.296.205-.599.205-.908 0-.488-.145-.871-.434-1.148-.285-.277-.677-.416-1.177-.416a3.57 3.57 0 00-1.12.193c-.39.129-.804.324-1.242.586v-1.195a6.416 6.416 0 011.184-.434c.39-.097.775-.146 1.154-.146.856 0 1.543.228 2.063.685.523.453.785 1.049.785 1.787 0 .375-.088.75-.264 1.125-.172.375-.453.789-.844 1.243-.218.254-.537.605-.955 1.054-.414.45-1.047 1.121-1.898 2.016zm7.207-3.416v3.439h1.4c.688 0 1.178-.119 1.471-.357.293-.242.439-.639.439-1.19 0-.726-.154-1.222-.463-1.488-.308-.269-.791-.404-1.447-.404h-1.4zm0-3.363v2.402h1.377c.57 0 .982-.109 1.236-.328.258-.219.387-.494.387-.826 0-.442-.127-.76-.381-.955-.25-.196-.664-.293-1.242-.293h-1.377zm-1.19-.973h2.59c.895 0 1.584.193 2.069.58.484.387.726.934.726 1.641 0 .379-.129.722-.387 1.031-.254.308-.636.502-1.148.58.574.086 1.023.332 1.348.738.328.403.492.994.492 1.776 0 .793-.26 1.392-.779 1.798-.52.403-1.293.604-2.321.604h-2.59v-8.748zm9.868 4.594c-.528 0-.936.148-1.225.445-.285.293-.428.709-.428 1.248s.145.959.434 1.26c.293.297.699.445 1.219.445.531 0 .939-.146 1.224-.439.289-.297.434-.719.434-1.266 0-.535-.147-.951-.44-1.248-.289-.297-.695-.445-1.218-.445zm-1.032-.492c-.504-.129-.898-.37-1.183-.721-.282-.352-.422-.776-.422-1.272 0-.695.236-1.246.709-1.652.472-.41 1.115-.615 1.928-.615.816 0 1.46.205 1.933.615.473.406.709.957.709 1.652 0 .496-.142.92-.428 1.272-.281.351-.673.592-1.177.721.586.128 1.033.388 1.341.779.313.39.469.896.469 1.517 0 .789-.252 1.407-.756 1.852-.504.445-1.201.668-2.091.668-.891 0-1.588-.221-2.092-.662-.5-.446-.75-1.061-.75-1.846 0-.625.154-1.133.463-1.523.312-.395.761-.657 1.347-.785zm-.427-1.881c0 .468.125.826.375 1.072.25.246.611.369 1.084.369.476 0 .839-.123 1.089-.369s.375-.604.375-1.072c0-.477-.125-.84-.375-1.09-.246-.25-.609-.375-1.089-.375-.473 0-.834.127-1.084.381-.25.25-.375.611-.375 1.084z" fill="#909090"/></svg>